<?xml version="1.0" encoding="UTF-8"?>
<!DOCTYPE svg PUBLIC "-//W3C//DTD SVG 1.1//EN" "http://www.w3.org/Graphics/SVG/1.1/DTD/svg11.dtd">
<svg width="160mm" height="90mm" viewBox="0 0 16000 9000" version="1.1" xmlns="http://www.w3.org/2000/svg" stroke-width="28.222" stroke-linejoin="round" xml:space="preserve">
 <path fill="rgb(255,255,255)" stroke="none" d="M 8000,8999 L 0,8999 0,0 15999,0 15999,8999 8000,8999 Z"/>
 <path fill="none" stroke="rgb(179,179,179)" stroke-linejoin="round" d="M 8629,7191 L 1952,7191 1952,1275 15307,1275 15307,7191 8629,7191 Z"/>
 <path fill="none" stroke="rgb(179,179,179)" stroke-linejoin="round" d="M 15307,7189 L 1952,7189"/>
 <path fill="none" stroke="rgb(179,179,179)" stroke-linejoin="round" d="M 15307,6114 L 1952,6114"/>
 <path fill="none" stroke="rgb(179,179,179)" stroke-linejoin="round" d="M 15307,5038 L 1952,5038"/>
 <path fill="none" stroke="rgb(179,179,179)" stroke-linejoin="round" d="M 15307,3963 L 1952,3963"/>
 <path fill="none" stroke="rgb(179,179,179)" stroke-linejoin="round" d="M 15307,2887 L 1952,2887"/>
 <path fill="none" stroke="rgb(179,179,179)" stroke-linejoin="round" d="M 15307,1811 L 1952,1811"/>
 <path fill="none" stroke="rgb(179,179,179)" stroke-linejoin="round" d="M 1952,7339 L 1952,7189"/>
 <path fill="none" stroke="rgb(179,179,179)" stroke-linejoin="round" d="M 1952,7339 L 1952,7189"/>
 <path fill="none" stroke="rgb(179,179,179)" stroke-linejoin="round" d="M 4178,7339 L 4178,7189"/>
 <path fill="none" stroke="rgb(179,179,179)" stroke-linejoin="round" d="M 4178,7339 L 4178,7189"/>
 <path fill="none" stroke="rgb(179,179,179)" stroke-linejoin="round" d="M 6404,7339 L 6404,7189"/>
 <path fill="none" stroke="rgb(179,179,179)" stroke-linejoin="round" d="M 6404,7339 L 6404,7189"/>
 <path fill="none" stroke="rgb(179,179,179)" stroke-linejoin="round" d="M 8629,7339 L 8629,7189"/>
 <path fill="none" stroke="rgb(179,179,179)" stroke-linejoin="round" d="M 8629,7339 L 8629,7189"/>
 <path fill="none" stroke="rgb(179,179,179)" stroke-linejoin="round" d="M 10855,7339 L 10855,7189"/>
 <path fill="none" stroke="rgb(179,179,179)" stroke-linejoin="round" d="M 10855,7339 L 10855,7189"/>
 <path fill="none" stroke="rgb(179,179,179)" stroke-linejoin="round" d="M 13080,7339 L 13080,7189"/>
 <path fill="none" stroke="rgb(179,179,179)" stroke-linejoin="round" d="M 13080,7339 L 13080,7189"/>
 <path fill="none" stroke="rgb(179,179,179)" stroke-linejoin="round" d="M 15307,7339 L 15307,7189"/>
 <path fill="none" stroke="rgb(179,179,179)" stroke-linejoin="round" d="M 15307,7339 L 15307,7189"/>
 <path fill="none" stroke="rgb(179,179,179)" stroke-linejoin="round" d="M 1952,7189 L 15307,7189"/>
 <path fill="none" stroke="rgb(179,179,179)" stroke-linejoin="round" d="M 1802,7189 L 1952,7189"/>
 <path fill="none" stroke="rgb(179,179,179)" stroke-linejoin="round" d="M 1802,7189 L 1952,7189"/>
 <path fill="none" stroke="rgb(179,179,179)" stroke-linejoin="round" d="M 1802,6114 L 1952,6114"/>
 <path fill="none" stroke="rgb(179,179,179)" stroke-linejoin="round" d="M 1802,6114 L 1952,6114"/>
 <path fill="none" stroke="rgb(179,179,179)" stroke-linejoin="round" d="M 1802,5038 L 1952,5038"/>
 <path fill="none" stroke="rgb(179,179,179)" stroke-linejoin="round" d="M 1802,5038 L 1952,5038"/>
 <path fill="none" stroke="rgb(179,179,179)" stroke-linejoin="round" d="M 1802,3963 L 1952,3963"/>
 <path fill="none" stroke="rgb(179,179,179)" stroke-linejoin="round" d="M 1802,3963 L 1952,3963"/>
 <path fill="none" stroke="rgb(179,179,179)" stroke-linejoin="round" d="M 1802,2887 L 1952,2887"/>
 <path fill="none" stroke="rgb(179,179,179)" stroke-linejoin="round" d="M 1802,2887 L 1952,2887"/>
 <path fill="none" stroke="rgb(179,179,179)" stroke-linejoin="round" d="M 1802,1811 L 1952,1811"/>
 <path fill="none" stroke="rgb(179,179,179)" stroke-linejoin="round" d="M 1802,1811 L 1952,1811"/>
 <path fill="none" stroke="rgb(179,179,179)" stroke-linejoin="round" d="M 1952,7189 L 1952,1274"/>
 <path fill="none" stroke="rgb(0,69,134)" stroke-width="80" stroke-linejoin="round" d="M 1952,6555 L 1956,6648 1960,6595 1965,6687 1969,6687 1974,6661 1978,6648 1983,6595 1987,6489 1992,6648 1996,6555 2000,6529 2005,6595 2009,6542 2014,6568 2018,6582 2023,6634 2027,6674 2032,6516 2036,6595 2045,6555 2049,6608 2054,6489 2058,6502 2063,6582 2067,6634 2072,6516 2076,6634 2081,6463 2085,6687 2090,6542 2094,6529 2098,6634 2103,6476 2107,6436 2112,6555 2116,6436 2125,6542 2130,6397 2134,6542 2138,6436 2147,6529 2152,6476 2156,6516 2161,6370 2165,6423 2170,6384 2174,6357 2179,6344 2183,6370 2187,6463 2192,6384 2196,6436 2201,6318 2205,6397 2210,6423 2214,6278 2219,6384 2223,6278 2228,6304 2232,6278 2236,6225 2241,6278 2245,6265 2250,6370 2254,6225 2259,6397 2263,6212 2268,6344 2272,6172 2276,6238 2281,6225 2285,6186 2299,6120 2303,6186 2312,6080 2317,6106 2325,6146 2330,6212 2334,6067 2339,6120 2343,6172 2348,6001 2352,6080 2357,5829 2361,6120 2366,6080 2370,6093 2374,5922 2379,6014 2383,6054 2388,5895 2392,5961 2397,6001 2401,6027 2406,5961 2410,6067 2415,5869 2419,5895 2423,5816 2428,5935 2432,5895 2437,5842 2441,5895 2446,5869 2450,5816 2459,5750 2463,5737 2468,5724 2472,5829 2477,5790 2481,5697 2486,5776 2490,5790 2495,5803 2499,5710 2504,5790 2508,5697 2512,5684 2517,5697 2521,5658 2526,5776 2530,5724 2535,5578 2539,5644 2544,5592 2548,5631 2553,5486 2557,5631 2561,5499 2566,5565 2570,5539 2575,5578 2579,5526 2584,5526 2588,5578 2593,5552 2597,5420 2601,5499 2606,5433 2610,5433 2615,5565 2619,5473 2624,5526 2628,5512 2633,5394 2637,5446 2642,5275 2646,5420 2650,5235 2655,5275 2659,5314 2664,5328 2668,5262 2673,5367 2677,5275 2682,5314 2686,5288 2691,5314 2695,5169 2699,5262 2704,5130 2708,5024 2713,5143 2717,5262 2722,5116 2726,5090 2735,5090 2740,5064 2744,5077 2748,5130 2753,4958 2757,4905 2762,5050 2766,5064 2771,4984 2775,5024 2784,5050 2788,4984 2793,5024 2797,4945 2802,4998 2806,4905 2811,5024 2815,4918 2820,4839 2824,4932 2829,4866 2833,4945 2837,4852 2846,4760 2851,4800 2855,4852 2860,4786 2864,4668 2869,4747 2873,4826 2882,4760 2886,4681 2891,4602 2895,4641 2900,4734 2904,4628 2909,4641 2913,4734 2918,4668 2922,4720 2926,4575 2931,4522 2935,4602 2940,4457 2944,4707 2949,4575 2953,4628 2958,4549 2962,4457 2967,4615 2971,4509 2975,4378 2980,4431 2984,4457 2989,4391 2993,4325 2998,4405 3002,4418 3007,4299 3011,4352 3016,4365 3020,4418 3024,4325 3029,4259 3033,4325 3038,4286 3042,4352 3047,4312 3051,4312 3060,4405 3065,4220 3069,4352 3073,4180 3078,4246 3082,4220 3087,4299 3091,4114 3096,4141 3100,4193 3105,4246 3109,4180 3113,4114 3118,4061 3122,4088 3127,4048 3131,4048 3136,4180 3140,3995 3145,4035 3149,4154 3154,4088 3158,4009 3162,3956 3167,4088 3171,4101 3176,3956 3180,4075 3185,3916 3189,3903 3194,3956 3198,3890 3203,3890 3207,3903 3211,3916 3216,3771 3220,3811 3229,3890 3234,3745 3243,3890 3251,3837 3256,3692 3260,3784 3265,3718 3269,3718 3278,3745 3283,3639 3292,3507 3296,3665 3300,3758 3305,3665 3309,3639 3318,3613 3323,3679 3327,3586 3332,3718 3336,3665 3341,3507 3345,3652 3349,3481 3354,3547 3358,3613 3363,3731 3367,3679 3372,3481 3376,3547 3381,3494 3385,3481 3389,3547 3394,3533 3403,3652 3407,3520 3412,3441 3416,3454 3421,3428 3425,3401 3430,3428 3434,3415 3438,3467 3443,3335 3447,3335 3452,3269 3456,3441 3461,3401 3465,3217 3470,3375 3474,3441 3483,3375 3487,3269 3492,3296 3496,3362 3501,3296 3505,3269 3510,3230 3514,3243 3519,3322 3523,3217 3528,3349 3532,3269 3536,3137 3541,3296 3545,3111 3550,3203 3559,3071 3563,3269 3568,3111 3572,3071 3581,3256 3585,3019 3590,3058 3599,3151 3603,3058 3608,3005 3612,3177 3617,3085 3621,2953 3625,3151 3630,3058 3634,3032 3639,2847 3643,2953 3648,2913 3652,2900 3657,3085 3661,3111 3666,2926 3670,3071 3674,2992 3679,3032 3683,2913 3688,2887 3692,3045 3697,2847 3701,2794 3706,3045 3710,2821 3714,2966 3719,2992 3723,2939 3728,2807 3732,2873 3737,2847 3741,2939 3750,2913 3755,2821 3759,2768 3763,2913 3768,2636 3772,2728 3777,2834 3786,2728 3790,2821 3795,2583 3799,2741 3804,2781 3808,2821 3812,2636 3817,2636 3821,2834 3826,2741 3830,2689 3835,2636 3839,2768 3844,2689 3848,2649 3853,2781 3857,2702 3861,2755 3866,2504 3870,2715 3875,2636 3879,2583 3884,2702 3888,2517 3893,2610 3897,2583 3901,2517 3906,2530 3910,2623 3915,2662 3919,2491 3924,2451 3928,2544 3933,2623 3937,2570 3942,2623 3946,2530 3950,2623 3955,2557 3959,2332 3964,2425 3968,2451 3973,2372 3977,2491 3982,2425 3986,2610 3991,2517 3995,2464 3999,2438 4004,2570 4008,2266 4013,2517 4017,2491 4022,2372 4026,2319 4031,2517 4035,2504 4039,2517 4044,2346 4048,2319 4053,2346 4062,2372 4066,2346 4071,2280 4075,2398 4080,2464 4084,2227 4088,2319 4093,2372 4097,2385 4102,2359 4106,2412 4111,2306 4115,2266 4120,2319 4124,2214 4129,2293 4133,2398 4137,2214 4146,2214 4151,2306 4155,2161 4160,2240 4169,2280 4173,2161 4178,2266 4182,2068 4186,2214 4191,2319 4195,2306 4200,2187 4204,2148 4209,2214 4218,2187 4222,2121 4226,2240 4231,2095 4235,2108 4240,2068 4244,2200 4249,2029 4253,2174 4258,2200 4262,2187 4267,1950 4271,2174 4275,2068 4280,2174 4284,2029 4289,2095 4298,2042 4302,2016 4307,2002 4311,2108 4316,2002 4324,2095 4333,2002 4338,2134 4342,2002 4347,2068 4351,2148 4356,2148 4360,2042 4364,2068 4369,1857 4373,2095 4378,1923 4382,1976 4387,2016 4391,1870 4396,1923 4400,1910 4405,1897 4409,1870 4413,2042 4422,2016 4427,1844 4431,1791 4436,1910 4440,1804 4449,1976 4454,1844 4458,1791 4462,1976 4467,1989 4476,1910 4480,1857 4485,1738 4489,1936 4494,1699 4498,1976 4502,1884 4507,1897 4511,2002 4516,1818 4520,1791 4525,1818 4529,1791 4534,1791 4538,1778 4543,1870 4547,1699 4551,1672 4556,1884 4560,1686 4565,1989 4569,1699 4574,1738 4578,1857 4583,1778 4587,1778 4592,1725 4596,1646 4600,1659 4605,1646 4609,1778 4614,1593 4618,1765 4623,1606 4627,1646 4632,1633 4636,1686 4641,1738 4645,1606 4649,1686 4654,1633 4658,1699 4663,1725 4667,1633 4672,1699 4676,1593 4681,1474 4685,1606 4689,1580 4694,1593 4698,1659 4703,1778 4707,1580 4712,1580 4725,1778 4734,1646 4738,1870 4743,1580 4747,1606 4752,1527 4756,1633 4765,1606 4770,1633 4774,1580 4779,1778 4783,1752 4787,1593 4792,1725 4796,1738 4801,1778 4805,1699 4810,1765 4814,1804 4819,1778 4823,1633 4832,1686 4836,1540 4841,1765 4845,1804 4850,1659 4854,1725 4859,1580 4863,1712 4868,1633 4872,1804 4876,1593 4881,1540 4885,1580 4890,1527 4894,1778 4899,1527 4903,1778 4908,1686 4912,1633 4917,1633 4921,1738 4925,1606 4930,1963 4934,1778 4943,1923 4948,1738 4952,1686 4957,1884 4961,1791 4966,1686 4970,1580 4974,1686 4979,1752 4983,1646 4988,1686 4992,1765 4997,1633 5001,1870 5006,1831 5010,1936 5014,1844 5019,1884 5023,1989 5028,1804 5032,1686 5037,1936 5041,1791 5046,1844 5050,1791 5055,1818 5063,1989 5068,1791 5072,2042 5077,1989 5081,2042 5086,1897 5090,1818 5095,1791 5099,1844 5104,1804 5108,1963 5112,1923 5117,1844 5121,1897 5126,1844 5130,1976 5135,2108 5139,1897 5144,2095 5148,2029 5152,2095 5157,1976 5161,1936 5166,1897 5170,2055 5175,1950 5184,2200 5188,1950 5193,2029 5197,2095 5201,2200 5206,2148 5210,2174 5215,2161 5219,2002 5224,2200 5228,2148 5233,2029 5237,2293 5242,2240 5246,2200 5255,2068 5259,2148 5264,2214 5268,2108 5273,2280 5277,2121 5282,2134 5286,2108 5291,2266 5295,2240 5299,2240 5304,2359 5308,2293 5313,2398 5317,2359 5322,2412 5326,2385 5331,2214 5335,2544 5339,2412 5344,2266 5348,2372 5353,2412 5357,2451 5362,2240 5366,2412 5371,2266 5375,2319 5380,2346 5384,2319 5393,2517 5397,2319 5402,2425 5406,2372 5411,2517 5415,2293 5420,2332 5424,2570 5429,2398 5433,2504 5437,2583 5442,2478 5446,2464 5451,2425 5455,2570 5460,2425 5464,2346 5469,2425 5473,2478 5477,2544 5482,2491 5486,2530 5491,2530 5495,2636 5500,2491 5504,2636 5509,2610 5513,2583 5518,2702 5522,2570 5526,2728 5531,2768 5535,2781 5544,2834 5549,2887 5553,2821 5558,2675 5562,2781 5567,2834 5571,2741 5575,2781 5580,2741 5584,2939 5589,2768 5593,2689 5598,2741 5602,2807 5607,2860 5611,2847 5615,2768 5620,2900 5624,2794 5629,2887 5633,2794 5638,2887 5642,2939 5647,2702 5651,2847 5656,2966 5660,2992 5664,3019 5669,2847 5678,3045 5682,3019 5687,2900 5696,3098 5700,3151 5705,2953 5709,2926 5713,3005 5718,3137 5727,3124 5731,2966 5736,3151 5740,3098 5745,3045 5749,3005 5754,3190 5758,3085 5762,3058 5767,3058 5771,3137 5776,3190 5780,3177 5785,3256 5789,3137 5794,3151 5798,3256 5802,3309 5807,3203 5811,3349 5816,3335 5820,3137 5825,3309 5829,3454 5834,3164 5838,3058 5843,3164 5847,3401 5851,3415 5856,3335 5860,3388 5865,3269 5869,3296 5874,3415 5878,3296 5883,3269 5887,3230 5892,3401 5896,3467 5900,3322 5905,3467 5909,3375 5914,3309 5918,3494 5923,3375 5927,3454 5932,3520 5936,3494 5940,3547 5945,3481 5949,3388 5954,3481 5958,3679 5963,3481 5967,3533 5972,3547 5976,3481 5981,3679 5985,3613 5989,3507 5994,3533 5998,3679 6003,3349 6007,3375 6012,3652 6016,3547 6021,3533 6025,3639 6030,3560 6034,3494 6038,3613 6043,3626 6047,3679 6052,3652 6056,3494 6061,3718 6065,3586 6070,3613 6074,3679 6079,3718 6083,3837 6087,3731 6092,3797 6096,3560 6101,3731 6110,3692 6114,3784 6119,3758 6123,3758 6127,3692 6132,3758 6136,3758 6141,3718 6150,3890 6154,3850 6159,3824 6163,3890 6172,3745 6176,3758 6181,3797 6185,3903 6190,3877 6194,3692 6199,3982 6203,3903 6208,3692 6212,3824 6217,3916 6221,3929 6225,3903 6230,4061 6234,4048 6248,3916 6252,4075 6261,4061 6265,3903 6270,4009 6274,3797 6279,4022 6283,3956 6288,4101 6297,4075 6301,3982 6306,4101 6310,4154 6314,4009 6319,4141 6323,4233 6328,4141 6332,4193 6337,4022 6341,4141 6346,4061 6350,4035 6355,4207 6359,4035 6363,4088 6368,4061 6372,4114 6377,4075 6381,4114 6386,3969 6390,4167 6395,4233 6399,4220 6404,4141 6408,4114 6412,4207 6417,4193 6421,4233 6426,4193 6430,4246 6435,4259 6439,4312 6444,4154 6448,4233 6452,4352 6457,4325 6461,4457 6466,4312 6470,4207 6475,4233 6479,4391 6484,4273 6488,4325 6493,4273 6497,4418 6501,4233 6506,4286 6510,4365 6515,4352 6519,4273 6524,4352 6528,4325 6533,4471 6537,4365 6542,4444 6546,4471 6550,4325 6555,4522 6559,4339 6564,4405 6568,4509 6573,4339 6577,4497 6582,4575 6586,4378 6590,4418 6595,4457 6599,4497 6604,4471 6608,4522 6613,4431 6617,4444 6622,4325 6626,4431 6631,4562 6635,4509 6639,4378 6644,4536 6648,4628 6653,4575 6657,4575 6662,4431 6666,4536 6671,4681 6675,4549 6680,4575 6684,4536 6688,4562 6693,4536 6697,4588 6702,4628 6706,4615 6711,4615 6715,4681 6720,4549 6724,4536 6728,4588 6733,4549 6737,4628 6742,4602 6746,4588 6751,4641 6755,4734 6764,4668 6769,4773 6773,4628 6777,4720 6782,4628 6786,4654 6791,4668 6795,4588 6800,4668 6804,4602 6809,4800 6813,4681 6818,4654 6822,4918 6826,4839 6831,4826 6835,4786 6840,4707 6844,4800 6849,4602 6853,4747 6858,4892 6862,4747 6871,4734 6875,4892 6880,4800 6884,4879 6889,4945 6893,4892 6898,4905 6902,4945 6907,4892 6911,4800 6915,4892 6920,4945 6924,4866 6929,4918 6933,4800 6938,4945 6942,4826 6947,4800 6956,4892 6960,4892 6964,4998 6969,4945 6973,4852 6978,4786 6982,4945 6987,4852 6991,4800 6996,4839 7000,4971 7005,4984 7009,4971 7013,5050 7018,4879 7027,4918 7031,4905 7036,4852 7040,4984 7045,4958 7049,4905 7053,4971 7058,5156 7062,5011 7067,4932 7071,5011 7076,4826 7080,4905 7085,5050 7089,4958 7098,4998 7102,4879 7107,4984 7111,5103 7116,5090 7120,4971 7125,5077 7129,4945 7134,4958 7138,5024 7143,5011 7147,4958 7151,5064 7156,5130 7160,5077 7165,4971 7169,5077 7174,5050 7178,5077 7183,5050 7187,4984 7192,5156 7196,5090 7200,5011 7205,5130 7209,5011 7214,5116 7218,5064 7223,5037 7227,5143 7232,5143 7236,5235 7240,5156 7245,5156 7249,5064 7254,5156 7258,5156 7263,5024 7267,5209 7272,4971 7276,5064 7281,5235 7285,4984 7289,5235 7294,5130 7298,5196 7303,5156 7307,5314 7312,5064 7316,5090 7321,5116 7325,5235 7330,5103 7334,5196 7343,5130 7347,5024 7352,5169 7356,5116 7361,5103 7365,5169 7370,5169 7374,5222 7378,5367 7383,5314 7387,5024 7392,5196 7396,5235 7401,5196 7405,5169 7410,5248 7414,5222 7419,5169 7423,5116 7427,5169 7441,5209 7445,5182 7450,5314 7454,5314 7463,5235 7468,5169 7472,5262 7476,5064 7481,5288 7485,5367 7494,5196 7499,5314 7503,5354 7508,5301 7512,5341 7517,5275 7521,5275 7525,5301 7530,5222 7534,5367 7539,5420 7543,5328 7548,5328 7552,5420 7557,5328 7561,5473 7565,5394 7570,5420 7574,5196 7579,5301 7583,5367 7588,5262 7592,5169 7597,5248 7601,5367 7610,5407 7614,5394 7619,5288 7623,5420 7628,5182 7632,5288 7637,5367 7641,5301 7646,5301 7650,5446 7655,5354 7659,5460 7663,5367 7668,5394 7672,5367 7677,5446 7681,5275 7686,5394 7690,5328 7695,5526 7699,5446 7703,5420 7708,5380 7712,5394 7717,5420 7721,5473 7726,5460 7730,5394 7735,5446 7739,5275 7744,5526 7748,5407 7752,5446 7757,5394 7761,5275 7766,5328 7775,5499 7779,5380 7784,5460 7788,5552 7793,5460 7797,5380 7801,5578 7806,5328 7810,5380 7815,5446 7819,5552 7824,5499 7828,5433 7833,5380 7837,5552 7841,5394 7846,5380 7850,5578 7855,5512 7859,5407 7864,5380 7868,5460 7873,5433 7877,5578 7882,5539 7886,5394 7890,5499 7895,5433 7899,5460 7904,5446 7908,5407 7913,5526 7917,5380 7922,5460 7926,5473 7931,5473 7935,5486 7939,5552 7944,5578 7953,5407 7957,5512 7962,5433 7966,5446 7971,5539 7975,5407 7980,5433 7984,5499 7988,5526 7993,5578 7997,5486 8001,5446 8005,5433 8010,5552 8014,5552 8019,5499 8023,5394 8027,5433 8032,5565 8036,5539 8041,5512 8045,5499 8050,5578 8054,5552 8059,5578 8068,5565 8072,5512 8076,5486 8081,5486 8085,5552 8094,5446 8099,5486 8108,5578 8112,5631 8117,5486 8121,5565 8125,5512 8130,5592 8134,5578 8139,5512 8143,5631 8148,5539 8152,5592 8157,5486 8161,5618 8165,5684 8170,5592 8174,5499 8179,5658 8183,5499 8192,5592 8197,5486 8201,5631 8206,5618 8210,5658 8214,5565 8219,5658 8223,5605 8228,5592 8232,5473 8237,5710 8241,5684 8246,5684 8250,5710 8255,5671 8259,5618 8263,5539 8268,5460 8272,5724 8277,5658 8281,5592 8286,5592 8290,5618 8295,5592 8299,5565 8304,5737 8308,5697 8312,5578 8317,5644 8321,5605 8326,5776 8330,5618 8335,5763 8339,5644 8344,5684 8357,5684 8361,5658 8366,5697 8370,5565 8375,5697 8379,5671 8384,5658 8388,5605 8393,5671 8397,5790 8401,5539 8406,5697 8410,5724 8415,5618 8419,5684 8424,5724 8428,5618 8433,5684 8437,5724 8442,5605 8446,5618 8450,5605 8455,5724 8459,5710 8464,5790 8468,5790 8473,5697 8477,5592 8482,5697 8486,5684 8490,5737 8495,5539 8499,5684 8504,5763 8508,5658 8513,5763 8517,5697 8522,5671 8526,5592 8531,5710 8535,5592 8539,5684 8544,5790 8548,5790 8553,5697 8557,5644 8562,5618 8566,5592 8571,5750 8575,5605 8584,5592 8588,5592 8593,5631 8597,5684 8602,5592 8606,5724 8611,5618 8615,5737 8620,5644 8624,5592 8629,5684 8633,5539 8637,5578 8642,5658 8646,5592 8651,5605 8655,5592 8660,5539 8664,5565 8669,5644 8673,5539 8677,5697 8682,5658 8686,5671 8691,5631 8695,5512 8700,5592 8704,5539 8709,5565 8713,5631 8718,5578 8722,5552 8726,5394 8731,5499 8735,5539 8740,5486 8744,5578 8749,5512 8753,5473 8758,5526 8762,5446 8767,5618 8771,5407 8775,5526 8780,5433 8784,5565 8789,5486 8793,5526 8798,5499 8802,5486 8811,5486 8820,5499 8824,5565 8829,5460 8833,5407 8838,5446 8842,5367 8847,5420 8851,5301 8856,5380 8860,5367 8864,5275 8869,5460 8873,5341 8878,5314 8882,5394 8887,5328 8891,5367 8900,5169 8905,5275 8909,5196 8913,5275 8918,5314 8922,5248 8927,5341 8931,5314 8940,5116 8945,5130 8949,5262 8958,5182 8962,5262 8967,5182 8971,5090 8976,5064 8980,5037 8985,5064 8989,5077 8994,5248 9002,4984 9011,5209 9016,5064 9020,4958 9029,4984 9034,5077 9038,4984 9043,4866 9047,4998 9051,5037 9056,5011 9060,4905 9069,4918 9074,5024 9078,5037 9083,4945 9087,4918 9092,4945 9096,4866 9100,4905 9105,5050 9109,4760 9114,4813 9118,4773 9123,4918 9127,4839 9132,4747 9136,4747 9145,4760 9149,4813 9154,4707 9158,4839 9163,4813 9167,4734 9172,4892 9176,4720 9181,4654 9189,4734 9194,4681 9198,4628 9203,4588 9207,4734 9212,4668 9216,4536 9221,4654 9225,4522 9230,4734 9234,4681 9238,4536 9243,4522 9247,4720 9252,4484 9256,4457 9261,4522 9265,4509 9270,4391 9274,4522 9278,4471 9283,4509 9287,4431 9292,4352 9296,4378 9301,4352 9305,4522 9310,4562 9314,4497 9319,4497 9323,4418 9327,4325 9332,4365 9336,4325 9341,4246 9345,4220 9350,4246 9354,4220 9359,4405 9363,4167 9368,4339 9372,4339 9376,4127 9381,4312 9385,4220 9390,4114 9399,4114 9408,4259 9412,4088 9421,4009 9425,3982 9430,4009 9434,4035 9439,4061 9443,4048 9452,3903 9457,4088 9461,3969 9465,4061 9470,4009 9474,4035 9479,4035 9483,3903 9488,3995 9492,3705 9497,4048 9501,3903 9506,3811 9510,3890 9514,3982 9519,3890 9523,3903 9528,3745 9532,3995 9537,3824 9541,4022 9546,3877 9550,3705 9555,3890 9559,3877 9563,3811 9568,3824 9572,3639 9577,3784 9581,3745 9586,3692 9590,3547 9595,3718 9599,3784 9603,3718 9608,3731 9612,3797 9617,3599 9621,3679 9630,3533 9635,3679 9639,3652 9644,3533 9648,3520 9652,3573 9661,3441 9666,3613 9675,3428 9679,3467 9684,3547 9688,3520 9693,3481 9697,3520 9701,3375 9706,3388 9710,3362 9715,3481 9719,3454 9724,3467 9728,3454 9733,3322 9737,3349 9742,3322 9746,3415 9750,3454 9755,3375 9759,3441 9764,3230 9768,3335 9773,3296 9777,3349 9782,3349 9786,3362 9790,3256 9795,3230 9799,3190 9804,3177 9808,3164 9813,3309 9817,3111 9822,3349 9826,3177 9831,3124 9839,3124 9844,3151 9848,3177 9853,3230 9857,3124 9862,3058 9866,3230 9871,3019 9875,3045 9880,3058 9884,3098 9888,2953 9893,3071 9897,2953 9906,2926 9911,2913 9915,3045 9920,2847 9924,2926 9928,2953 9933,2992 9937,2979 9942,2860 9946,2992 9951,2887 9955,2992 9960,3019 9964,2821 9969,2807 9973,2900 9977,2715 9982,2873 9986,2939 9991,2913 9995,2873 10000,2807 10004,2847 10009,2689 10013,2755 10018,2702 10022,2887 10026,2715 10031,2887 10035,2741 10040,2794 10044,2926 10049,2636 10053,2781 10058,2662 10062,2636 10066,2781 10071,2636 10075,2610 10080,2583 10084,2583 10089,2728 10093,2781 10098,2702 10102,2755 10107,2768 10111,2675 10120,2610 10124,2623 10129,2570 10133,2583 10138,2570 10142,2675 10147,2491 10151,2530 10156,2557 10160,2530 10164,2530 10169,2425 10173,2596 10178,2530 10182,2544 10187,2425 10191,2504 10196,2425 10200,2530 10205,2372 10209,2412 10213,2359 10218,2240 10222,2557 10227,2438 10231,2464 10236,2412 10240,2319 10245,2425 10249,2266 10253,2319 10258,2227 10262,2214 10267,2372 10271,2398 10276,2266 10280,2412 10285,2319 10289,2451 10294,2412 10298,2214 10302,2412 10307,2200 10311,2332 10316,2385 10320,2134 10325,2214 10329,2280 10334,2240 10338,2108 10343,2214 10347,2280 10351,2187 10356,2306 10360,2253 10365,2187 10369,2200 10374,2200 10378,2187 10383,2108 10387,2200 10391,2029 10396,2200 10400,2148 10405,2082 10409,2002 10414,2134 10418,2095 10423,2187 10427,2200 10432,2095 10436,2042 10440,2068 10445,2148 10449,2002 10454,2002 10463,2042 10467,2002 10472,2134 10476,2095 10481,2042 10485,2016 10489,2002 10494,2095 10498,1923 10503,1897 10507,1897 10516,1963 10521,1910 10525,2068 10530,1844 10534,1989 10538,2095 10543,1910 10547,1844 10552,2108 10556,1884 10561,1963 10565,1963 10570,1844 10574,1989 10578,1844 10587,1950 10592,1923 10596,1765 10601,1818 10605,1910 10610,1857 10619,1633 10623,1672 10627,1633 10632,1963 10636,1646 10641,1897 10645,1897 10650,1765 10659,1963 10663,1725 10668,1936 10672,1950 10676,1712 10681,1738 10685,1765 10690,1791 10694,1765 10699,1884 10703,1778 10708,1712 10712,1778 10716,1633 10721,1897 10725,1686 10730,1712 10734,1884 10739,1659 10743,1831 10752,1857 10757,1738 10761,1791 10765,1686 10770,1738 10774,1818 10779,1686 10783,1712 10788,1778 10792,1884 10797,1699 10801,1831 10806,1567 10810,1831 10814,1686 10819,1752 10823,1831 10828,1633 10832,1791 10837,1633 10841,1831 10846,1686 10850,1659 10855,1818 10859,1857 10863,1884 10868,1857 10877,1686 10881,1844 10886,1831 10890,1712 10895,1884 10899,1976 10903,1857 10908,1791 10912,1672 10917,1686 10921,1857 10926,1686 10930,1738 10935,1857 10939,1897 10944,1712 10948,1963 10952,1738 10957,1818 10961,1923 10966,1989 10970,1791 10975,1884 10984,1818 10988,1870 10993,1818 10997,1884 11001,1844 11006,1804 11010,1738 11015,1963 11019,1857 11024,2068 11028,1791 11033,1963 11037,1791 11046,1870 11050,1989 11055,1976 11059,1989 11064,1857 11068,1844 11073,1923 11077,1884 11082,1989 11086,1989 11090,1897 11095,1844 11099,1844 11104,2082 11108,2148 11113,1897 11117,1791 11122,2002 11126,1857 11131,2002 11135,2095 11139,1923 11144,2029 11148,2200 11153,2121 11157,2029 11166,1950 11171,2187 11175,2016 11179,2148 11184,2016 11188,2148 11193,2161 11197,1963 11202,2134 11206,2200 11211,2293 11215,2055 11220,2200 11224,2253 11228,2121 11233,1910 11237,2082 11242,2055 11246,2346 11251,2095 11255,2016 11260,2200 11264,2134 11269,2121 11273,2412 11277,2306 11282,2359 11286,2280 11291,2359 11295,2266 11300,2161 11304,2359 11309,2398 11313,2280 11318,2412 11322,2280 11326,2412 11331,2108 11335,2372 11340,2319 11344,2227 11349,2346 11353,2359 11358,2319 11362,2412 11366,2293 11371,2372 11375,2319 11389,2214 11393,2491 11398,2517 11402,2319 11407,2464 11411,2372 11415,2385 11420,2425 11424,2570 11429,2438 11438,2425 11442,2596 11447,2478 11451,2491 11456,2425 11460,2610 11464,2557 11469,2478 11473,2491 11482,2478 11487,2530 11491,2557 11496,2636 11500,2649 11504,2662 11509,2689 11513,2715 11518,2728 11522,2636 11536,2741 11540,2636 11545,2834 11549,2781 11553,2728 11558,2860 11562,2821 11567,2544 11571,2807 11580,2662 11585,2649 11589,2702 11594,2636 11598,2741 11602,2768 11607,2689 11611,2860 11616,2741 11620,2755 11629,2887 11634,2926 11638,2794 11643,2847 11647,3045 11651,2847 11656,2807 11660,2794 11665,2847 11669,2926 11674,2847 11678,3098 11683,3045 11687,2900 11691,2992 11696,3045 11700,3045 11705,3137 11709,3098 11718,2860 11723,2900 11732,3137 11736,3045 11740,3098 11745,3019 11749,2953 11754,3124 11758,3019 11763,2847 11767,3203 11772,3058 11781,3190 11785,3058 11794,3256 11798,3005 11803,3190 11807,3164 11812,3164 11821,3151 11825,3296 11829,3256 11834,3058 11838,3164 11847,3296 11852,3375 11856,3243 11861,3309 11865,3349 11870,3269 11874,3177 11878,3243 11883,3269 11887,3203 11892,3217 11896,3269 11901,3388 11905,3296 11910,3362 11914,3269 11919,3296 11923,3375 11927,3349 11932,3467 11936,3481 11941,3283 11945,3388 11950,3322 11954,3375 11959,3454 11963,3520 11968,3613 11972,3349 11976,3401 11981,3560 11985,3375 11990,3415 11994,3401 11999,3481 12003,3573 12008,3547 12012,3481 12016,3481 12021,3322 12025,3560 12030,3652 12034,3573 12039,3481 12043,3652 12048,3507 12052,3573 12057,3507 12061,3547 12065,3481 12070,3599 12074,3626 12079,3679 12088,3731 12092,3599 12097,3705 12101,3679 12106,3652 12110,3639 12114,3679 12119,3665 12123,3784 12128,3784 12132,3837 12137,3692 12141,3639 12146,3692 12150,3652 12154,3718 12159,3824 12163,3639 12168,3863 12172,3877 12177,3705 12181,3811 12186,3837 12195,3745 12199,3771 12203,3797 12208,3665 12212,3797 12217,3890 12221,3863 12226,3890 12230,3639 12235,3745 12239,3903 12244,3890 12248,3692 12252,3890 12257,3863 12261,3890 12266,3850 12270,3995 12275,3890 12279,3903 12284,3995 12288,3903 12292,3824 12297,3903 12301,3890 12306,3903 12310,3916 12315,4048 12319,4075 12324,3969 12328,4075 12333,3903 12341,4048 12346,4101 12350,4048 12355,4088 12359,3903 12364,3850 12368,4101 12373,4154 12377,3903 12382,3929 12386,3982 12390,4154 12395,4048 12399,4141 12404,4009 12408,4114 12413,3995 12417,4154 12426,4022 12431,4035 12435,4207 12439,4259 12444,4075 12448,4009 12453,4180 12457,4207 12462,4141 12466,4207 12471,4075 12475,4207 12479,4273 12484,4207 12488,4246 12493,4114 12497,4114 12502,4220 12511,4114 12515,4312 12520,4299 12524,4141 12528,4312 12533,4259 12537,4141 12542,4220 12546,4207 12551,4167 12555,4114 12560,4167 12564,4312 12569,4259 12573,4418 12577,4312 12582,4273 12586,4220 12591,4207 12595,4365 12600,4246 12604,4391 12609,4273 12613,4312 12617,4391 12622,4457 12626,4418 12631,4325 12635,4405 12640,4299 12649,4509 12653,4352 12658,4391 12662,4365 12666,4522 12671,4233 12675,4352 12684,4431 12689,4497 12693,4431 12698,4522 12702,4444 12707,4405 12711,4522 12715,4431 12720,4457 12724,4431 12729,4431 12733,4444 12738,4522 12742,4497 12747,4431 12751,4391 12756,4378 12760,4497 12764,4575 12769,4431 12773,4444 12778,4457 12782,4497 12787,4431 12791,4628 12796,4378 12800,4615 12804,4549 12809,4522 12813,4497 12818,4628 12822,4602 12827,4734 12831,4681 12836,4615 12840,4681 12845,4628 12849,4615 12853,4509 12858,4562 12862,4536 12867,4668 12876,4734 12880,4654 12885,4681 12889,4734 12894,4562 12907,4628 12911,4444 12916,4839 12920,4668 12925,4707 12929,4681 12934,4668 12938,4562 12942,4734 12947,4720 12951,4602 12956,4681 12960,4786 12965,4641 12969,4786 12974,4773 12978,4628 12983,4641 12987,4602 12991,4668 12996,4786 13005,4628 13009,4707 13014,4839 13018,4839 13023,4694 13032,4602 13036,4668 13040,4549 13045,4773 13049,4747 13054,4654 13058,4707 13063,4945 13072,4747 13076,4839 13081,4852 13085,4641 13089,4720 13094,4747 13098,4892 13103,4747 13107,4800 13112,4747 13116,4918 13121,4905 13125,4839 13129,4839 13134,4747 13138,4866 13143,4892 13147,4813 13152,4773 13156,4747 13161,4905 13165,4984 13170,4800 13174,4892 13178,4773 13183,4905 13187,4945 13192,4866 13196,4971 13201,5050 13205,4747 13210,4958 13214,4866 13219,4892 13223,4905 13227,5024 13232,4892 13236,4905 13241,4958 13245,5050 13250,4958 13254,4866 13259,4984 13263,4879 13267,4905 13272,4747 13276,4958 13281,4852 13285,5064 13290,5050 13294,4813 13299,4852 13303,5050 13308,4852 13312,5011 13316,5064 13321,4984 13325,5064 13330,4932 13334,4918 13339,4984 13343,5103 13348,5156 13352,5103 13357,4958 13361,4958 13370,4971 13374,5024 13379,5156 13383,5090 13388,5050 13392,5011 13397,4984 13401,4958 13405,5156 13410,5143 13414,5050 13419,5103 13423,5156 13432,5156 13441,5064 13446,4958 13450,5011 13454,5156 13459,4958 13463,5064 13468,5116 13472,5011 13477,5130 13481,5064 13486,5143 13490,5090 13495,4958 13499,5024 13503,5156 13508,5050 13512,5156 13517,5011 13521,5209 13526,4998 13530,5156 13535,5314 13539,5116 13544,5130 13548,5090 13552,5064 13557,5196 13561,5209 13566,5169 13570,5064 13575,5090 13579,5262 13588,5248 13592,5182 13597,5169 13606,5011 13610,5169 13615,5182 13619,5169 13624,5196 13628,5314 13633,5169 13637,5169 13641,5116 13646,5196 13650,5235 13664,5169 13673,5182 13677,5328 13682,5130 13686,5262 13690,5169 13695,5248 13699,5222 13704,5367 13708,5314 13713,5143 13717,5314 13722,5248 13726,5169 13730,5209 13735,5222 13739,5182 13744,5367 13748,5301 13753,5169 13757,5367 13762,5262 13766,5314 13771,5169 13775,5301 13784,5367 13788,5235 13793,5354 13797,5288 13802,5407 13806,5275 13811,5367 13815,5275 13820,5248 13824,5341 13828,5275 13833,5367 13837,5354 13842,5222 13846,5288 13851,5248 13855,5301 13860,5473 13864,5367 13869,5328 13873,5275 13877,5420 13882,5328 13891,5420 13895,5420 13900,5328 13904,5407 13909,5446 13913,5328 13922,5222 13926,5328 13935,5460 13940,5328 13944,5367 13949,5433 13953,5433 13958,5328 13962,5473 13966,5380 13971,5420 13975,5394 13980,5473 13984,5446 13989,5394 13993,5328 13998,5526 14002,5473 14007,5473 14011,5512 14015,5460 14020,5526 14024,5380 14029,5433 14033,5275 14038,5301 14042,5380 14047,5380 14051,5473 14055,5565 14060,5499 14069,5394 14073,5552 14078,5499 14082,5460 14087,5328 14091,5394 14096,5578 14100,5499 14104,5380 14109,5512 14113,5420 14118,5394 14122,5499 14127,5578 14131,5433 14136,5380 14145,5446 14149,5578 14158,5578 14162,5552 14167,5328 14171,5552 14176,5473 14180,5499 14185,5578 14189,5710 14194,5526 14198,5499 14202,5512 14207,5486 14211,5394 14216,5446 14220,5565 14225,5433 14229,5565 14234,5433 14238,5552 14242,5526 14247,5486 14251,5512 14260,5618 14265,5578 14269,5592 14274,5565 14278,5486 14283,5578 14287,5460 14291,5486 14296,5499 14300,5394 14305,5499 14309,5539 14314,5658 14318,5275 14323,5578 14327,5644 14332,5631 14336,5684 14340,5380 14345,5592 14349,5592 14354,5512 14358,5526 14363,5539 14367,5486 14372,5737 14376,5658 14385,5539 14389,5592 14394,5658 14398,5499 14403,5724 14407,5631 14416,5486 14421,5658 14425,5592 14429,5684 14434,5539 14438,5592 14443,5658 14447,5592 14452,5763 14456,5631 14461,5631 14465,5776 14470,5658 14474,5644 14478,5592 14487,5592 14492,5578 14496,5776 14501,5592 14505,5684 14510,5790 14514,5552 14518,5644 14523,5763 14527,5605 14532,5658 14536,5697 14541,5592 14545,5724 14550,5592 14554,5776 14559,5684 14563,5724 14567,5684 14572,5790 14576,5618 14581,5539 14585,5684 14590,5710 14594,5592 14603,5750 14608,5737 14612,5790 14616,5724 14621,5592 14625,5618"/>
 <text class="TextShape"><tspan class="TextParagraph" font-family="Liberation Sans" font-size="353px" font-weight="400"><tspan class="TextPosition" x="1859" y="7757"><tspan fill="rgb(0,0,0)" stroke="none">0</tspan></tspan></tspan></text>
 <text class="TextShape"><tspan class="TextParagraph" font-family="Liberation Sans" font-size="353px" font-weight="400"><tspan class="TextPosition" x="3900" y="7757"><tspan fill="rgb(0,0,0)" stroke="none">500</tspan></tspan></tspan></text>
 <text class="TextShape"><tspan class="TextParagraph" font-family="Liberation Sans" font-size="353px" font-weight="400"><tspan class="TextPosition" x="6033" y="7757"><tspan fill="rgb(0,0,0)" stroke="none">1000</tspan></tspan></tspan></text>
 <text class="TextShape"><tspan class="TextParagraph" font-family="Liberation Sans" font-size="353px" font-weight="400"><tspan class="TextPosition" x="8259" y="7757"><tspan fill="rgb(0,0,0)" stroke="none">1500</tspan></tspan></tspan></text>
 <text class="TextShape"><tspan class="TextParagraph" font-family="Liberation Sans" font-size="353px" font-weight="400"><tspan class="TextPosition" x="10485" y="7757"><tspan fill="rgb(0,0,0)" stroke="none">2000</tspan></tspan></tspan></text>
 <text class="TextShape"><tspan class="TextParagraph" font-family="Liberation Sans" font-size="353px" font-weight="400"><tspan class="TextPosition" x="12710" y="7757"><tspan fill="rgb(0,0,0)" stroke="none">2500</tspan></tspan></tspan></text>
 <text class="TextShape"><tspan class="TextParagraph" font-family="Liberation Sans" font-size="353px" font-weight="400"><tspan class="TextPosition" x="14937" y="7757"><tspan fill="rgb(0,0,0)" stroke="none">3000</tspan></tspan></tspan></text>
 <text class="TextShape"><tspan class="TextParagraph" font-family="Liberation Sans" font-size="353px" font-weight="400"><tspan class="TextPosition" x="1332" y="7310"><tspan fill="rgb(0,0,0)" stroke="none">23</tspan></tspan></tspan></text>
 <text class="TextShape"><tspan class="TextParagraph" font-family="Liberation Sans" font-size="353px" font-weight="400"><tspan class="TextPosition" x="1332" y="6235"><tspan fill="rgb(0,0,0)" stroke="none">25</tspan></tspan></tspan></text>
 <text class="TextShape"><tspan class="TextParagraph" font-family="Liberation Sans" font-size="353px" font-weight="400"><tspan class="TextPosition" x="1332" y="5159"><tspan fill="rgb(0,0,0)" stroke="none">27</tspan></tspan></tspan></text>
 <text class="TextShape"><tspan class="TextParagraph" font-family="Liberation Sans" font-size="353px" font-weight="400"><tspan class="TextPosition" x="1332" y="4083"><tspan fill="rgb(0,0,0)" stroke="none">29</tspan></tspan></tspan></text>
 <text class="TextShape"><tspan class="TextParagraph" font-family="Liberation Sans" font-size="353px" font-weight="400"><tspan class="TextPosition" x="1332" y="3007"><tspan fill="rgb(0,0,0)" stroke="none">31</tspan></tspan></tspan></text>
 <text class="TextShape"><tspan class="TextParagraph" font-family="Liberation Sans" font-size="353px" font-weight="400"><tspan class="TextPosition" x="1332" y="1931"><tspan fill="rgb(0,0,0)" stroke="none">33</tspan></tspan></tspan></text>
 <text class="TextShape"><tspan class="TextParagraph" font-family="Liberation Sans" font-size="459px" font-weight="400"><tspan class="TextPosition" x="4110" y="851"><tspan fill="rgb(0,0,0)" stroke="none">Kp = 20, Ki = 20, Kd = 1, Set point = 29</tspan></tspan></tspan></text>
 <text class="TextShape"><tspan class="TextParagraph" font-family="Liberation Sans" font-size="318px" font-weight="400"><tspan class="TextPosition" x="7936" y="8405"><tspan fill="rgb(0,0,0)" stroke="none">Time (s)</tspan></tspan></tspan></text>
 <text class="TextShape" transform="translate(837,6144) rotate(-90) translate(-837,-6144)"><tspan class="TextParagraph" font-family="Liberation Sans" font-size="318px" font-weight="400"><tspan class="TextPosition" x="837" y="6144"><tspan fill="rgb(0,0,0)" stroke="none">Temperature (Celsius)</tspan></tspan></tspan></text>
</svg>