<?xml version="1.0" encoding="UTF-8"?>
<!DOCTYPE svg PUBLIC "-//W3C//DTD SVG 1.1//EN" "http://www.w3.org/Graphics/SVG/1.1/DTD/svg11.dtd">
<svg width="160mm" height="90mm" viewBox="0 0 16000 9000" version="1.1" xmlns="http://www.w3.org/2000/svg" stroke-width="28.222" stroke-linejoin="round" xml:space="preserve">
 <path fill="rgb(255,255,255)" stroke="none" d="M 8000,8999 L 0,8999 0,0 15999,0 15999,8999 8000,8999 Z"/>
 <path fill="none" stroke="rgb(179,179,179)" stroke-linejoin="round" d="M 8775,7191 L 2243,7191 2243,1474 15307,1474 15307,7191 8775,7191 Z"/>
 <path fill="none" stroke="rgb(179,179,179)" stroke-linejoin="round" d="M 15307,7190 L 2243,7190"/>
 <path fill="none" stroke="rgb(179,179,179)" stroke-linejoin="round" d="M 15307,6237 L 2243,6237"/>
 <path fill="none" stroke="rgb(179,179,179)" stroke-linejoin="round" d="M 15307,5284 L 2243,5284"/>
 <path fill="none" stroke="rgb(179,179,179)" stroke-linejoin="round" d="M 15307,4332 L 2243,4332"/>
 <path fill="none" stroke="rgb(179,179,179)" stroke-linejoin="round" d="M 15307,3379 L 2243,3379"/>
 <path fill="none" stroke="rgb(179,179,179)" stroke-linejoin="round" d="M 15307,2426 L 2243,2426"/>
 <path fill="none" stroke="rgb(179,179,179)" stroke-linejoin="round" d="M 15307,1473 L 2243,1473"/>
 <path fill="none" stroke="rgb(179,179,179)" stroke-linejoin="round" d="M 2243,7340 L 2243,7190"/>
 <path fill="none" stroke="rgb(179,179,179)" stroke-linejoin="round" d="M 2243,7340 L 2243,7190"/>
 <path fill="none" stroke="rgb(179,179,179)" stroke-linejoin="round" d="M 4420,7340 L 4420,7190"/>
 <path fill="none" stroke="rgb(179,179,179)" stroke-linejoin="round" d="M 4420,7340 L 4420,7190"/>
 <path fill="none" stroke="rgb(179,179,179)" stroke-linejoin="round" d="M 6598,7340 L 6598,7190"/>
 <path fill="none" stroke="rgb(179,179,179)" stroke-linejoin="round" d="M 6598,7340 L 6598,7190"/>
 <path fill="none" stroke="rgb(179,179,179)" stroke-linejoin="round" d="M 8774,7340 L 8774,7190"/>
 <path fill="none" stroke="rgb(179,179,179)" stroke-linejoin="round" d="M 8774,7340 L 8774,7190"/>
 <path fill="none" stroke="rgb(179,179,179)" stroke-linejoin="round" d="M 10952,7340 L 10952,7190"/>
 <path fill="none" stroke="rgb(179,179,179)" stroke-linejoin="round" d="M 10952,7340 L 10952,7190"/>
 <path fill="none" stroke="rgb(179,179,179)" stroke-linejoin="round" d="M 13129,7340 L 13129,7190"/>
 <path fill="none" stroke="rgb(179,179,179)" stroke-linejoin="round" d="M 13129,7340 L 13129,7190"/>
 <path fill="none" stroke="rgb(179,179,179)" stroke-linejoin="round" d="M 15307,7340 L 15307,7190"/>
 <path fill="none" stroke="rgb(179,179,179)" stroke-linejoin="round" d="M 15307,7340 L 15307,7190"/>
 <path fill="none" stroke="rgb(179,179,179)" stroke-linejoin="round" d="M 2243,7190 L 15307,7190"/>
 <path fill="none" stroke="rgb(179,179,179)" stroke-linejoin="round" d="M 2093,7190 L 2243,7190"/>
 <path fill="none" stroke="rgb(179,179,179)" stroke-linejoin="round" d="M 2093,7190 L 2243,7190"/>
 <path fill="none" stroke="rgb(179,179,179)" stroke-linejoin="round" d="M 2093,6237 L 2243,6237"/>
 <path fill="none" stroke="rgb(179,179,179)" stroke-linejoin="round" d="M 2093,6237 L 2243,6237"/>
 <path fill="none" stroke="rgb(179,179,179)" stroke-linejoin="round" d="M 2093,5284 L 2243,5284"/>
 <path fill="none" stroke="rgb(179,179,179)" stroke-linejoin="round" d="M 2093,5284 L 2243,5284"/>
 <path fill="none" stroke="rgb(179,179,179)" stroke-linejoin="round" d="M 2093,4332 L 2243,4332"/>
 <path fill="none" stroke="rgb(179,179,179)" stroke-linejoin="round" d="M 2093,4332 L 2243,4332"/>
 <path fill="none" stroke="rgb(179,179,179)" stroke-linejoin="round" d="M 2093,3379 L 2243,3379"/>
 <path fill="none" stroke="rgb(179,179,179)" stroke-linejoin="round" d="M 2093,3379 L 2243,3379"/>
 <path fill="none" stroke="rgb(179,179,179)" stroke-linejoin="round" d="M 2093,2426 L 2243,2426"/>
 <path fill="none" stroke="rgb(179,179,179)" stroke-linejoin="round" d="M 2093,2426 L 2243,2426"/>
 <path fill="none" stroke="rgb(179,179,179)" stroke-linejoin="round" d="M 2093,1473 L 2243,1473"/>
 <path fill="none" stroke="rgb(179,179,179)" stroke-linejoin="round" d="M 2093,1473 L 2243,1473"/>
 <path fill="none" stroke="rgb(179,179,179)" stroke-linejoin="round" d="M 2243,7190 L 2243,1473"/>
 <path fill="none" stroke="rgb(0,69,134)" stroke-width="80" stroke-linejoin="round" d="M 2243,5860 L 2253,5579 2264,5907 2275,5860 2286,5299 2297,5720 2308,5766 2319,5252 2330,5813 2340,5766 2351,5673 2362,5439 2373,5907 2384,5486 2395,5813 2406,6094 2417,6281 2428,5860 2438,5626 2449,6234 2460,5626 2471,5392 2482,5579 2493,5579 2504,5673 2515,5486 2526,6094 2536,5579 2547,5392 2558,5486 2569,6094 2580,6094 2591,5299 2602,5907 2613,5907 2624,5205 2634,5813 2645,5579 2656,5299 2667,5813 2678,5392 2689,5907 2700,5205 2711,6047 2722,5486 2732,5299 2743,5392 2754,5299 2765,5533 2776,5720 2787,5205 2798,5065 2809,5626 2820,5579 2830,5205 2841,5626 2852,5205 2863,5299 2874,5252 2885,5205 2896,5299 2907,5158 2918,5065 2928,5205 2939,5158 2950,5205 2961,4925 2972,5720 2983,5299 2994,4831 3005,5720 3016,5018 3026,5439 3037,4878 3048,5346 3059,4925 3070,5158 3081,5158 3092,5065 3103,5158 3114,5158 3124,5065 3135,4458 3146,4644 3157,4971 3168,5018 3179,5065 3190,5065 3201,4878 3211,4597 3222,4738 3233,5065 3244,4504 3255,4738 3266,4550 3277,4878 3288,4458 3299,4971 3309,4644 3320,4597 3331,4644 3342,4784 3353,4458 3375,4784 3386,4084 3397,4318 3407,4271 3418,4271 3429,4271 3440,4691 3451,4177 3462,4691 3473,4364 3484,4084 3495,4411 3505,4644 3516,4971 3527,4878 3538,4784 3549,4177 3560,4130 3571,4224 3582,4504 3593,4271 3603,4224 3614,3897 3625,4411 3636,4318 3647,4691 3658,4318 3669,3897 3680,3943 3691,3897 3701,3756 3712,3803 3723,3803 3734,3943 3745,3710 3756,4037 3767,3522 3778,4411 3789,3803 3799,3803 3810,3897 3821,4037 3832,4224 3843,3335 3854,3710 3865,3756 3876,3943 3887,3429 3897,3850 3908,3710 3919,3242 3930,3943 3941,3335 3952,3663 3963,3897 3974,3522 3985,3148 3995,3803 4006,3429 4017,3055 4028,3569 4039,3803 4050,3382 4061,3663 4072,3803 4082,3943 4093,3148 4104,2961 4115,2961 4126,3102 4137,3476 4148,3148 4159,2961 4170,3148 4180,3242 4191,2961 4202,2681 4213,3663 4224,3055 4235,2868 4246,2821 4257,3242 4268,2961 4278,3195 4289,2774 4300,2868 4311,2821 4322,2961 4333,3476 4344,2681 4355,2961 4366,3102 4376,3289 4387,2914 4398,2681 4409,2914 4431,3195 4442,2821 4453,2587 4464,2821 4474,2681 4485,2774 4496,3289 4507,2681 4518,2914 4529,2914 4540,2914 4551,2727 4562,2400 4572,3102 4583,2634 4594,2447 4605,2774 4616,2494 4627,2634 4638,2494 4649,2540 4660,2727 4670,2587 4681,2914 4692,2681 4703,2400 4714,2821 4725,2587 4736,2540 4747,2540 4758,2914 4768,2447 4779,3008 4790,2821 4801,2914 4812,2681 4823,2306 4834,2727 4856,2447 4866,2213 4877,2213 4888,2400 4899,3008 4910,2914 4921,2540 4932,2213 4943,3055 4953,2587 4964,2400 4975,2587 4986,2727 4997,2681 5008,2868 5019,2914 5030,2914 5041,2774 5051,2213 5062,2587 5073,2447 5084,2213 5095,2821 5106,2213 5117,2400 5128,2681 5139,2213 5149,2213 5171,1886 5182,2494 5193,2400 5204,2213 5215,2868 5226,2306 5237,2681 5247,2213 5258,2353 5269,2868 5280,2306 5291,2213 5302,2914 5313,1839 5324,2494 5335,2447 5345,2727 5356,2774 5367,2681 5378,2260 5389,2213 5400,2914 5411,2681 5422,2727 5433,2914 5443,2540 5454,2914 5465,2821 5476,2447 5487,2447 5498,2213 5509,3102 5520,2774 5531,2914 5541,2914 5552,3102 5563,2727 5574,2494 5585,2213 5596,2868 5607,3289 5618,2681 5629,2587 5639,2447 5650,2400 5661,2213 5672,2868 5683,3476 5694,2914 5705,2821 5716,2587 5727,2914 5737,2634 5748,3008 5759,3102 5770,2634 5781,2681 5792,2540 5803,2587 5814,3102 5824,2821 5835,2914 5846,2634 5857,2774 5868,2914 5879,2400 5890,2821 5901,2727 5912,2587 5922,2727 5933,3102 5944,2914 5955,3195 5966,3195 5977,2914 5988,3055 5999,2821 6010,2868 6020,2821 6031,2774 6042,3195 6053,2774 6064,2914 6075,3242 6086,2540 6097,3102 6108,2961 6118,3382 6129,2774 6140,2961 6151,3663 6162,2681 6173,3382 6184,3429 6195,3663 6206,3289 6216,2961 6227,3102 6238,2914 6249,3242 6260,2961 6271,2774 6282,3663 6293,2681 6304,3429 6314,3008 6325,3335 6336,3148 6347,3850 6358,3055 6369,3195 6380,3335 6391,2774 6402,3522 6412,2961 6434,2587 6445,3242 6456,3195 6467,3242 6478,3055 6489,3335 6500,3803 6510,3148 6521,3663 6532,3850 6543,3476 6554,3429 6565,3616 6576,3522 6587,3850 6598,3055 6608,3663 6619,3335 6630,4037 6641,3242 6652,3522 6663,2961 6674,2821 6685,3663 6706,3663 6717,3055 6728,3148 6739,3289 6750,3055 6761,3148 6772,3242 6783,3850 6793,3148 6804,2961 6815,3710 6826,3429 6837,3335 6859,3335 6870,3663 6881,3663 6891,3335 6902,4037 6913,3569 6924,3242 6935,3008 6946,3897 6957,3522 6968,3710 6979,3663 6989,3522 7000,4224 7011,3429 7022,3195 7033,3850 7044,3710 7055,3710 7066,3335 7077,3335 7087,4037 7098,3710 7109,4037 7120,3990 7131,4224 7142,3990 7153,3943 7164,3569 7175,3897 7185,3710 7196,4224 7207,3710 7218,4037 7229,3943 7240,4224 7251,3335 7262,3569 7273,3335 7283,3990 7294,4037 7305,4037 7316,3289 7327,3382 7338,3990 7349,3663 7360,3663 7371,3803 7381,4411 7392,3710 7403,4364 7414,4037 7425,3616 7436,4224 7447,3710 7458,3710 7469,3990 7479,4130 7490,3990 7501,3756 7512,4364 7523,3522 7545,4037 7556,3756 7566,3943 7577,3710 7588,3803 7599,4411 7610,3710 7621,3663 7632,3663 7643,4364 7654,4364 7664,3710 7675,3803 7686,3522 7697,4037 7708,3710 7719,3569 7730,3990 7741,3710 7752,4177 7762,3429 7773,3710 7784,3710 7795,3990 7806,4318 7817,3710 7828,3710 7839,3850 7850,4037 7860,4177 7871,4037 7882,4084 7893,4224 7904,3710 7915,3710 7926,4271 7937,4130 7948,3710 7958,3850 7969,4318 7980,4411 7991,3710 8001,3897 8012,4318 8023,3710 8034,3429 8045,4318 8055,4224 8066,3569 8077,4224 8088,4318 8099,3710 8110,4364 8121,3522 8132,3710 8143,3710 8153,3569 8164,3710 8186,3990 8197,3850 8208,4411 8219,3897 8230,3756 8241,4224 8251,3663 8262,3803 8273,4411 8284,3803 8295,4224 8306,3710 8317,3710 8328,4037 8339,3195 8349,3335 8360,3522 8371,3803 8382,3710 8393,3522 8404,3710 8415,4037 8426,3242 8436,3710 8447,3943 8458,3710 8469,4411 8480,3522 8491,3710 8502,3990 8513,3897 8524,4037 8534,4084 8545,3148 8556,3990 8567,3522 8578,3897 8589,4037 8600,3943 8611,4037 8622,3148 8632,3663 8643,4037 8654,3616 8665,3897 8676,3429 8687,3335 8698,3850 8709,3710 8720,3710 8730,3569 8741,4177 8752,3195 8763,3710 8774,4224 8785,3335 8796,3335 8807,4130 8818,3382 8828,4037 8839,4037 8850,3663 8861,3710 8872,4037 8883,2961 8894,3382 8905,3522 8916,3429 8926,2868 8937,3663 8948,3897 8959,4037 8970,3710 8981,3335 8992,4037 9003,3569 9014,3990 9024,4037 9035,4130 9046,2961 9057,3148 9068,3850 9079,4037 9090,3710 9101,3335 9112,3008 9122,4037 9133,3522 9144,3803 9155,3195 9166,3663 9177,3850 9188,3803 9199,3522 9210,4224 9220,2961 9231,3429 9242,3335 9253,3335 9264,3663 9275,3195 9286,3148 9297,3943 9307,3382 9318,3710 9329,3289 9340,3522 9351,3943 9362,2961 9373,4037 9384,3943 9395,4037 9405,3429 9416,3429 9427,3522 9438,3476 9449,3148 9460,3289 9471,3663 9482,3429 9493,3663 9503,4224 9514,3429 9525,3148 9536,3335 9547,3195 9558,3663 9569,3476 9580,3195 9591,3335 9601,3663 9612,3429 9623,3850 9634,3335 9645,3850 9656,3242 9667,3663 9678,3289 9689,3616 9699,3102 9710,3008 9721,3522 9732,3616 9743,3710 9754,3616 9765,3148 9776,3289 9787,3569 9797,3429 9808,3055 9819,3429 9830,3335 9841,3476 9852,3335 9863,3663 9874,3850 9885,3616 9895,2961 9906,3148 9917,3335 9928,3148 9939,3335 9950,3476 9961,3663 9972,3195 9983,3803 9993,3055 10004,3429 10015,3429 10026,3148 10037,3148 10048,3663 10059,3990 10070,2961 10081,3569 10091,2961 10102,3242 10113,3289 10124,2961 10135,3008 10146,3335 10157,3242 10168,3663 10178,3335 10189,3663 10200,3055 10211,3335 10222,3148 10233,3195 10244,3569 10255,2961 10266,3429 10276,3616 10287,2774 10298,3569 10309,3429 10320,3335 10331,3616 10342,3055 10353,3055 10364,4037 10374,3195 10385,3663 10396,3148 10407,2961 10418,3335 10429,3055 10440,3008 10451,3242 10462,3055 10472,3756 10483,3663 10494,3335 10505,3522 10516,3569 10527,3476 10538,3663 10549,3850 10560,3148 10570,3148 10581,2961 10592,3148 10603,3616 10614,3335 10625,3102 10636,3335 10647,3102 10658,3569 10668,3850 10679,3008 10690,3335 10701,3242 10712,2634 10723,3102 10734,2961 10745,3008 10756,2961 10766,3663 10777,3616 10788,3663 10799,3335 10810,3476 10821,3055 10832,3148 10843,3055 10854,3569 10864,3242 10875,2961 10886,3663 10897,3335 10908,2961 10919,3476 10930,3429 10941,3476 10952,3335 10962,3663 10973,3242 10984,3242 10995,3663 11006,2961 11017,3335 11028,2774 11039,2961 11049,3663 11060,2868 11071,3663 11082,3055 11093,3055 11104,3522 11115,3195 11126,3335 11137,3616 11147,3663 11158,3429 11169,3850 11180,3710 11191,3663 11202,3195 11213,3289 11224,3195 11235,3429 11245,3055 11256,3148 11267,3195 11278,3102 11289,3663 11300,3850 11311,3148 11322,3663 11333,3335 11343,3663 11354,3569 11365,3569 11376,3663 11387,3663 11409,3055 11420,3429 11431,3055 11441,3569 11452,3335 11463,3055 11474,3710 11485,3008 11496,3335 11507,3850 11518,3148 11529,3522 11539,3102 11550,3476 11561,3616 11572,2961 11583,3195 11594,3335 11605,4037 11616,3756 11627,3897 11637,3663 11648,3382 11659,3335 11670,3242 11681,3242 11692,2961 11703,3569 11714,3476 11725,3335 11735,3335 11746,3242 11757,2961 11768,3335 11779,3943 11790,3335 11801,3522 11812,3148 11823,3803 11833,3803 11844,3850 11855,3850 11866,3663 11877,3335 11888,3148 11899,3756 11910,3476 11920,3335 11931,3569 11942,3803 11953,3055 11964,3803 11975,3242 11986,3335 11997,4037 12008,3663 12018,3195 12029,3850 12040,3850 12051,3569 12062,3429 12073,3522 12084,3382 12095,3335 12106,3335 12116,3943 12127,2961 12138,3335 12149,3663 12160,3429 12171,3663 12182,3850 12193,3522 12204,3148 12214,3663 12225,3289 12236,3663 12247,3429 12258,3569 12269,3429 12280,3756 12291,3663 12302,3522 12312,3663 12323,3242 12334,3710 12345,3850 12356,3663 12367,3429 12378,3850 12389,3850 12400,3943 12410,3429 12421,3710 12432,3522 12443,3569 12454,3335 12465,3335 12476,3429 12487,3710 12498,3663 12508,2961 12519,3476 12530,3850 12541,3756 12552,3335 12574,3663 12585,3569 12596,4037 12606,3663 12617,3569 12628,3663 12639,4130 12650,3943 12661,2961 12672,3850 12683,3429 12694,3943 12704,3943 12715,3616 12726,3522 12737,3335 12748,3382 12759,3663 12770,3756 12781,4037 12791,3289 12802,3148 12813,3382 12824,3522 12835,3710 12846,3663 12857,3335 12868,3522 12879,3663 12889,3335 12900,3242 12911,3663 12922,3242 12933,3850 12944,3616 12955,3850 12966,3710 12977,3335 12987,3382 12998,3335 13009,3289 13020,3335 13031,4037 13042,3289 13053,3008 13064,3429 13075,3242 13085,3335 13096,4037 13107,3335 13118,3569 13129,3522 13151,3850 13162,3850 13173,3522 13183,3663 13194,3335 13205,3335 13216,3335 13227,3335 13238,3335 13249,4037 13260,3429 13271,4037 13281,3803 13292,3382 13303,3429 13314,3476 13325,3335 13336,3335 13347,3850 13358,4224 13369,3476 13379,2961 13390,4037 13401,3335 13412,3943 13423,3148 13434,3008 13445,3335 13456,3710 13467,3663 13477,3335 13488,3897 13499,3429 13510,3242 13521,3710 13532,3335 13543,3242 13554,4177 13565,3990 13575,3710 13586,3710 13597,3522 13608,3850 13619,3943 13630,3429 13641,3335 13652,3522 13662,3429 13673,3055 13684,3990 13695,3663 13706,3710 13717,3195 13728,4037 13739,3616 13750,3663 13760,3242 13771,3148 13782,3382 13793,3663 13804,3756 13815,3710 13826,4177 13837,3756 13848,3429 13858,3335 13869,3710 13880,3335 13891,3429 13902,4177 13913,3522 13924,3476 13935,3148 13946,3429 13956,3663 13967,3242 13978,3710 13989,3943 14000,3850 14011,3148 14022,3522 14033,3382 14044,3429 14054,3429 14065,3335 14076,2961 14087,3382 14098,4037 14109,3242 14120,3756 14131,3522 14142,3569 14152,3616 14163,3850 14174,3148 14185,3850 14196,3663 14207,3289 14218,4177 14229,3382 14240,3803 14250,3850 14261,3429 14272,3429 14283,3663 14294,3569 14305,3382 14316,3335 14327,3055 14338,3195 14348,3335 14359,3803 14370,3569 14381,3429 14392,3242 14403,3850 14414,3148 14425,3335 14436,3990 14446,3850 14457,3008 14468,3195 14479,3195 14490,3335 14501,3055 14512,3569 14523,3429 14533,3569 14544,3429 14555,3055 14566,3476 14577,3569 14588,3195 14599,3335 14610,3569 14621,3148 14631,3148 14642,3335 14653,3663 14664,3522 14675,3195 14686,3710 14697,3242 14708,3242 14719,3663"/>
 <text class="TextShape"><tspan class="TextParagraph" font-family="Liberation Sans, sans-serif" font-size="353px" font-weight="400"><tspan class="TextPosition" x="2150" y="7758"><tspan fill="rgb(0,0,0)" stroke="none">0</tspan></tspan></tspan></text>
 <text class="TextShape"><tspan class="TextParagraph" font-family="Liberation Sans, sans-serif" font-size="353px" font-weight="400"><tspan class="TextPosition" x="4142" y="7758"><tspan fill="rgb(0,0,0)" stroke="none">200</tspan></tspan></tspan></text>
 <text class="TextShape"><tspan class="TextParagraph" font-family="Liberation Sans, sans-serif" font-size="353px" font-weight="400"><tspan class="TextPosition" x="6320" y="7758"><tspan fill="rgb(0,0,0)" stroke="none">400</tspan></tspan></tspan></text>
 <text class="TextShape"><tspan class="TextParagraph" font-family="Liberation Sans, sans-serif" font-size="353px" font-weight="400"><tspan class="TextPosition" x="8497" y="7758"><tspan fill="rgb(0,0,0)" stroke="none">600</tspan></tspan></tspan></text>
 <text class="TextShape"><tspan class="TextParagraph" font-family="Liberation Sans, sans-serif" font-size="353px" font-weight="400"><tspan class="TextPosition" x="10675" y="7758"><tspan fill="rgb(0,0,0)" stroke="none">800</tspan></tspan></tspan></text>
 <text class="TextShape"><tspan class="TextParagraph" font-family="Liberation Sans, sans-serif" font-size="353px" font-weight="400"><tspan class="TextPosition" x="12759" y="7758"><tspan fill="rgb(0,0,0)" stroke="none">1000</tspan></tspan></tspan></text>
 <text class="TextShape"><tspan class="TextParagraph" font-family="Liberation Sans, sans-serif" font-size="353px" font-weight="400"><tspan class="TextPosition" x="14937" y="7758"><tspan fill="rgb(0,0,0)" stroke="none">1200</tspan></tspan></tspan></text>
 <text class="TextShape"><tspan class="TextParagraph" font-family="Liberation Sans, sans-serif" font-size="353px" font-weight="400"><tspan class="TextPosition" x="1332" y="7311"><tspan fill="rgb(0,0,0)" stroke="none">26.5</tspan></tspan></tspan></text>
 <text class="TextShape"><tspan class="TextParagraph" font-family="Liberation Sans, sans-serif" font-size="353px" font-weight="400"><tspan class="TextPosition" x="1623" y="6358"><tspan fill="rgb(0,0,0)" stroke="none">27</tspan></tspan></tspan></text>
 <text class="TextShape"><tspan class="TextParagraph" font-family="Liberation Sans, sans-serif" font-size="353px" font-weight="400"><tspan class="TextPosition" x="1332" y="5405"><tspan fill="rgb(0,0,0)" stroke="none">27.5</tspan></tspan></tspan></text>
 <text class="TextShape"><tspan class="TextParagraph" font-family="Liberation Sans, sans-serif" font-size="353px" font-weight="400"><tspan class="TextPosition" x="1623" y="4452"><tspan fill="rgb(0,0,0)" stroke="none">28</tspan></tspan></tspan></text>
 <text class="TextShape"><tspan class="TextParagraph" font-family="Liberation Sans, sans-serif" font-size="353px" font-weight="400"><tspan class="TextPosition" x="1332" y="3499"><tspan fill="rgb(0,0,0)" stroke="none">28.5</tspan></tspan></tspan></text>
 <text class="TextShape"><tspan class="TextParagraph" font-family="Liberation Sans, sans-serif" font-size="353px" font-weight="400"><tspan class="TextPosition" x="1623" y="2546"><tspan fill="rgb(0,0,0)" stroke="none">29</tspan></tspan></tspan></text>
 <text class="TextShape"><tspan class="TextParagraph" font-family="Liberation Sans, sans-serif" font-size="353px" font-weight="400"><tspan class="TextPosition" x="1332" y="1593"><tspan fill="rgb(0,0,0)" stroke="none">29.5</tspan></tspan></tspan></text>
 <text class="TextShape"><tspan class="TextParagraph" font-family="Liberation Sans, sans-serif" font-size="459px" font-weight="400"><tspan class="TextPosition" x="4110" y="851"><tspan fill="rgb(0,0,0)" stroke="none">Kp = 500, Ki = 0, Kd = 0, Set point = 29</tspan></tspan></tspan></text>
 <text class="TextShape"><tspan class="TextParagraph" font-family="Liberation Sans, sans-serif" font-size="318px" font-weight="400"><tspan class="TextPosition" x="7936" y="8405"><tspan fill="rgb(0,0,0)" stroke="none">Time (s)</tspan></tspan></tspan></text>
 <text class="TextShape" transform="translate(837,6144) rotate(-90) translate(-837,-6144)"><tspan class="TextParagraph" font-family="Liberation Sans, sans-serif" font-size="318px" font-weight="400"><tspan class="TextPosition" x="837" y="6144"><tspan fill="rgb(0,0,0)" stroke="none">Temperature (Celsius)</tspan></tspan></tspan></text>
</svg>