<?xml version="1.0" encoding="UTF-8"?>
<!DOCTYPE svg PUBLIC "-//W3C//DTD SVG 1.1//EN" "http://www.w3.org/Graphics/SVG/1.1/DTD/svg11.dtd">
<svg width="160mm" height="90mm" viewBox="0 0 16000 9000" version="1.1" xmlns="http://www.w3.org/2000/svg" stroke-width="28.222" stroke-linejoin="round" xml:space="preserve">
 <path fill="rgb(255,255,255)" stroke="none" d="M 8000,8999 L 0,8999 0,0 15999,0 15999,8999 8000,8999 Z"/>
 <path fill="none" stroke="rgb(179,179,179)" stroke-linejoin="round" d="M 8629,7191 L 1952,7191 1952,1474 15307,1474 15307,7191 8629,7191 Z"/>
 <path fill="none" stroke="rgb(179,179,179)" stroke-linejoin="round" d="M 15307,7190 L 1952,7190"/>
 <path fill="none" stroke="rgb(179,179,179)" stroke-linejoin="round" d="M 15307,6237 L 1952,6237"/>
 <path fill="none" stroke="rgb(179,179,179)" stroke-linejoin="round" d="M 15307,5284 L 1952,5284"/>
 <path fill="none" stroke="rgb(179,179,179)" stroke-linejoin="round" d="M 15307,4332 L 1952,4332"/>
 <path fill="none" stroke="rgb(179,179,179)" stroke-linejoin="round" d="M 15307,3379 L 1952,3379"/>
 <path fill="none" stroke="rgb(179,179,179)" stroke-linejoin="round" d="M 15307,2426 L 1952,2426"/>
 <path fill="none" stroke="rgb(179,179,179)" stroke-linejoin="round" d="M 15307,1473 L 1952,1473"/>
 <path fill="none" stroke="rgb(179,179,179)" stroke-linejoin="round" d="M 1952,7340 L 1952,7190"/>
 <path fill="none" stroke="rgb(179,179,179)" stroke-linejoin="round" d="M 1952,7340 L 1952,7190"/>
 <path fill="none" stroke="rgb(179,179,179)" stroke-linejoin="round" d="M 3621,7340 L 3621,7190"/>
 <path fill="none" stroke="rgb(179,179,179)" stroke-linejoin="round" d="M 3621,7340 L 3621,7190"/>
 <path fill="none" stroke="rgb(179,179,179)" stroke-linejoin="round" d="M 5291,7340 L 5291,7190"/>
 <path fill="none" stroke="rgb(179,179,179)" stroke-linejoin="round" d="M 5291,7340 L 5291,7190"/>
 <path fill="none" stroke="rgb(179,179,179)" stroke-linejoin="round" d="M 6960,7340 L 6960,7190"/>
 <path fill="none" stroke="rgb(179,179,179)" stroke-linejoin="round" d="M 6960,7340 L 6960,7190"/>
 <path fill="none" stroke="rgb(179,179,179)" stroke-linejoin="round" d="M 8629,7340 L 8629,7190"/>
 <path fill="none" stroke="rgb(179,179,179)" stroke-linejoin="round" d="M 8629,7340 L 8629,7190"/>
 <path fill="none" stroke="rgb(179,179,179)" stroke-linejoin="round" d="M 10298,7340 L 10298,7190"/>
 <path fill="none" stroke="rgb(179,179,179)" stroke-linejoin="round" d="M 10298,7340 L 10298,7190"/>
 <path fill="none" stroke="rgb(179,179,179)" stroke-linejoin="round" d="M 11968,7340 L 11968,7190"/>
 <path fill="none" stroke="rgb(179,179,179)" stroke-linejoin="round" d="M 11968,7340 L 11968,7190"/>
 <path fill="none" stroke="rgb(179,179,179)" stroke-linejoin="round" d="M 13637,7340 L 13637,7190"/>
 <path fill="none" stroke="rgb(179,179,179)" stroke-linejoin="round" d="M 13637,7340 L 13637,7190"/>
 <path fill="none" stroke="rgb(179,179,179)" stroke-linejoin="round" d="M 15307,7340 L 15307,7190"/>
 <path fill="none" stroke="rgb(179,179,179)" stroke-linejoin="round" d="M 15307,7340 L 15307,7190"/>
 <path fill="none" stroke="rgb(179,179,179)" stroke-linejoin="round" d="M 1952,7190 L 15307,7190"/>
 <path fill="none" stroke="rgb(179,179,179)" stroke-linejoin="round" d="M 1802,7190 L 1952,7190"/>
 <path fill="none" stroke="rgb(179,179,179)" stroke-linejoin="round" d="M 1802,7190 L 1952,7190"/>
 <path fill="none" stroke="rgb(179,179,179)" stroke-linejoin="round" d="M 1802,6237 L 1952,6237"/>
 <path fill="none" stroke="rgb(179,179,179)" stroke-linejoin="round" d="M 1802,6237 L 1952,6237"/>
 <path fill="none" stroke="rgb(179,179,179)" stroke-linejoin="round" d="M 1802,5284 L 1952,5284"/>
 <path fill="none" stroke="rgb(179,179,179)" stroke-linejoin="round" d="M 1802,5284 L 1952,5284"/>
 <path fill="none" stroke="rgb(179,179,179)" stroke-linejoin="round" d="M 1802,4332 L 1952,4332"/>
 <path fill="none" stroke="rgb(179,179,179)" stroke-linejoin="round" d="M 1802,4332 L 1952,4332"/>
 <path fill="none" stroke="rgb(179,179,179)" stroke-linejoin="round" d="M 1802,3379 L 1952,3379"/>
 <path fill="none" stroke="rgb(179,179,179)" stroke-linejoin="round" d="M 1802,3379 L 1952,3379"/>
 <path fill="none" stroke="rgb(179,179,179)" stroke-linejoin="round" d="M 1802,2426 L 1952,2426"/>
 <path fill="none" stroke="rgb(179,179,179)" stroke-linejoin="round" d="M 1802,2426 L 1952,2426"/>
 <path fill="none" stroke="rgb(179,179,179)" stroke-linejoin="round" d="M 1802,1473 L 1952,1473"/>
 <path fill="none" stroke="rgb(179,179,179)" stroke-linejoin="round" d="M 1802,1473 L 1952,1473"/>
 <path fill="none" stroke="rgb(179,179,179)" stroke-linejoin="round" d="M 1952,7190 L 1952,1473"/>
 <path fill="none" stroke="rgb(0,69,134)" stroke-width="80" stroke-linejoin="round" d="M 1952,6329 L 1960,6142 1968,6072 1977,6352 1985,6259 1993,6142 2002,6025 2010,6072 2018,6095 2027,6001 2035,5908 2043,6329 2052,6048 2060,6165 2068,6305 2077,5908 2085,6001 2093,6352 2102,6048 2110,6212 2118,5955 2127,6165 2135,6072 2143,5908 2152,6001 2160,6001 2169,5814 2177,6072 2185,6212 2194,6072 2202,6072 2210,6235 2219,6118 2227,5955 2235,6072 2244,6001 2252,6165 2260,5814 2269,6072 2277,5814 2285,6048 2294,5861 2302,5908 2310,6142 2319,5838 2327,6001 2335,6025 2344,5885 2352,5838 2361,5861 2369,5814 2377,5885 2386,5955 2394,5721 2402,5744 2411,5861 2419,5768 2427,5838 2436,5768 2444,5838 2452,5721 2461,5955 2469,5814 2477,5721 2486,5931 2494,6025 2502,6072 2511,5721 2519,5768 2527,6048 2536,5557 2544,6072 2553,5651 2561,5464 2569,5651 2578,5838 2586,5791 2594,5721 2603,5674 2611,5697 2628,5838 2636,5534 2644,5557 2653,5885 2661,5347 2669,5534 2678,5697 2686,5861 2694,5557 2703,5534 2711,5885 2719,5440 2728,5347 2736,5393 2745,5604 2753,5534 2761,5253 2770,5347 2778,5370 2786,5277 2795,5393 2803,5557 2811,5534 2820,5253 2828,5604 2836,5581 2845,5604 2853,5277 2861,5510 2870,5300 2878,5464 2886,5253 2895,5417 2903,5393 2911,5089 2920,5417 2928,5160 2937,5230 2945,5323 2953,5510 2962,5066 2970,5300 2978,5253 2987,5206 2995,5417 3012,5019 3020,5206 3028,4996 3037,5206 3045,5136 3053,4973 3062,4809 3070,5136 3078,5136 3087,4902 3095,5136 3103,4715 3112,4879 3120,4949 3128,5089 3137,4973 3145,4973 3154,4715 3162,4949 3170,4832 3179,4692 3187,4856 3195,4949 3204,4762 3212,4856 3220,4692 3229,4902 3237,4622 3245,4598 3262,4645 3270,4598 3279,4319 3287,4436 3295,4645 3304,4669 3312,4412 3320,4669 3329,4715 3337,4669 3354,4272 3371,4669 3379,4412 3387,4459 3396,4412 3404,4319 3412,4389 3421,4225 3429,4436 3437,4225 3454,4038 3462,4436 3471,4389 3479,4272 3487,4225 3496,4132 3504,4202 3521,3874 3529,4155 3538,4038 3546,4178 3554,3991 3563,4202 3571,4202 3579,3921 3588,3781 3596,3898 3604,4202 3613,3781 3621,4108 3629,3758 3638,3921 3646,3711 3654,3781 3663,3921 3671,3594 3679,3664 3688,3781 3696,3664 3704,3617 3713,3828 3721,3570 3730,3734 3738,3664 3746,3477 3755,3641 3763,3500 3771,3477 3780,3500 3788,3547 3796,3453 3805,3500 3813,3383 3821,3547 3830,3687 3838,3337 3846,3290 3855,3453 3863,3407 3871,3126 3880,3453 3888,3313 3896,3196 3905,3126 3913,3103 3922,3173 3930,3430 3938,3453 3947,3149 3955,3360 3963,3149 3972,3243 3980,3173 3988,3266 3997,2729 4005,3220 4013,2916 4022,3103 4030,3173 4038,2939 4047,2986 4055,2799 4063,2775 4072,3149 4080,2729 4088,2962 4097,3056 4105,2845 4122,3033 4130,2892 4139,2729 4147,2986 4155,3079 4164,2916 4172,2799 4180,2775 4189,2635 4197,2775 4205,2729 4214,2845 4222,2612 4230,2658 4239,2635 4247,2729 4255,2845 4264,2541 4272,2775 4280,2378 4289,2682 4297,2541 4305,2354 4314,2799 4322,2892 4331,2705 4339,2845 4347,2588 4356,2565 4364,2354 4372,2705 4381,2705 4397,2495 4406,2588 4414,2448 4422,2261 4431,2705 4439,2705 4447,2635 4456,2354 4464,2495 4472,2565 4481,2214 4489,2261 4497,2214 4506,2612 4523,2308 4531,2167 4539,2261 4548,2004 4556,2331 4564,2518 4573,2261 4581,2354 4589,2308 4598,2167 4606,2167 4614,2284 4623,2518 4631,2518 4639,2378 4648,2471 4656,2495 4664,2331 4673,2425 4681,2214 4689,2261 4698,2214 4706,2284 4715,2378 4723,2261 4731,2237 4740,2167 4748,2425 4756,2331 4765,2331 4773,2097 4781,2144 4790,2425 4798,2167 4806,2191 4815,2518 4823,2214 4831,2214 4840,2074 4848,2214 4856,2097 4865,2074 4873,2191 4881,2331 4890,2074 4898,2237 4907,2167 4915,2518 4923,2074 4932,2425 4940,2518 4948,2214 4957,2284 4965,2074 4973,2167 4982,2518 4990,2074 4998,2425 5007,2237 5015,2471 5023,2214 5032,2331 5040,2612 5048,2401 5057,2518 5065,2308 5073,2167 5082,2518 5090,2167 5099,2167 5107,2237 5124,2612 5132,2471 5140,2471 5149,2261 5165,2167 5174,2261 5182,2284 5190,2518 5199,2261 5207,2518 5215,2425 5224,2658 5232,2167 5240,2471 5249,2354 5257,2354 5265,2495 5274,2658 5282,2074 5291,2471 5299,2705 5307,2518 5316,2378 5324,2588 5332,2612 5341,2705 5349,2284 5357,2705 5374,2588 5382,2425 5391,2705 5399,2705 5407,2565 5416,2308 5424,2401 5432,2354 5441,2705 5449,2354 5457,2541 5466,2565 5474,2588 5482,2471 5491,2705 5499,2495 5508,2401 5516,2845 5524,2612 5533,2799 5541,2541 5549,2635 5558,2518 5566,2682 5574,2705 5583,2612 5591,2892 5599,2658 5608,2845 5616,3033 5624,2869 5633,2565 5641,2845 5649,2799 5658,2939 5666,2986 5674,2775 5683,2705 5691,2612 5700,2541 5708,2729 5716,2705 5725,2635 5733,2729 5741,2752 5750,2729 5758,3079 5766,2892 5775,3079 5783,2565 5791,2986 5800,3079 5808,2729 5816,2822 5825,2916 5833,2799 5841,2775 5850,3079 5858,3009 5866,2752 5875,2822 5883,2939 5892,3173 5900,2845 5908,3266 5917,3149 5925,3033 5933,3103 5942,2916 5950,3126 5958,3173 5967,3243 5975,3266 5983,2962 5992,3243 6000,2729 6008,3033 6017,2986 6025,3196 6033,3103 6042,2752 6050,3430 6058,3360 6067,3196 6075,3126 6084,3266 6092,3407 6100,3337 6109,3220 6117,3196 6125,3594 6134,2869 6142,3103 6150,3103 6159,3453 6167,3594 6175,3407 6184,3196 6192,3453 6200,3103 6209,3149 6217,3290 6225,3547 6234,3453 6242,3196 6250,3290 6259,3290 6267,3126 6276,3641 6284,3337 6292,3594 6301,3477 6309,3547 6317,3734 6326,3477 6334,3617 6342,3477 6351,3337 6359,3477 6367,3547 6376,3290 6384,3734 6392,3781 6401,3594 6409,3781 6417,3734 6426,3500 6434,3641 6442,3500 6451,3828 6459,3570 6467,3570 6484,3711 6493,3758 6501,3991 6509,3477 6518,3781 6526,3594 6534,3664 6543,3570 6551,3687 6559,3828 6568,3968 6576,4015 6593,3991 6601,3711 6609,3874 6618,3758 6626,3874 6634,3734 6643,3804 6651,4015 6659,3851 6668,3898 6676,4202 6685,3921 6693,4155 6701,3804 6710,3898 6718,3968 6726,3851 6735,4038 6743,4108 6751,4178 6760,4038 6768,4202 6776,4062 6785,3921 6793,4038 6801,4178 6810,3945 6818,4132 6826,4155 6835,3968 6843,3945 6851,4108 6860,4155 6868,4295 6877,4062 6885,4155 6893,4225 6902,4389 6910,4202 6918,4225 6927,4155 6935,4038 6943,3945 6952,4482 6960,4366 6968,4225 6977,4225 6985,4272 6993,4249 7002,4225 7010,4459 7018,4225 7027,4225 7035,4528 7043,4272 7052,4389 7060,4225 7069,4645 7077,4436 7085,4225 7094,4459 7102,4319 7110,4412 7119,4459 7127,4459 7135,4389 7144,4622 7152,4249 7160,4459 7169,4436 7177,4552 7185,4762 7194,4505 7202,4575 7210,4598 7219,4762 7227,4412 7235,4575 7244,4366 7252,4598 7261,4762 7269,4669 7277,4412 7286,4949 7294,4715 7302,4598 7311,4692 7319,4856 7327,4505 7336,4949 7344,4598 7361,4856 7369,4856 7377,4622 7386,4692 7394,4598 7402,4598 7411,4949 7419,4715 7427,4949 7436,4715 7444,4692 7453,4505 7461,4926 7469,4949 7478,4692 7486,4739 7494,4902 7503,4949 7511,5113 7519,4785 7528,4879 7536,4715 7544,4973 7553,4785 7561,4832 7569,4879 7578,4902 7586,4785 7594,5136 7603,4809 7619,4879 7628,4973 7636,5113 7644,5230 7653,4879 7661,5019 7670,5277 7678,5230 7686,5043 7695,5089 7703,5066 7711,4973 7720,5300 7728,5253 7736,5019 7745,4973 7753,5066 7761,4879 7770,5183 7778,5323 7786,5066 7795,5183 7803,5277 7811,5183 7820,5277 7828,5066 7836,5277 7845,5089 7853,5019 7862,5277 7870,5277 7878,5089 7887,5160 7895,5534 7903,5206 7912,5347 7920,5347 7928,5183 7937,5160 7945,5206 7962,5160 7970,5604 7978,5183 7987,5417 7995,5277 8002,5160 8011,5253 8019,5253 8027,5440 8036,5347 8044,5697 8053,5510 8061,5347 8069,5627 8078,5604 8086,5393 8094,5464 8103,5791 8111,5697 8128,5510 8136,5534 8144,5581 8153,5768 8161,5557 8169,5370 8178,5534 8186,5697 8194,5697 8203,5534 8211,5697 8219,5674 8228,5791 8236,5534 8245,5674 8253,5651 8261,5440 8270,5487 8278,5581 8286,5534 8295,5510 8303,5440 8311,5721 8320,5697 8328,5768 8336,5721 8345,5440 8353,5721 8361,5627 8370,5557 8378,5838 8386,5791 8395,5814 8403,5885 8411,5791 8428,5978 8437,5908 8445,5931 8453,5861 8462,5721 8470,6025 8478,5721 8487,5838 8495,5627 8503,5721 8512,5721 8520,5885 8528,5721 8537,5838 8545,6072 8553,5885 8562,5721 8578,5721 8587,5627 8595,5885 8603,6025 8612,5744 8620,5931 8629,6001 8637,5978 8645,5721 8654,6048 8662,6165 8670,6072 8679,5955 8687,5978 8695,6072 8704,5908 8712,5978 8720,6165 8729,5931 8737,5861 8745,5978 8754,6095 8762,6212 8770,6118 8779,6025 8787,5908 8795,6165 8804,6118 8812,5721 8820,5814 8829,6352 8837,5955 8846,5931 8854,6399 8862,6001 8871,6235 8879,6025 8887,6212 8896,5931 8904,5955 8912,6142 8921,6118 8929,6259 8937,6165 8946,6329 8954,6072 8962,6142 8971,6095 8979,6095 8987,6142 8996,6118 9004,6118 9012,6259 9029,6095 9038,6305 9046,6352 9054,6212 9063,6352 9071,6235 9079,6259 9088,6446 9096,6095 9113,6422 9121,6259 9129,6446 9138,6446 9146,6352 9154,6399 9163,6142 9171,6259 9179,6422 9188,6352 9196,6282 9204,6212 9213,6282 9221,6446 9230,6376 9238,6399 9246,6165 9255,6142 9263,6399 9271,6352 9280,6376 9288,6399 9296,6142 9305,6493 9313,6165 9321,6399 9330,6305 9338,6142 9346,6235 9355,6212 9363,6305 9371,6446 9380,6282 9388,6142 9396,5978 9405,6189 9413,6329 9422,6001 9430,6352 9438,6189 9455,6399 9463,6212 9472,6095 9480,6189 9488,6282 9497,6142 9505,6165 9513,6095 9522,6165 9530,6095 9538,6259 9547,6118 9555,6142 9563,6259 9572,5885 9580,6001 9588,6165 9597,6142 9605,6446 9614,6212 9622,6001 9630,6282 9639,6142 9647,6212 9655,6001 9664,6235 9672,6095 9680,5978 9689,6165 9697,6025 9705,6165 9714,6025 9722,6259 9730,6142 9739,6001 9747,5838 9755,6095 9764,6142 9772,6259 9780,6165 9789,5861 9797,5838 9805,5721 9814,5838 9822,6165 9831,6048 9839,6025 9847,5931 9856,5768 9864,5814 9872,5861 9881,5955 9889,5885 9897,6072 9906,5721 9914,5908 9922,5534 9931,5814 9939,5885 9947,5721 9956,5791 9964,5557 9972,5931 9981,5651 9989,5791 9997,5604 10006,5393 10014,5674 10023,5627 10031,5697 10039,5534 10048,5510 10056,5697 10064,5534 10073,5674 10081,5393 10089,5440 10098,5768 10106,5417 10114,5674 10123,5347 10131,5347 10139,5581 10148,5253 10156,5557 10164,5581 10173,5347 10181,5510 10189,5183 10198,5393 10206,5277 10215,5370 10223,5464 10240,5464 10248,5323 10256,5253 10265,5230 10281,5113 10290,5113 10298,5160 10306,5277 10315,4973 10323,5206 10331,5323 10340,4996 10348,4809 10356,5019 10365,4973 10373,4973 10381,5089 10390,4879 10398,5136 10407,4879 10415,4785 10423,4926 10432,4973 10440,4996 10448,4949 10457,4832 10465,4996 10473,5019 10482,4902 10490,4949 10498,4856 10507,4598 10515,4856 10523,4739 10540,4528 10548,4785 10557,4505 10565,4622 10573,4319 10582,4762 10590,4598 10599,4552 10607,4482 10615,4575 10624,4366 10632,4412 10640,4622 10649,4319 10657,4412 10665,4319 10674,4459 10682,4225 10690,4272 10699,4225 10707,4225 10715,4528 10724,4459 10732,4225 10740,4225 10757,4202 10765,4225 10774,4085 10782,4202 10791,3968 10799,3921 10807,4202 10816,4038 10824,4108 10832,4155 10841,3968 10849,4178 10857,3945 10866,3898 10874,3758 10882,4015 10891,4202 10899,3758 10907,4202 10916,3851 10924,4085 10932,3851 10941,3921 10949,3804 10957,3991 10966,3898 10974,3570 10991,3711 10999,3477 11008,3711 11016,3711 11024,3594 11033,3570 11041,3477 11049,3570 11058,3781 11066,3477 11074,3430 11083,3220 11091,3570 11099,3617 11108,3547 11116,3547 11124,3337 11133,3407 11141,3641 11149,3290 11158,3383 11166,3453 11174,3103 11183,3126 11191,3407 11200,3360 11208,3103 11216,3266 11225,3149 11233,3337 11241,3056 11250,3266 11258,3056 11266,3266 11275,3079 11283,3009 11291,3009 11300,3266 11308,2962 11316,3266 11325,3220 11333,3079 11350,2729 11358,2729 11366,3313 11375,2869 11383,2729 11392,2729 11400,3079 11408,2869 11417,2822 11433,2916 11442,2752 11450,2541 11458,2892 11467,2635 11475,2892 11483,2752 11492,2729 11500,2799 11508,2705 11517,2541 11525,2682 11533,2448 11542,2705 11550,2448 11558,2495 11567,2401 11584,2448 11592,2705 11600,2448 11609,2892 11617,2167 11625,2378 11634,2705 11642,2682 11650,2541 11659,2401 11667,2144 11675,2705 11684,2354 11692,2401 11700,2705 11709,2682 11717,2518 11725,2354 11734,2167 11742,2541 11750,2354 11759,2425 11767,2331 11776,2354 11784,2261 11792,2471 11801,2261 11809,2518 11817,2471 11826,2261 11834,2284 11842,2167 11851,2401 11859,2354 11867,2261 11876,2167 11884,2191 11892,2354 11901,2331 11909,2167 11917,2284 11926,2471 11934,2378 11942,2495 11951,2378 11959,1980 11968,2378 11976,2612 11984,2518 11993,2425 12001,2518 12009,2495 12018,2518 12026,2167 12034,2167 12043,2214 12051,2401 12059,2331 12068,2214 12076,2261 12084,2167 12093,2518 12101,2518 12109,2261 12118,2448 12126,2237 12134,2588 12143,2471 12151,2214 12159,2097 12168,2237 12176,2214 12185,2471 12193,2121 12201,2074 12210,2167 12218,2565 12226,2167 12235,2261 12243,2541 12251,2237 12260,2401 12268,2261 12276,2214 12285,2097 12293,2401 12301,2518 12310,2495 12318,2308 12326,2167 12335,2378 12343,2354 12351,2097 12360,2074 12368,2448 12377,2167 12385,2565 12393,2378 12402,2261 12410,2191 12418,2378 12435,2471 12443,2378 12452,2284 12460,2658 12468,2705 12477,2354 12485,2378 12493,2354 12502,2541 12510,2705 12527,2658 12535,2705 12543,2354 12552,2401 12560,2191 12569,2612 12577,2378 12585,2658 12594,2658 12602,2354 12610,2541 12619,2705 12627,2448 12635,2705 12644,2541 12652,2705 12660,2471 12669,2448 12677,2541 12685,2799 12694,2729 12702,2869 12710,2892 12719,2658 12727,2962 12735,2565 12744,2354 12752,2729 12761,2354 12769,2729 12777,2729 12786,2752 12794,2541 12802,2729 12811,2892 12819,2541 12827,2448 12836,2658 12844,2986 12852,2986 12861,2799 12869,2775 12877,2752 12886,2588 12894,2658 12902,2729 12911,3079 12919,2518 12927,2986 12936,2729 12944,2588 12953,2916 12961,2729 12969,3079 12978,3079 12994,2916 13003,2822 13011,3056 13019,2916 13028,2729 13036,2822 13044,3220 13053,2822 13061,3126 13069,2916 13078,2986 13086,2822 13094,2916 13103,2916 13111,3173 13119,3266 13128,3243 13136,3360 13144,2916 13153,3266 13161,3009 13170,3079 13178,2962 13186,3103 13203,3360 13211,3360 13220,3407 13228,3547 13236,3360 13245,3313 13253,3149 13261,3360 13270,3453 13278,3453 13286,3220 13295,3407 13303,3103 13311,3547 13320,3290 13328,3547 13336,3149 13345,3337 13353,3149 13362,3360 13370,3477 13378,3290 13387,3266 13395,3407 13403,3383 13412,3313 13420,3711 13428,3290 13437,3664 13445,3477 13453,3594 13462,3313 13470,3547 13478,3781 13487,3360 13495,3617 13503,3500 13512,3547 13520,3477 13528,3641 13537,3477 13545,3383 13554,3734 13570,3477 13579,3243 13587,3594 13595,3687 13604,3477 13612,3524 13620,3477 13637,3921 13645,3758 13654,3828 13662,3477 13670,3921 13679,3313 13687,3804 13695,3781 13704,3664 13712,3828 13720,3594 13729,3687 13737,3781 13746,3874 13754,3781 13762,3687 13771,3664 13779,4108 13787,3781 13796,3991 13804,3851 13812,4015 13821,3711 13829,4108 13837,4015 13846,4015 13854,4015 13862,3851 13871,3851 13879,4108 13887,3945 13896,3851 13912,3945 13921,4202 13929,4038 13938,4202 13946,4062 13954,3851 13963,4038 13971,3851 13979,3711 13988,3968 13996,3945 14004,4202 14021,4038 14029,4202 14038,4202 14046,3851 14054,3945 14063,3945 14071,4202 14079,4062 14088,4202 14096,4389 14104,4085 14113,4202 14121,4249 14130,4225 14146,4528 14155,4366 14163,4342 14171,4225 14188,4225 14196,4436 14205,4225 14213,4225 14230,4225 14238,4342 14246,4389 14255,4342 14263,4575 14271,4528 14280,4528 14288,4412 14296,4575 14305,4225 14313,4412 14321,4482 14330,4319 14338,4505 14347,4575 14355,4436 14363,4645 14372,4669 14380,4459 14388,4575 14397,4598 14405,4622 14413,4785 14422,4575 14430,4412 14438,4552 14447,4389 14455,4412 14463,4645 14472,4669 14480,4739 14488,4715 14497,4528 14505,4739 14513,4739 14522,4715 14530,4715 14539,4739 14547,4949 14555,4505 14564,4692 14572,4412 14580,4528 14589,4762 14597,4949 14605,4715 14614,4902 14622,4832 14639,4692 14647,4785 14655,4762 14664,4949 14680,5089 14689,5113 14697,4832 14705,4949 14714,4785 14722,4785 14731,5136 14739,4879 14747,5089 14756,4785 14764,4785 14772,4832 14781,5019 14789,5230 14797,4832 14806,4926 14814,5183 14822,4809 14831,4879"/>
 <text class="TextShape"><tspan class="TextParagraph" font-family="Liberation Sans, sans-serif" font-size="353px" font-weight="400"><tspan class="TextPosition" x="1859" y="7758"><tspan fill="rgb(0,0,0)" stroke="none">0</tspan></tspan></tspan></text>
 <text class="TextShape"><tspan class="TextParagraph" font-family="Liberation Sans, sans-serif" font-size="353px" font-weight="400"><tspan class="TextPosition" x="3343" y="7758"><tspan fill="rgb(0,0,0)" stroke="none">200</tspan></tspan></tspan></text>
 <text class="TextShape"><tspan class="TextParagraph" font-family="Liberation Sans, sans-serif" font-size="353px" font-weight="400"><tspan class="TextPosition" x="5013" y="7758"><tspan fill="rgb(0,0,0)" stroke="none">400</tspan></tspan></tspan></text>
 <text class="TextShape"><tspan class="TextParagraph" font-family="Liberation Sans, sans-serif" font-size="353px" font-weight="400"><tspan class="TextPosition" x="6682" y="7758"><tspan fill="rgb(0,0,0)" stroke="none">600</tspan></tspan></tspan></text>
 <text class="TextShape"><tspan class="TextParagraph" font-family="Liberation Sans, sans-serif" font-size="353px" font-weight="400"><tspan class="TextPosition" x="8352" y="7758"><tspan fill="rgb(0,0,0)" stroke="none">800</tspan></tspan></tspan></text>
 <text class="TextShape"><tspan class="TextParagraph" font-family="Liberation Sans, sans-serif" font-size="353px" font-weight="400"><tspan class="TextPosition" x="9928" y="7758"><tspan fill="rgb(0,0,0)" stroke="none">1000</tspan></tspan></tspan></text>
 <text class="TextShape"><tspan class="TextParagraph" font-family="Liberation Sans, sans-serif" font-size="353px" font-weight="400"><tspan class="TextPosition" x="11598" y="7758"><tspan fill="rgb(0,0,0)" stroke="none">1200</tspan></tspan></tspan></text>
 <text class="TextShape"><tspan class="TextParagraph" font-family="Liberation Sans, sans-serif" font-size="353px" font-weight="400"><tspan class="TextPosition" x="13267" y="7758"><tspan fill="rgb(0,0,0)" stroke="none">1400</tspan></tspan></tspan></text>
 <text class="TextShape"><tspan class="TextParagraph" font-family="Liberation Sans, sans-serif" font-size="353px" font-weight="400"><tspan class="TextPosition" x="14937" y="7758"><tspan fill="rgb(0,0,0)" stroke="none">1600</tspan></tspan></tspan></text>
 <text class="TextShape"><tspan class="TextParagraph" font-family="Liberation Sans, sans-serif" font-size="353px" font-weight="400"><tspan class="TextPosition" x="1332" y="7311"><tspan fill="rgb(0,0,0)" stroke="none">26</tspan></tspan></tspan></text>
 <text class="TextShape"><tspan class="TextParagraph" font-family="Liberation Sans, sans-serif" font-size="353px" font-weight="400"><tspan class="TextPosition" x="1332" y="6358"><tspan fill="rgb(0,0,0)" stroke="none">27</tspan></tspan></tspan></text>
 <text class="TextShape"><tspan class="TextParagraph" font-family="Liberation Sans, sans-serif" font-size="353px" font-weight="400"><tspan class="TextPosition" x="1332" y="5405"><tspan fill="rgb(0,0,0)" stroke="none">28</tspan></tspan></tspan></text>
 <text class="TextShape"><tspan class="TextParagraph" font-family="Liberation Sans, sans-serif" font-size="353px" font-weight="400"><tspan class="TextPosition" x="1332" y="4452"><tspan fill="rgb(0,0,0)" stroke="none">29</tspan></tspan></tspan></text>
 <text class="TextShape"><tspan class="TextParagraph" font-family="Liberation Sans, sans-serif" font-size="353px" font-weight="400"><tspan class="TextPosition" x="1332" y="3499"><tspan fill="rgb(0,0,0)" stroke="none">30</tspan></tspan></tspan></text>
 <text class="TextShape"><tspan class="TextParagraph" font-family="Liberation Sans, sans-serif" font-size="353px" font-weight="400"><tspan class="TextPosition" x="1332" y="2546"><tspan fill="rgb(0,0,0)" stroke="none">31</tspan></tspan></tspan></text>
 <text class="TextShape"><tspan class="TextParagraph" font-family="Liberation Sans, sans-serif" font-size="353px" font-weight="400"><tspan class="TextPosition" x="1332" y="1593"><tspan fill="rgb(0,0,0)" stroke="none">32</tspan></tspan></tspan></text>
 <text class="TextShape"><tspan class="TextParagraph" font-family="Liberation Sans, sans-serif" font-size="459px" font-weight="400"><tspan class="TextPosition" x="3991" y="851"><tspan fill="rgb(0,0,0)" stroke="none">Kp = 800, Ki = 10, Kd = 0, Set point = 29</tspan></tspan></tspan></text>
 <text class="TextShape"><tspan class="TextParagraph" font-family="Liberation Sans, sans-serif" font-size="318px" font-weight="400"><tspan class="TextPosition" x="7936" y="8405"><tspan fill="rgb(0,0,0)" stroke="none">Time (s)</tspan></tspan></tspan></text>
 <text class="TextShape" transform="translate(837,6144) rotate(-90) translate(-837,-6144)"><tspan class="TextParagraph" font-family="Liberation Sans, sans-serif" font-size="318px" font-weight="400"><tspan class="TextPosition" x="837" y="6144"><tspan fill="rgb(0,0,0)" stroke="none">Temperature (Celsius)</tspan></tspan></tspan></text>
</svg>