<?xml version="1.0" encoding="UTF-8"?>
<!DOCTYPE svg PUBLIC "-//W3C//DTD SVG 1.1//EN" "http://www.w3.org/Graphics/SVG/1.1/DTD/svg11.dtd">
<svg width="160mm" height="90mm" viewBox="0 0 16000 9000" version="1.1" xmlns="http://www.w3.org/2000/svg" stroke-width="28.222" stroke-linejoin="round" xml:space="preserve">
 <path fill="rgb(255,255,255)" stroke="none" d="M 8000,8999 L 0,8999 0,0 15999,0 15999,8999 8000,8999 Z"/>
 <path fill="none" stroke="rgb(179,179,179)" stroke-linejoin="round" d="M 8629,7192 L 1952,7192 1952,1475 15307,1475 15307,7192 8629,7192 Z"/>
 <path fill="none" stroke="rgb(179,179,179)" stroke-linejoin="round" d="M 15306,7191 L 1952,7191"/>
 <path fill="none" stroke="rgb(179,179,179)" stroke-linejoin="round" d="M 15306,6555 L 1952,6555"/>
 <path fill="none" stroke="rgb(179,179,179)" stroke-linejoin="round" d="M 15306,5920 L 1952,5920"/>
 <path fill="none" stroke="rgb(179,179,179)" stroke-linejoin="round" d="M 15306,5285 L 1952,5285"/>
 <path fill="none" stroke="rgb(179,179,179)" stroke-linejoin="round" d="M 15306,4649 L 1952,4649"/>
 <path fill="none" stroke="rgb(179,179,179)" stroke-linejoin="round" d="M 15306,4015 L 1952,4015"/>
 <path fill="none" stroke="rgb(179,179,179)" stroke-linejoin="round" d="M 15306,3380 L 1952,3380"/>
 <path fill="none" stroke="rgb(179,179,179)" stroke-linejoin="round" d="M 15306,2744 L 1952,2744"/>
 <path fill="none" stroke="rgb(179,179,179)" stroke-linejoin="round" d="M 15306,2109 L 1952,2109"/>
 <path fill="none" stroke="rgb(179,179,179)" stroke-linejoin="round" d="M 15306,1474 L 1952,1474"/>
 <path fill="none" stroke="rgb(179,179,179)" stroke-linejoin="round" d="M 1952,7341 L 1952,7191"/>
 <path fill="none" stroke="rgb(179,179,179)" stroke-linejoin="round" d="M 1952,7341 L 1952,7191"/>
 <path fill="none" stroke="rgb(179,179,179)" stroke-linejoin="round" d="M 4623,7341 L 4623,7191"/>
 <path fill="none" stroke="rgb(179,179,179)" stroke-linejoin="round" d="M 4623,7341 L 4623,7191"/>
 <path fill="none" stroke="rgb(179,179,179)" stroke-linejoin="round" d="M 7294,7341 L 7294,7191"/>
 <path fill="none" stroke="rgb(179,179,179)" stroke-linejoin="round" d="M 7294,7341 L 7294,7191"/>
 <path fill="none" stroke="rgb(179,179,179)" stroke-linejoin="round" d="M 9964,7341 L 9964,7191"/>
 <path fill="none" stroke="rgb(179,179,179)" stroke-linejoin="round" d="M 9964,7341 L 9964,7191"/>
 <path fill="none" stroke="rgb(179,179,179)" stroke-linejoin="round" d="M 12635,7341 L 12635,7191"/>
 <path fill="none" stroke="rgb(179,179,179)" stroke-linejoin="round" d="M 12635,7341 L 12635,7191"/>
 <path fill="none" stroke="rgb(179,179,179)" stroke-linejoin="round" d="M 15306,7341 L 15306,7191"/>
 <path fill="none" stroke="rgb(179,179,179)" stroke-linejoin="round" d="M 15306,7341 L 15306,7191"/>
 <path fill="none" stroke="rgb(179,179,179)" stroke-linejoin="round" d="M 1952,7191 L 15306,7191"/>
 <path fill="none" stroke="rgb(179,179,179)" stroke-linejoin="round" d="M 1802,7191 L 1952,7191"/>
 <path fill="none" stroke="rgb(179,179,179)" stroke-linejoin="round" d="M 1802,7191 L 1952,7191"/>
 <path fill="none" stroke="rgb(179,179,179)" stroke-linejoin="round" d="M 1802,6555 L 1952,6555"/>
 <path fill="none" stroke="rgb(179,179,179)" stroke-linejoin="round" d="M 1802,6555 L 1952,6555"/>
 <path fill="none" stroke="rgb(179,179,179)" stroke-linejoin="round" d="M 1802,5920 L 1952,5920"/>
 <path fill="none" stroke="rgb(179,179,179)" stroke-linejoin="round" d="M 1802,5920 L 1952,5920"/>
 <path fill="none" stroke="rgb(179,179,179)" stroke-linejoin="round" d="M 1802,5285 L 1952,5285"/>
 <path fill="none" stroke="rgb(179,179,179)" stroke-linejoin="round" d="M 1802,5285 L 1952,5285"/>
 <path fill="none" stroke="rgb(179,179,179)" stroke-linejoin="round" d="M 1802,4649 L 1952,4649"/>
 <path fill="none" stroke="rgb(179,179,179)" stroke-linejoin="round" d="M 1802,4649 L 1952,4649"/>
 <path fill="none" stroke="rgb(179,179,179)" stroke-linejoin="round" d="M 1802,4015 L 1952,4015"/>
 <path fill="none" stroke="rgb(179,179,179)" stroke-linejoin="round" d="M 1802,4015 L 1952,4015"/>
 <path fill="none" stroke="rgb(179,179,179)" stroke-linejoin="round" d="M 1802,3380 L 1952,3380"/>
 <path fill="none" stroke="rgb(179,179,179)" stroke-linejoin="round" d="M 1802,3380 L 1952,3380"/>
 <path fill="none" stroke="rgb(179,179,179)" stroke-linejoin="round" d="M 1802,2744 L 1952,2744"/>
 <path fill="none" stroke="rgb(179,179,179)" stroke-linejoin="round" d="M 1802,2744 L 1952,2744"/>
 <path fill="none" stroke="rgb(179,179,179)" stroke-linejoin="round" d="M 1802,2109 L 1952,2109"/>
 <path fill="none" stroke="rgb(179,179,179)" stroke-linejoin="round" d="M 1802,2109 L 1952,2109"/>
 <path fill="none" stroke="rgb(179,179,179)" stroke-linejoin="round" d="M 1802,1474 L 1952,1474"/>
 <path fill="none" stroke="rgb(179,179,179)" stroke-linejoin="round" d="M 1802,1474 L 1952,1474"/>
 <path fill="none" stroke="rgb(179,179,179)" stroke-linejoin="round" d="M 1952,7191 L 1952,1474"/>
 <path fill="none" stroke="rgb(0,69,134)" stroke-width="80" stroke-linejoin="round" d="M 1952,6476 L 1957,6617 1962,6476 1968,6570 1973,6414 1978,6695 1984,6570 1989,6476 1994,6508 2000,6539 2005,6461 2010,6570 2016,6414 2021,6695 2026,6492 2032,6741 2037,6492 2042,6398 2048,6632 2053,6570 2058,6523 2064,6632 2069,6523 2074,6461 2080,6461 2085,6508 2090,6632 2096,6695 2106,6461 2112,6570 2117,6632 2122,6398 2128,6461 2133,6508 2138,6523 2144,6632 2149,6492 2155,6617 2160,6461 2165,6476 2176,6461 2181,6476 2187,6695 2192,6664 2197,6586 2203,6617 2208,6461 2213,6586 2219,6445 2224,6664 2229,6679 2235,6601 2240,6632 2245,6476 2251,6352 2256,6461 2261,6695 2267,6461 2272,6508 2277,6492 2283,6523 2288,6461 2293,6679 2299,6586 2304,6492 2309,6476 2315,6492 2320,6632 2325,6461 2331,6570 2336,6461 2341,6398 2347,6632 2352,6398 2358,6570 2363,6461 2368,6601 2374,6461 2379,6398 2390,6554 2395,6476 2400,6710 2406,6398 2411,6414 2416,6461 2422,6336 2427,6476 2432,6336 2438,6476 2443,6492 2448,6476 2454,6539 2459,6367 2464,6321 2470,6336 2475,6274 2480,6305 2486,6321 2491,6336 2496,6508 2502,6336 2507,6274 2512,6445 2518,6367 2523,6352 2528,6367 2534,6305 2539,6383 2545,6243 2550,6289 2555,6305 2561,6274 2566,6211 2571,6211 2587,6211 2593,6196 2598,6211 2603,6102 2609,6040 2614,6149 2619,6180 2625,6243 2630,6071 2635,6087 2641,6102 2646,6087 2651,6289 2657,6165 2662,6087 2667,6196 2683,6071 2689,5978 2694,6087 2699,5978 2705,6071 2710,5915 2715,6165 2721,5978 2731,5962 2737,5962 2742,5837 2748,6071 2753,5837 2758,5915 2764,5868 2769,6040 2774,5900 2780,5853 2785,5946 2790,5837 2796,5978 2801,5946 2806,5978 2812,5946 2817,5915 2822,5884 2828,5931 2833,5837 2838,5713 2844,5713 2849,5884 2854,5713 2860,5588 2865,5697 2870,5744 2876,5650 2881,5713 2886,5447 2892,5713 2897,5697 2902,5541 2908,5619 2913,5697 2924,5588 2929,5525 2935,5401 2940,5494 2951,5697 2956,5697 2961,5619 2967,5463 2977,5416 2983,5401 2988,5494 2993,5510 2999,5603 3004,5354 3009,5447 3015,5401 3020,5541 3025,5541 3031,5229 3036,5354 3041,5447 3047,5214 3052,5447 3057,5214 3063,5292 3073,5245 3079,5214 3084,5323 3089,5167 3095,5323 3100,5354 3105,5323 3116,5276 3121,5260 3127,5198 3132,5182 3148,5167 3154,5027 3159,5058 3164,5136 3170,4995 3175,5058 3180,5073 3186,5105 3191,4964 3196,5198 3202,5027 3207,4995 3218,4871 3223,5011 3228,5073 3234,4839 3239,4933 3244,4933 3250,5058 3255,4746 3260,4949 3266,4715 3271,4777 3276,4824 3282,4949 3287,4808 3292,4839 3298,4715 3303,4590 3308,4668 3314,4715 3319,4621 3324,4762 3330,4652 3335,4871 3341,4777 3346,4590 3351,4699 3362,4730 3367,4621 3373,4715 3378,4590 3383,4482 3389,4668 3394,4637 3399,4543 3405,4451 3410,4559 3415,4543 3421,4543 3426,4482 3431,4574 3437,4420 3442,4621 3447,4497 3453,4248 3458,4295 3463,4404 3469,4388 3474,4279 3479,4217 3485,4248 3490,4373 3506,4420 3511,4217 3517,4451 3522,4357 3528,4295 3533,4155 3538,4435 3544,4310 3549,4030 3554,4326 3560,4123 3565,4108 3570,4139 3576,4201 3581,4092 3586,4201 3597,4139 3602,4186 3608,3999 3613,4045 3618,3967 3629,3983 3634,4201 3640,4045 3645,4077 3650,3936 3656,3905 3661,4014 3666,3796 3672,3921 3677,3983 3682,4030 3688,3780 3693,3858 3698,4045 3704,3780 3709,3780 3714,3749 3720,3952 3725,3796 3731,3952 3736,3780 3747,3718 3752,3656 3757,3593 3763,3889 3768,3609 3773,3889 3779,3827 3784,3780 3789,3874 3795,3593 3800,3827 3805,3671 3811,3702 3816,3593 3821,3484 3827,3531 3832,3827 3837,3749 3843,3702 3848,3593 3859,3344 3864,3500 3869,3578 3875,3515 3880,3469 3885,3562 3891,3578 3896,3546 3901,3406 3907,3500 3912,3406 3918,3406 3923,3422 3928,3406 3934,3422 3939,3344 3944,3500 3950,3281 3955,3406 3960,3344 3966,3500 3971,3391 3976,3219 3982,3204 3987,3422 3992,3453 3998,3437 4003,3391 4008,3157 4014,3219 4019,3157 4024,3313 4030,3110 4035,3328 4040,3235 4051,3110 4056,3313 4062,3048 4067,3063 4072,3032 4078,3204 4083,3157 4088,2985 4094,3094 4099,3141 4104,3204 4110,2985 4115,3204 4121,2970 4126,3204 4131,3032 4137,3048 4142,2970 4147,3001 4153,3110 4158,2923 4163,3032 4169,3172 4174,3001 4179,2970 4185,2798 4190,3048 4195,3094 4201,3126 4206,3079 4217,2892 4222,2845 4233,2985 4238,3079 4243,2845 4249,3079 4254,2861 4259,2720 4265,3016 4270,2938 4275,2861 4281,2720 4286,2783 4291,2720 4297,2892 4302,2845 4307,2892 4313,2829 4318,2720 4324,2829 4329,2658 4334,2798 4340,2814 4345,2751 4350,2720 4356,2549 4361,2564 4366,2611 4372,2627 4377,2642 4382,2658 4388,2533 4393,2596 4398,2751 4404,2705 4409,2502 4414,2471 4420,2705 4425,2580 4430,2471 4436,2502 4441,2533 4446,2424 4452,2705 4457,2502 4462,2673 4468,2486 4473,2455 4478,2596 4484,2471 4489,2408 4494,2471 4500,2564 4505,2580 4511,2377 4516,2377 4521,2580 4527,2642 4532,2642 4537,2486 4543,2580 4548,2377 4553,2471 4559,2440 4564,2502 4569,2346 4575,2549 4580,2533 4585,2440 4591,2362 4596,2642 4601,2346 4612,2284 4617,2549 4623,2455 4628,2221 4633,2284 4639,2393 4644,2393 4649,2362 4655,2315 4660,2253 4665,2424 4671,2455 4676,2268 4681,2424 4692,2362 4697,2221 4703,2097 4708,2315 4714,2330 4719,2455 4724,2284 4730,2315 4735,2393 4740,2362 4746,2299 4751,2315 4756,2221 4762,2362 4767,2330 4772,2253 4778,2315 4783,2159 4788,2408 4794,2377 4799,2221 4804,2377 4810,2440 4815,2221 4820,2221 4831,2377 4836,2330 4842,2221 4847,2221 4858,2455 4863,2221 4868,2299 4874,2455 4884,2097 4890,2034 4895,2299 4901,2455 4906,2330 4911,2221 4917,2393 4927,2097 4933,2455 4938,2253 4943,2268 4949,2221 4959,2159 4965,2455 4970,2268 4975,2221 4981,2346 4986,2377 4991,2330 4997,2175 5002,2128 5007,2237 5013,2221 5018,2175 5023,2159 5029,2190 5034,2221 5039,2424 5045,2455 5050,2159 5055,2221 5061,2315 5066,2455 5071,2518 5077,2330 5082,2377 5087,2455 5093,2221 5098,2315 5104,2221 5109,2097 5114,2221 5120,2253 5130,2455 5136,2299 5146,2393 5152,2221 5157,2081 5162,2299 5168,2268 5173,2330 5178,2221 5184,2518 5189,2237 5194,2299 5200,2112 5205,2221 5210,2330 5216,2455 5226,2424 5232,2221 5242,2408 5248,2377 5253,2486 5258,2455 5264,2284 5269,2299 5274,2299 5280,2502 5285,2455 5291,2377 5296,2580 5301,2221 5307,2440 5312,2377 5317,2440 5323,2377 5328,2237 5333,2315 5339,2377 5344,2393 5349,2408 5355,2424 5360,2486 5365,2627 5371,2346 5376,2642 5381,2502 5387,2362 5392,2596 5397,2689 5403,2596 5408,2455 5413,2611 5419,2705 5424,2580 5429,2377 5435,2705 5440,2502 5445,2580 5451,2673 5461,2705 5467,2611 5472,2518 5477,2440 5483,2705 5488,2627 5494,2471 5499,2533 5504,2518 5510,2471 5515,2424 5520,2502 5531,2533 5536,2705 5542,2564 5547,2705 5552,2549 5558,2689 5563,2596 5574,2486 5579,2767 5584,2705 5590,2689 5595,2596 5600,2627 5606,2658 5611,2627 5616,2611 5622,2829 5627,2627 5632,2876 5638,2596 5643,2829 5648,2596 5654,2580 5659,2673 5664,2798 5670,2596 5675,2673 5680,2705 5686,2549 5691,2783 5697,2720 5702,2845 5707,2829 5713,2892 5718,2720 5723,2861 5729,2720 5739,2829 5745,2705 5750,2705 5755,2736 5761,2767 5766,2736 5771,2720 5777,2783 5782,2892 5787,2736 5793,2954 5798,2720 5803,2751 5809,2720 5814,2845 5819,2954 5830,2751 5835,3204 5841,2720 5846,2751 5851,2876 5857,2751 5862,2720 5867,2954 5873,2658 5878,2954 5889,2954 5894,2861 5900,2907 5905,2798 5910,2845 5916,2923 5921,3094 5926,2596 5932,2783 5937,2861 5942,2876 5948,3016 5953,2907 5958,2845 5964,2751 5969,3001 5974,2907 5980,2970 5985,3063 5990,2783 5996,2892 6001,3016 6006,2876 6012,3016 6017,3001 6022,2798 6028,2798 6033,2845 6038,3016 6049,2720 6054,2798 6060,2845 6065,2923 6070,2876 6076,2938 6081,2938 6087,2923 6092,2845 6097,2736 6103,2814 6108,3063 6113,3001 6119,3079 6124,3079 6129,2845 6135,2970 6151,3016 6156,2907 6161,2923 6167,3016 6172,2907 6177,2861 6183,2907 6188,3141 6193,3126 6199,3048 6204,2845 6215,3048 6220,2861 6225,2938 6231,2985 6236,3048 6241,3126 6247,3079 6252,2876 6257,2907 6268,2861 6274,2938 6279,2907 6284,3001 6290,2814 6295,2845 6300,2892 6306,2861 6311,3141 6316,2845 6322,3141 6327,2907 6332,3126 6338,2798 6343,3110 6348,2970 6354,2954 6359,2798 6364,2876 6370,2954 6375,2876 6380,2985 6386,3079 6391,2970 6396,3126 6402,2783 6407,2954 6412,2845 6423,2845 6428,2829 6434,2954 6439,2954 6444,3079 6450,2798 6455,2845 6460,2985 6466,2954 6471,2876 6477,2845 6482,3048 6487,2783 6493,2892 6498,2845 6503,2907 6509,2861 6514,2814 6519,2876 6525,2907 6530,2751 6535,2938 6541,2814 6546,2892 6551,2954 6557,2829 6562,2829 6567,2923 6573,2814 6578,3079 6583,3016 6589,2658 6594,3016 6599,2720 6605,2954 6610,2767 6615,2720 6626,3016 6631,2705 6637,2954 6642,2720 6647,2783 6658,2829 6663,2923 6669,2923 6674,2907 6680,2720 6685,2783 6690,2954 6696,2720 6701,2720 6706,2798 6712,2767 6717,2720 6728,2923 6733,2751 6738,2892 6744,2720 6754,2892 6760,2876 6765,2892 6770,2720 6776,2751 6781,2861 6786,2829 6792,2720 6797,2596 6802,2798 6808,2611 6813,2549 6818,2611 6824,2627 6829,2720 6834,2720 6840,2705 6845,2596 6850,2720 6856,2658 6861,3016 6867,2798 6872,2502 6877,2720 6883,3001 6888,2720 6893,2798 6899,2658 6904,2720 6909,2549 6915,2798 6920,2783 6925,2627 6931,2533 6936,2642 6941,2627 6947,2627 6952,2829 6957,2471 6963,2673 6968,2705 6973,2892 6979,2658 6984,2502 6989,2767 6995,2814 7000,2720 7005,2564 7011,2814 7016,2596 7021,2705 7027,2705 7032,2471 7037,2596 7043,2829 7048,2596 7053,2502 7059,2642 7064,2471 7070,2580 7075,2705 7080,2627 7086,2673 7091,2471 7096,2767 7102,2689 7107,2829 7112,2596 7118,2720 7123,2471 7128,2549 7134,2471 7139,2455 7144,2627 7150,2627 7155,2705 7160,2518 7166,2346 7171,2673 7176,2751 7182,2471 7187,2673 7192,2673 7198,2502 7203,2627 7208,2486 7214,2580 7219,2408 7224,2642 7230,2533 7235,2408 7240,2284 7246,2377 7251,2611 7257,2471 7262,2533 7267,2377 7273,2611 7278,2346 7283,2549 7289,2705 7294,2486 7299,2549 7305,2564 7310,2377 7315,2486 7321,2658 7326,2408 7331,2440 7337,2673 7342,2502 7347,2549 7353,2377 7358,2377 7363,2627 7369,2642 7374,2564 7379,2346 7385,2346 7390,2705 7395,2705 7401,2408 7406,2549 7411,2471 7417,2486 7422,2673 7427,2580 7433,2377 7438,2580 7443,2720 7449,2408 7454,2580 7460,2486 7465,2642 7470,2611 7476,2424 7481,2346 7486,2596 7492,2471 7497,2673 7502,2408 7508,2408 7513,2580 7518,2471 7524,2346 7529,2580 7534,2408 7540,2642 7545,2549 7550,2486 7556,2408 7561,2580 7566,2596 7572,2533 7577,2580 7582,2486 7588,2502 7593,2627 7598,2580 7604,2377 7609,2705 7614,2533 7620,2580 7625,2767 7630,2705 7636,2596 7641,2673 7646,2518 7652,2720 7657,2486 7663,2705 7673,2471 7679,2533 7684,2502 7689,2533 7695,2611 7700,2471 7705,2580 7711,2486 7716,2673 7721,2440 7727,2471 7732,2440 7737,2486 7743,2829 7748,2705 7753,2518 7759,2705 7769,2705 7775,2486 7780,2596 7785,2549 7791,2533 7796,2486 7801,2580 7807,2642 7812,2611 7817,2471 7823,2829 7828,2596 7833,2673 7839,2564 7844,2798 7850,2751 7855,2611 7860,2549 7866,2596 7871,2533 7876,2502 7882,2596 7887,2751 7892,2689 7898,2502 7903,2673 7908,2720 7914,2564 7919,2892 7924,2705 7930,2533 7935,2705 7940,2658 7946,2720 7951,2892 7956,2751 7962,2549 7967,2518 7972,2705 7978,2564 7983,2783 7988,2549 7994,2502 7999,2751 8003,2408 8009,2751 8014,2627 8019,2736 8025,2596 8030,2627 8035,2689 8041,2611 8052,2954 8057,2611 8062,2705 8068,2627 8073,2798 8078,2954 8084,2705 8089,2564 8094,2861 8100,2798 8105,2627 8110,2611 8116,2892 8126,2829 8132,2611 8137,2861 8142,2954 8148,2829 8153,2658 8158,2720 8164,2876 8169,2923 8174,2736 8180,2876 8185,2923 8190,2705 8196,2627 8201,2486 8206,2829 8212,2658 8217,2861 8222,2938 8228,2892 8233,2751 8244,2892 8249,2798 8255,2954 8260,2658 8265,2892 8271,2611 8276,2783 8281,2892 8287,2767 8292,3001 8297,2596 8303,2829 8313,2658 8324,2783 8329,2954 8335,2861 8340,2720 8345,2736 8351,2876 8356,3016 8361,2845 8367,2783 8372,2954 8377,2720 8383,2783 8388,2954 8399,2751 8404,2954 8409,2736 8415,2907 8420,2751 8425,2923 8431,2829 8436,2861 8442,2720 8447,3079 8452,2783 8458,2923 8463,2736 8468,2689 8474,2751 8479,2751 8484,2829 8490,2720 8495,2736 8500,2923 8506,2892 8511,2861 8516,2751 8522,3016 8527,2798 8532,2658 8538,3016 8543,2970 8548,2954 8554,2923 8559,2954 8564,2798 8570,2814 8575,2829 8580,2892 8586,2954 8591,2783 8596,2954 8602,2954 8607,2892 8612,2985 8618,2783 8623,2658 8629,2720 8634,2658 8639,2720 8645,2845 8650,2923 8655,3001 8661,2720 8666,2892 8671,2876 8677,2829 8682,2767 8687,2954 8698,2658 8703,2814 8709,2658 8714,2923 8719,2720 8725,2720 8730,2954 8735,2673 8741,2892 8746,2736 8751,2923 8757,2720 8762,2596 8767,2954 8773,2907 8778,2923 8783,2907 8789,2658 8794,2954 8799,2720 8805,2783 8810,2845 8815,2923 8821,2923 8826,2689 8832,2954 8837,2720 8842,2923 8848,2751 8853,2627 8858,2720 8864,2954 8869,2658 8874,2720 8880,2923 8885,2954 8890,3001 8896,2751 8901,2783 8906,2720 8912,2829 8917,2627 8922,2720 8928,2751 8933,2720 8938,2876 8944,2954 8949,2596 8954,2627 8960,2720 8970,2892 8976,2658 8986,2861 8992,2814 8997,2829 9002,2923 9008,2720 9013,2876 9018,2627 9024,2798 9029,2892 9035,2751 9040,2923 9045,2923 9051,2736 9056,2845 9061,2658 9067,2923 9072,2627 9077,2736 9083,2720 9093,2658 9099,2892 9104,2720 9109,2892 9115,2845 9120,2798 9125,2923 9131,2720 9136,2689 9141,2658 9147,2938 9152,2596 9157,2720 9163,2689 9168,2705 9173,2892 9179,2798 9184,2673 9189,2502 9195,2627 9200,2814 9205,2658 9211,2564 9216,2720 9222,2829 9227,2751 9232,2705 9238,2720 9243,2564 9248,2596 9254,2798 9259,2642 9264,2580 9270,2564 9275,2658 9280,2705 9286,2845 9291,2611 9296,2720 9302,2673 9307,2751 9312,2767 9318,2892 9323,2923 9328,2658 9334,2751 9339,2923 9344,2829 9350,2533 9355,2596 9360,2533 9366,2892 9371,2720 9376,2767 9382,2549 9387,2627 9392,2829 9398,2829 9414,2720 9419,2596 9425,2642 9430,2705 9435,2861 9441,2814 9446,2627 9451,2798 9457,2471 9462,2829 9467,2596 9473,2783 9478,2720 9483,2751 9489,2720 9494,2892 9499,2658 9505,2689 9510,2705 9515,2596 9521,2736 9526,2892 9531,2861 9537,2798 9542,2596 9547,2596 9553,2798 9558,2829 9563,2533 9569,2751 9574,2689 9579,2596 9585,2705 9590,2549 9595,2658 9601,2627 9606,2564 9612,2549 9617,2596 9622,2814 9628,2673 9633,2658 9638,2533 9644,2596 9649,2627 9654,2923 9660,2954 9665,2658 9670,2783 9676,2564 9681,2627 9686,2627 9692,2533 9697,2798 9702,2876 9708,2596 9713,2814 9718,2720 9724,2689 9729,2673 9734,2533 9740,2596 9745,2876 9750,2751 9756,2596 9761,2720 9766,2658 9772,2705 9777,2720 9782,2611 9788,2829 9793,2720 9798,2861 9804,2829 9809,2596 9815,2767 9820,2829 9825,2658 9831,2596 9836,2673 9841,2627 9847,2783 9852,2596 9857,2705 9863,2596 9868,2954 9873,2751 9879,2627 9884,2845 9889,2533 9895,2673 9900,2533 9905,2798 9911,2814 9916,2611 9921,2954 9927,2829 9932,2814 9937,2892 9943,2720 9948,2720 9953,2829 9959,2658 9964,2892 9969,2798 9975,2751 9980,2876 9985,2954 9991,2938 9996,2673 10001,2892 10007,2611 10012,2627 10018,2658 10023,2892 10028,2705 10039,2798 10044,2751 10050,2720 10055,2642 10060,2720 10071,2720 10076,2829 10082,2736 10087,2720 10098,2720 10103,2673 10108,2751 10114,2767 10119,2923 10124,2596 10130,2720 10135,2783 10140,2829 10146,2611 10151,3016 10156,2658 10162,2829 10167,2720 10172,2954 10178,2876 10183,2892 10188,2533 10194,2720 10205,2892 10210,2767 10215,2658 10221,2720 10226,2798 10231,2720 10237,2814 10247,2845 10253,2923 10258,2658 10263,2829 10269,2642 10274,2611 10279,2829 10285,2486 10290,2720 10295,2596 10301,2798 10306,2611 10311,2892 10317,2705 10322,2720 10327,2658 10333,2938 10338,2658 10343,2845 10349,2673 10354,2783 10359,2751 10365,2923 10370,2658 10375,2720 10386,2658 10391,2876 10397,2798 10402,2720 10408,2751 10413,2564 10418,2627 10424,2720 10429,2954 10434,2627 10440,2658 10450,2845 10456,2720 10466,2798 10472,2829 10477,2876 10482,2658 10488,2876 10493,2783 10498,2876 10504,2783 10509,2705 10514,2829 10520,2720 10525,2689 10530,2596 10536,2892 10541,2533 10546,2751 10552,2783 10557,2751 10562,2627 10568,2720 10573,2658 10578,2954 10584,2596 10589,2642 10595,2954 10600,2751 10605,2814 10611,2954 10616,2845 10621,2720 10627,2767 10632,2642 10637,2627 10643,2720 10648,2861 10653,2845 10659,2658 10664,2845 10669,2736 10675,2751 10680,2829 10685,2658 10691,2627 10696,2954 10701,2751 10707,2954 10712,2829 10717,2736 10723,2798 10728,2829 10733,2736 10739,2892 10744,2720 10749,2611 10755,2720 10760,2751 10765,2611 10771,2751 10776,2720 10781,2892 10787,2611 10792,2533 10798,2892 10803,2720 10808,2658 10814,2658 10819,2829 10824,2845 10830,2892 10835,2954 10840,2720 10846,2954 10851,2596 10862,2736 10867,2767 10872,2783 10878,2829 10888,2798 10894,2938 10899,2829 10904,2627 10910,2767 10915,2783 10920,2954 10926,2627 10931,2829 10936,2783 10942,2720 10947,2658 10952,2705 10958,2892 10963,2829 10974,2720 10979,2596 10984,2658 10990,2829 10995,2627 11001,2907 11006,2814 11011,2767 11017,2673 11022,2611 11027,2829 11033,2720 11038,2533 11043,2892 11049,2596 11054,2814 11059,2720 11065,2829 11070,2596 11075,2673 11081,2767 11086,2705 11091,2861 11097,2596 11102,2611 11107,2798 11113,2938 11118,2689 11123,2533 11129,2783 11134,2798 11139,2658 11145,2923 11150,2673 11155,2689 11161,2720 11166,2845 11171,2861 11177,2720 11182,2861 11188,2767 11193,2767 11198,2549 11204,2829 11209,2627 11214,2876 11220,2533 11225,2627 11230,2658 11236,2611 11241,2720 11246,2658 11252,2658 11257,2829 11262,2658 11268,2876 11273,2720 11278,2861 11284,2720 11289,2798 11294,2892 11300,2673 11305,2751 11310,2798 11316,2642 11321,2876 11326,2829 11332,2720 11337,2829 11342,2876 11348,2596 11358,2658 11364,2705 11369,2798 11374,2720 11380,2829 11385,2767 11391,2798 11396,2596 11401,2720 11407,2642 11412,2876 11417,2720 11423,2783 11428,2658 11433,2829 11439,2627 11444,2767 11449,2892 11455,2705 11460,2767 11465,2658 11471,2829 11476,2549 11481,2814 11487,2705 11492,2720 11497,2627 11503,2564 11508,2596 11513,2596 11519,2658 11524,2705 11529,2658 11535,2580 11540,2611 11545,2892 11551,2892 11556,2689 11561,2829 11567,2829 11572,2533 11578,2627 11583,2658 11588,2596 11594,2767 11599,2596 11604,2533 11620,2611 11626,2642 11631,2798 11636,2829 11642,2705 11647,2751 11658,2892 11663,2845 11668,2611 11674,2751 11679,2658 11690,2783 11695,2564 11700,2829 11706,2424 11711,2533 11716,2720 11722,2549 11727,2580 11732,2829 11738,2705 11743,2798 11748,2892 11754,2845 11759,2596 11764,2642 11770,2798 11775,2814 11781,2689 11786,2829 11791,2533 11797,2564 11802,2627 11807,2767 11813,2564 11823,2845 11829,2611 11834,2720 11839,2689 11845,2596 11850,2892 11855,2767 11861,2564 11866,2798 11871,2658 11877,2549 11882,2720 11887,2533 11893,2751 11898,2876 11903,2829 11909,2705 11914,2829 11919,2533 11925,2596 11930,2533 11935,2533 11941,2627 11946,2596 11951,2673 11957,2751 11962,2596 11968,2829 11973,2798 11978,2767 11984,2564 11989,2829 11994,2751 12000,2596 12005,2720 12010,2751 12016,2627 12021,2533 12026,2767 12032,2627 12037,2611 12042,2892 12048,2705 12053,2642 12058,2705 12064,2596 12069,2689 12074,2876 12080,2829 12085,2533 12090,2596 12096,2611 12101,2596 12106,2814 12112,2751 12117,2876 12122,2658 12128,2767 12133,2720 12138,2751 12144,2533 12154,2736 12160,2876 12165,2596 12171,2596 12176,2783 12181,2720 12187,2580 12192,2627 12197,2720 12203,2705 12208,2720 12213,2829 12219,2814 12224,2829 12229,2580 12235,2829 12240,2642 12245,2564 12251,2829 12256,2627 12261,2798 12267,2627 12272,2596 12277,2533 12288,2596 12293,2954 12299,2829 12304,2798 12309,2564 12315,2596 12320,2658 12325,2720 12331,2829 12336,2658 12341,2720 12347,2564 12352,2627 12357,2596 12363,2705 12368,2658 12374,2705 12379,2720 12384,2627 12390,2627 12395,2596 12400,2658 12406,2798 12411,2783 12416,2533 12422,2658 12427,2892 12432,2627 12438,2596 12443,2627 12448,2673 12454,2658 12459,2751 12464,2673 12470,2611 12475,2596 12480,2627 12486,2720 12491,2611 12496,2720 12502,2736 12507,2954 12512,2892 12518,2751 12523,2705 12528,2658 12534,2814 12539,2767 12544,2783 12550,2720 12555,2892 12561,2720 12566,2658 12571,2798 12577,2705 12582,2892 12587,2720 12593,2876 12598,2829 12603,2892 12609,2829 12614,2673 12619,2954 12625,2596 12630,2736 12635,2658 12641,2736 12646,2658 12651,2720 12657,2767 12662,2736 12667,2829 12673,2892 12678,2611 12683,2767 12689,2658 12694,2705 12699,2736 12705,2720 12710,2954 12715,2814 12721,2938 12726,2829 12731,2892 12737,2829 12742,2814 12747,2673 12753,2658 12758,2627 12764,2720 12769,2767 12774,2938 12780,2861 12785,2720 12790,2767 12796,2954 12801,2720 12806,2751 12812,2954 12817,2736 12822,2751 12828,2814 12833,3048 12838,2923 12844,2736 12849,2658 12854,2720 12860,2783 12865,2829 12870,2923 12876,2845 12881,2829 12886,2954 12892,2673 12897,2767 12902,2596 12908,2673 12913,2814 12918,2751 12924,2720 12929,2658 12934,2845 12940,2876 12951,2861 12956,2892 12961,2720 12967,2720 12977,2720 12993,2954 12999,2751 13004,2814 13009,2720 13015,2596 13020,2892 13025,2954 13031,2658 13036,2611 13041,2751 13047,2751 13052,2783 13057,2829 13063,2720 13068,2798 13073,3016 13079,2876 13084,2985 13089,2954 13095,2720 13100,2892 13105,2658 13111,2876 13116,2783 13121,2720 13127,2923 13132,2861 13137,2658 13143,2751 13148,2829 13154,2751 13159,2876 13164,2783 13170,2736 13175,2720 13180,2705 13186,2751 13191,2861 13196,2845 13202,2954 13207,2705 13212,2938 13218,2798 13223,2829 13228,2767 13234,2954 13239,2954 13244,2798 13250,2736 13255,2954 13260,2923 13266,2673 13271,2798 13276,2892 13282,2720 13292,2720 13298,2627 13303,2720 13308,2938 13314,2798 13319,2783 13324,2751 13330,2907 13335,2611 13340,2798 13346,2720 13351,2783 13357,2751 13362,2751 13367,2689 13373,2954 13378,2954 13389,2829 13394,2783 13399,3126 13405,2767 13410,2892 13415,2720 13421,2954 13426,2658 13431,2798 13437,2876 13442,2892 13447,2705 13453,2783 13458,2892 13463,2938 13469,2751 13474,2783 13479,2751 13485,2658 13495,2923 13501,2892 13506,2720 13511,2751 13517,2954 13522,2720 13527,2814 13533,2861 13538,2751 13544,2829 13549,2892 13554,2658 13560,2861 13565,2892 13570,2892 13576,2627 13581,2845 13586,2892 13592,2689 13597,2783 13602,2596 13608,2596 13613,2798 13618,2720 13624,2829 13629,2533 13634,2533 13640,2720 13645,2892 13650,2720 13656,2829 13661,2658 13666,2829 13672,2658 13677,2673 13682,2627 13688,2596 13693,2673 13698,2751 13704,2596 13709,2751 13714,2611 13720,2611 13725,2783 13730,2673 13736,2596 13741,2954 13747,2720 13757,2596 13763,2892 13768,2985 13773,2596 13779,2736 13784,2596 13789,2596 13795,2471 13800,2658 13805,2596 13811,2720 13816,2814 13821,2892 13827,2783 13832,2814 13837,2596 13843,2658 13848,2938 13853,2642 13859,2954 13864,2720 13869,2720 13875,2596 13880,2720 13885,2876 13891,2720 13896,2798 13901,2658 13912,2658 13917,2876 13923,2596 13928,2751 13934,2705 13939,2892 13944,2673 13950,2829 13955,2736 13960,2876 13966,2596 13971,2658 13976,2596 13982,2892 13987,2783 13992,2658 13998,2596"/>
 <text class="TextShape"><tspan class="TextParagraph" font-family="Liberation Sans, sans-serif" font-size="353px" font-weight="400"><tspan class="TextPosition" x="1859" y="7759"><tspan fill="rgb(0,0,0)" stroke="none">0</tspan></tspan></tspan></text>
 <text class="TextShape"><tspan class="TextParagraph" font-family="Liberation Sans, sans-serif" font-size="353px" font-weight="400"><tspan class="TextPosition" x="4345" y="7759"><tspan fill="rgb(0,0,0)" stroke="none">500</tspan></tspan></tspan></text>
 <text class="TextShape"><tspan class="TextParagraph" font-family="Liberation Sans, sans-serif" font-size="353px" font-weight="400"><tspan class="TextPosition" x="6923" y="7759"><tspan fill="rgb(0,0,0)" stroke="none">1000</tspan></tspan></tspan></text>
 <text class="TextShape"><tspan class="TextParagraph" font-family="Liberation Sans, sans-serif" font-size="353px" font-weight="400"><tspan class="TextPosition" x="9594" y="7759"><tspan fill="rgb(0,0,0)" stroke="none">1500</tspan></tspan></tspan></text>
 <text class="TextShape"><tspan class="TextParagraph" font-family="Liberation Sans, sans-serif" font-size="353px" font-weight="400"><tspan class="TextPosition" x="12265" y="7759"><tspan fill="rgb(0,0,0)" stroke="none">2000</tspan></tspan></tspan></text>
 <text class="TextShape"><tspan class="TextParagraph" font-family="Liberation Sans, sans-serif" font-size="353px" font-weight="400"><tspan class="TextPosition" x="14936" y="7759"><tspan fill="rgb(0,0,0)" stroke="none">2500</tspan></tspan></tspan></text>
 <text class="TextShape"><tspan class="TextParagraph" font-family="Liberation Sans, sans-serif" font-size="353px" font-weight="400"><tspan class="TextPosition" x="1332" y="7312"><tspan fill="rgb(0,0,0)" stroke="none">26</tspan></tspan></tspan></text>
 <text class="TextShape"><tspan class="TextParagraph" font-family="Liberation Sans, sans-serif" font-size="353px" font-weight="400"><tspan class="TextPosition" x="1332" y="6676"><tspan fill="rgb(0,0,0)" stroke="none">27</tspan></tspan></tspan></text>
 <text class="TextShape"><tspan class="TextParagraph" font-family="Liberation Sans, sans-serif" font-size="353px" font-weight="400"><tspan class="TextPosition" x="1332" y="6041"><tspan fill="rgb(0,0,0)" stroke="none">28</tspan></tspan></tspan></text>
 <text class="TextShape"><tspan class="TextParagraph" font-family="Liberation Sans, sans-serif" font-size="353px" font-weight="400"><tspan class="TextPosition" x="1332" y="5406"><tspan fill="rgb(0,0,0)" stroke="none">29</tspan></tspan></tspan></text>
 <text class="TextShape"><tspan class="TextParagraph" font-family="Liberation Sans, sans-serif" font-size="353px" font-weight="400"><tspan class="TextPosition" x="1332" y="4770"><tspan fill="rgb(0,0,0)" stroke="none">30</tspan></tspan></tspan></text>
 <text class="TextShape"><tspan class="TextParagraph" font-family="Liberation Sans, sans-serif" font-size="353px" font-weight="400"><tspan class="TextPosition" x="1332" y="4135"><tspan fill="rgb(0,0,0)" stroke="none">31</tspan></tspan></tspan></text>
 <text class="TextShape"><tspan class="TextParagraph" font-family="Liberation Sans, sans-serif" font-size="353px" font-weight="400"><tspan class="TextPosition" x="1332" y="3500"><tspan fill="rgb(0,0,0)" stroke="none">32</tspan></tspan></tspan></text>
 <text class="TextShape"><tspan class="TextParagraph" font-family="Liberation Sans, sans-serif" font-size="353px" font-weight="400"><tspan class="TextPosition" x="1332" y="2864"><tspan fill="rgb(0,0,0)" stroke="none">33</tspan></tspan></tspan></text>
 <text class="TextShape"><tspan class="TextParagraph" font-family="Liberation Sans, sans-serif" font-size="353px" font-weight="400"><tspan class="TextPosition" x="1332" y="2229"><tspan fill="rgb(0,0,0)" stroke="none">34</tspan></tspan></tspan></text>
 <text class="TextShape"><tspan class="TextParagraph" font-family="Liberation Sans, sans-serif" font-size="353px" font-weight="400"><tspan class="TextPosition" x="1332" y="1594"><tspan fill="rgb(0,0,0)" stroke="none">35</tspan></tspan></tspan></text>
 <text class="TextShape"><tspan class="TextParagraph" font-family="Liberation Sans, sans-serif" font-size="459px" font-weight="400"><tspan class="TextPosition" x="4309" y="851"><tspan fill="rgb(0,0,0)" stroke="none">Kp = 800, Ki = 3, Kd = 0, Set point 33</tspan></tspan></tspan></text>
 <text class="TextShape"><tspan class="TextParagraph" font-family="Liberation Sans, sans-serif" font-size="318px" font-weight="400"><tspan class="TextPosition" x="7936" y="8405"><tspan fill="rgb(0,0,0)" stroke="none">Time (s)</tspan></tspan></tspan></text>
 <text class="TextShape" transform="translate(837,6144) rotate(-90) translate(-837,-6144)"><tspan class="TextParagraph" font-family="Liberation Sans, sans-serif" font-size="318px" font-weight="400"><tspan class="TextPosition" x="837" y="6144"><tspan fill="rgb(0,0,0)" stroke="none">Temperature (Celsius)</tspan></tspan></tspan></text>
</svg>