<?xml version="1.0" encoding="UTF-8"?>
<!DOCTYPE svg PUBLIC "-//W3C//DTD SVG 1.1//EN" "http://www.w3.org/Graphics/SVG/1.1/DTD/svg11.dtd">
<svg width="160mm" height="90mm" viewBox="0 0 16000 9000" version="1.1" xmlns="http://www.w3.org/2000/svg" stroke-width="28.222" stroke-linejoin="round" xml:space="preserve">
 <path fill="rgb(255,255,255)" stroke="none" d="M 8000,8999 L 0,8999 0,0 15999,0 15999,8999 8000,8999 Z"/>
 <path fill="none" stroke="rgb(179,179,179)" stroke-linejoin="round" d="M 8629,7191 L 1952,7191 1952,1474 15307,1474 15307,7191 8629,7191 Z"/>
 <path fill="none" stroke="rgb(179,179,179)" stroke-linejoin="round" d="M 15307,7190 L 1952,7190"/>
 <path fill="none" stroke="rgb(179,179,179)" stroke-linejoin="round" d="M 15307,6373 L 1952,6373"/>
 <path fill="none" stroke="rgb(179,179,179)" stroke-linejoin="round" d="M 15307,5556 L 1952,5556"/>
 <path fill="none" stroke="rgb(179,179,179)" stroke-linejoin="round" d="M 15307,4739 L 1952,4739"/>
 <path fill="none" stroke="rgb(179,179,179)" stroke-linejoin="round" d="M 15307,3923 L 1952,3923"/>
 <path fill="none" stroke="rgb(179,179,179)" stroke-linejoin="round" d="M 15307,3106 L 1952,3106"/>
 <path fill="none" stroke="rgb(179,179,179)" stroke-linejoin="round" d="M 15307,2289 L 1952,2289"/>
 <path fill="none" stroke="rgb(179,179,179)" stroke-linejoin="round" d="M 15307,1473 L 1952,1473"/>
 <path fill="none" stroke="rgb(179,179,179)" stroke-linejoin="round" d="M 1952,7340 L 1952,7190"/>
 <path fill="none" stroke="rgb(179,179,179)" stroke-linejoin="round" d="M 1952,7340 L 1952,7190"/>
 <path fill="none" stroke="rgb(179,179,179)" stroke-linejoin="round" d="M 4178,7340 L 4178,7190"/>
 <path fill="none" stroke="rgb(179,179,179)" stroke-linejoin="round" d="M 4178,7340 L 4178,7190"/>
 <path fill="none" stroke="rgb(179,179,179)" stroke-linejoin="round" d="M 6404,7340 L 6404,7190"/>
 <path fill="none" stroke="rgb(179,179,179)" stroke-linejoin="round" d="M 6404,7340 L 6404,7190"/>
 <path fill="none" stroke="rgb(179,179,179)" stroke-linejoin="round" d="M 8629,7340 L 8629,7190"/>
 <path fill="none" stroke="rgb(179,179,179)" stroke-linejoin="round" d="M 8629,7340 L 8629,7190"/>
 <path fill="none" stroke="rgb(179,179,179)" stroke-linejoin="round" d="M 10855,7340 L 10855,7190"/>
 <path fill="none" stroke="rgb(179,179,179)" stroke-linejoin="round" d="M 10855,7340 L 10855,7190"/>
 <path fill="none" stroke="rgb(179,179,179)" stroke-linejoin="round" d="M 13080,7340 L 13080,7190"/>
 <path fill="none" stroke="rgb(179,179,179)" stroke-linejoin="round" d="M 13080,7340 L 13080,7190"/>
 <path fill="none" stroke="rgb(179,179,179)" stroke-linejoin="round" d="M 15307,7340 L 15307,7190"/>
 <path fill="none" stroke="rgb(179,179,179)" stroke-linejoin="round" d="M 15307,7340 L 15307,7190"/>
 <path fill="none" stroke="rgb(179,179,179)" stroke-linejoin="round" d="M 1952,7190 L 15307,7190"/>
 <path fill="none" stroke="rgb(179,179,179)" stroke-linejoin="round" d="M 1802,7190 L 1952,7190"/>
 <path fill="none" stroke="rgb(179,179,179)" stroke-linejoin="round" d="M 1802,7190 L 1952,7190"/>
 <path fill="none" stroke="rgb(179,179,179)" stroke-linejoin="round" d="M 1802,6373 L 1952,6373"/>
 <path fill="none" stroke="rgb(179,179,179)" stroke-linejoin="round" d="M 1802,6373 L 1952,6373"/>
 <path fill="none" stroke="rgb(179,179,179)" stroke-linejoin="round" d="M 1802,5556 L 1952,5556"/>
 <path fill="none" stroke="rgb(179,179,179)" stroke-linejoin="round" d="M 1802,5556 L 1952,5556"/>
 <path fill="none" stroke="rgb(179,179,179)" stroke-linejoin="round" d="M 1802,4739 L 1952,4739"/>
 <path fill="none" stroke="rgb(179,179,179)" stroke-linejoin="round" d="M 1802,4739 L 1952,4739"/>
 <path fill="none" stroke="rgb(179,179,179)" stroke-linejoin="round" d="M 1802,3923 L 1952,3923"/>
 <path fill="none" stroke="rgb(179,179,179)" stroke-linejoin="round" d="M 1802,3923 L 1952,3923"/>
 <path fill="none" stroke="rgb(179,179,179)" stroke-linejoin="round" d="M 1802,3106 L 1952,3106"/>
 <path fill="none" stroke="rgb(179,179,179)" stroke-linejoin="round" d="M 1802,3106 L 1952,3106"/>
 <path fill="none" stroke="rgb(179,179,179)" stroke-linejoin="round" d="M 1802,2289 L 1952,2289"/>
 <path fill="none" stroke="rgb(179,179,179)" stroke-linejoin="round" d="M 1802,2289 L 1952,2289"/>
 <path fill="none" stroke="rgb(179,179,179)" stroke-linejoin="round" d="M 1802,1473 L 1952,1473"/>
 <path fill="none" stroke="rgb(179,179,179)" stroke-linejoin="round" d="M 1802,1473 L 1952,1473"/>
 <path fill="none" stroke="rgb(179,179,179)" stroke-linejoin="round" d="M 1952,7190 L 1952,1473"/>
 <path fill="none" stroke="rgb(0,69,134)" stroke-width="80" stroke-linejoin="round" d="M 1952,6522 L 1956,6321 1960,6502 1965,6382 1969,6602 1974,6382 1978,6522 1983,6422 1987,6402 1992,6201 1996,6502 2000,6642 2009,6462 2014,6321 2018,6301 2023,6642 2027,6582 2032,6301 2036,6382 2041,6321 2045,6522 2049,6382 2054,6482 2058,6362 2063,6382 2072,6502 2076,6402 2081,6522 2085,6562 2090,6382 2094,6502 2098,6602 2103,6602 2107,6482 2112,6301 2116,6542 2121,6321 2125,6382 2130,6341 2134,6442 2143,6341 2147,6301 2152,6662 2156,6502 2161,6301 2165,6382 2170,6442 2174,6362 2179,6442 2183,6101 2187,6362 2192,6402 2196,6362 2201,6362 2205,6402 2210,6221 2214,6241 2219,6321 2223,6301 2228,6341 2232,6061 2236,6261 2241,6261 2245,6221 2250,6362 2254,6201 2263,6362 2268,6021 2272,6041 2276,6081 2281,6321 2285,6061 2290,6201 2299,6081 2303,6341 2308,6061 2312,6081 2321,6181 2325,6121 2330,6001 2334,6201 2339,5900 2343,6021 2348,6121 2352,5900 2361,5961 2366,6101 2370,6021 2374,5961 2379,5900 2383,5740 2388,5880 2392,5860 2401,6021 2406,5780 2410,5740 2415,5880 2419,5740 2423,5860 2428,5880 2432,5580 2437,5740 2441,5640 2446,5720 2450,5620 2455,5700 2459,5640 2463,5620 2468,5500 2472,5460 2477,5640 2481,5580 2486,5419 2490,5840 2495,5720 2499,5419 2504,5500 2508,5339 2512,5500 2517,5439 2521,5460 2526,5520 2530,5419 2535,5379 2539,5460 2544,5339 2548,5520 2553,5419 2557,5399 2566,5379 2570,5439 2575,5540 2579,5399 2584,5259 2588,5219 2593,5099 2597,5279 2601,5219 2606,5239 2610,5139 2615,5099 2619,5019 2624,5079 2628,5019 2633,5079 2637,5159 2642,5159 2650,4938 2655,4999 2659,5119 2664,5079 2668,4798 2673,5039 2682,4778 2686,4718 2691,5079 2695,4778 2699,4818 2704,4738 2708,4698 2713,5139 2717,4698 2722,4638 2726,4778 2731,4658 2735,4537 2740,4838 2744,4718 2748,4758 2753,4578 2757,4758 2762,4498 2766,4458 2771,4478 2775,4458 2780,4598 2784,4537 2788,4598 2793,4498 2797,4298 2802,4438 2806,4338 2811,4298 2815,4218 2820,4338 2829,4418 2833,4398 2837,4218 2842,4438 2846,4418 2851,4238 2860,4158 2864,4178 2873,4098 2882,3997 2886,3977 2891,4278 2895,3897 2900,4278 2904,3997 2909,4238 2913,4017 2918,3977 2922,3997 2926,4077 2931,3897 2935,3737 2940,3937 2944,3837 2949,4017 2953,3857 2958,3657 2962,3817 2967,3797 2971,3877 2975,3697 2984,3797 2989,3657 2993,3757 2998,3677 3002,3877 3007,3677 3011,3877 3016,3797 3020,3657 3024,3616 3029,3416 3033,3496 3038,3657 3042,3416 3047,3717 3051,3536 3056,3556 3060,3256 3065,3336 3069,3476 3073,3175 3078,3636 3082,3556 3087,3336 3091,3336 3096,3476 3100,3155 3105,3476 3109,3095 3113,3175 3118,3115 3122,3256 3127,3396 3131,3196 3136,3296 3145,3256 3149,3155 3154,3236 3158,2855 3162,3175 3167,2895 3171,3135 3176,3055 3180,3035 3189,2855 3194,3216 3198,2995 3203,2995 3207,2614 3211,2895 3216,2935 3220,2995 3225,2714 3229,2815 3234,2714 3238,2694 3243,2835 3247,2694 3256,2694 3260,2634 3265,2654 3269,2955 3274,2574 3278,2855 3283,2534 3287,2454 3292,2374 3296,2474 3300,2895 3305,2674 3309,2674 3318,2734 3323,2534 3327,2414 3332,2594 3336,2374 3341,2574 3345,2374 3349,2594 3354,2594 3358,2474 3363,2374 3367,2514 3372,2374 3376,2273 3381,2474 3385,2354 3389,2253 3394,2594 3398,2213 3403,2253 3407,2354 3412,2554 3416,2233 3421,2153 3425,2354 3430,2374 3434,2073 3438,2514 3443,2213 3447,2213 3452,2273 3456,2434 3461,2153 3465,2253 3470,2173 3474,2354 3479,2093 3483,2073 3487,2053 3492,2093 3496,2193 3501,2314 3505,2314 3510,2133 3514,1973 3519,2053 3523,2193 3528,2093 3532,2133 3536,2053 3541,2093 3545,2053 3550,2213 3554,2073 3559,2053 3568,2093 3572,2053 3576,1973 3581,2273 3585,1973 3590,2273 3594,1732 3599,2053 3603,1973 3608,2193 3612,2193 3617,1973 3625,2354 3630,1893 3634,2153 3639,1953 3643,1893 3648,2193 3652,2073 3657,2093 3661,2033 3666,1732 3670,2133 3674,1973 3679,1832 3683,1832 3688,2033 3692,1873 3697,1933 3701,1853 3706,1933 3710,2193 3714,1772 3719,1893 3723,1893 3728,1973 3732,2153 3737,1893 3741,2053 3746,2033 3750,1732 3755,2033 3759,1973 3763,2233 3768,1853 3772,2053 3777,1893 3781,2053 3786,1732 3790,2113 3795,2013 3799,2354 3804,1832 3808,2093 3812,2133 3817,2173 3821,2213 3826,1873 3830,2113 3835,2033 3839,2093 3844,1732 3848,1973 3853,2053 3857,1873 3861,1893 3866,1953 3870,1893 3875,2093 3879,1893 3884,2053 3888,2273 3893,2093 3897,1893 3901,2093 3906,2273 3910,2153 3915,1953 3919,2113 3924,1893 3928,1933 3933,2173 3937,2314 3942,2354 3946,2113 3950,1933 3955,2193 3959,2113 3964,1893 3968,2053 3973,2173 3977,2314 3982,2093 3986,2253 3991,2093 3995,1973 3999,2053 4004,2354 4008,2273 4013,2053 4017,2354 4022,2273 4026,2153 4031,2334 4035,1832 4039,2233 4044,2273 4048,2093 4053,2354 4057,2253 4062,2053 4066,2354 4075,2093 4080,2133 4084,2354 4088,2213 4093,2294 4097,2073 4102,2233 4106,2273 4111,2133 4115,2434 4120,2213 4124,2314 4129,2253 4133,2273 4137,2374 4142,2474 4146,2374 4151,2354 4155,2374 4160,2514 4164,2314 4169,2053 4173,2594 4178,2073 4182,2674 4186,2394 4191,2213 4195,2634 4200,2574 4204,2294 4209,2374 4213,2674 4218,2574 4222,2534 4226,2374 4231,2414 4235,2634 4240,2374 4244,2414 4249,2394 4253,2594 4258,2414 4262,2674 4267,2554 4271,2674 4280,2494 4284,2654 4289,2835 4293,2714 4298,2534 4302,2734 4307,2494 4311,2534 4316,2835 4320,2654 4324,2835 4329,2534 4333,2454 4338,2614 4342,2534 4347,2915 4351,2755 4356,2835 4360,2574 4364,2995 4369,2815 4373,2534 4378,2734 4382,2835 4387,2694 4391,2835 4396,2955 4400,2554 4405,2835 4409,2975 4413,2694 4418,2634 4422,2895 4427,2955 4431,2995 4436,2995 4440,2975 4445,2694 4449,2995 4454,3015 4458,2995 4462,2694 4467,2815 4471,2694 4476,3015 4480,2775 4485,2955 4489,2855 4502,3155 4507,2855 4511,3015 4516,3236 4520,3216 4525,3055 4529,3015 4534,3216 4538,3236 4543,3015 4547,3236 4551,3276 4556,3055 4560,3236 4565,3316 4569,3035 4574,3216 4578,3276 4583,3396 4587,3095 4592,3296 4596,3196 4600,3055 4605,3236 4609,3095 4614,3436 4618,3095 4623,3356 4627,3316 4632,3356 4636,3055 4641,3236 4645,3436 4649,3175 4654,3216 4658,3416 4663,3216 4667,3175 4672,3396 4676,3556 4681,3556 4689,3376 4694,3416 4698,3236 4703,3175 4707,3616 4712,3556 4716,3376 4721,3476 4725,3496 4730,3436 4734,3376 4738,3196 4743,3416 4747,3356 4752,3456 4756,3416 4761,3216 4765,3496 4770,3657 4774,3456 4779,3536 4787,3376 4792,3536 4796,3456 4801,3476 4805,3416 4810,3476 4814,3616 4819,3536 4823,3636 4827,3556 4832,3416 4836,3636 4841,3717 4845,3416 4850,3516 4854,3636 4859,3356 4863,3636 4868,3536 4872,3877 4876,3536 4881,3396 4885,3837 4890,3857 4894,3877 4899,3657 4903,3516 4908,3797 4912,3516 4917,3777 4921,3636 4925,3536 4930,3797 4934,3576 4939,3636 4943,3657 4948,3416 4952,3717 4957,3496 4961,3476 4966,3356 4970,3657 4974,3757 4979,3857 4983,3877 4988,3416 4992,3496 4997,3496 5001,3877 5006,3757 5010,3797 5014,3657 5019,3877 5023,3677 5028,3717 5032,3616 5037,3697 5041,3416 5046,3877 5050,3857 5055,3797 5059,3657 5063,3797 5068,3877 5072,3677 5077,3616 5081,3697 5086,3717 5090,3797 5095,3817 5099,3496 5104,3797 5108,3657 5112,3536 5117,3516 5121,3416 5126,3516 5130,3536 5135,3576 5139,3456 5144,3797 5148,3496 5152,3616 5157,3456 5161,3536 5166,3516 5170,3496 5175,3937 5179,3476 5184,3516 5188,3757 5193,3416 5197,3757 5201,3697 5206,3516 5210,3356 5215,3636 5219,3616 5224,3717 5228,3536 5233,3416 5237,3717 5242,3416 5246,3536 5250,3496 5255,3416 5259,3636 5264,3396 5268,3516 5273,3636 5277,3556 5282,3376 5286,3416 5291,3336 5295,3356 5299,3636 5304,3336 5308,3616 5313,3336 5317,3356 5322,3416 5326,3476 5331,3336 5335,3677 5339,3596 5344,3256 5348,3476 5353,3556 5357,3476 5362,3296 5366,3296 5371,3216 5375,3276 5380,3196 5384,3256 5393,3316 5397,3115 5402,3175 5406,3336 5411,3256 5415,3396 5420,3175 5424,3216 5429,3175 5437,3356 5442,3556 5446,3296 5451,3095 5460,3316 5464,3276 5469,3196 5473,3095 5477,3055 5482,3296 5486,3316 5491,3316 5495,3236 5500,3015 5504,3175 5509,3296 5513,3175 5518,3396 5522,3155 5526,3296 5531,3055 5535,3015 5540,2855 5544,3276 5549,3196 5553,3015 5558,3155 5562,3015 5567,3055 5571,3075 5575,3316 5580,3216 5584,3075 5589,3075 5593,3015 5598,3055 5602,3035 5607,3155 5615,3015 5620,2815 5624,3196 5629,3155 5633,2895 5638,3175 5642,3015 5647,2775 5651,2815 5656,2775 5660,2995 5664,2734 5669,2795 5673,2995 5678,2975 5682,2795 5687,2935 5691,2855 5696,2995 5700,2975 5705,2775 5709,2995 5713,2775 5718,2855 5727,2815 5731,2895 5736,2755 5740,2995 5749,2815 5754,2714 5758,2955 5762,2995 5767,2995 5771,2835 5776,2995 5780,2734 5785,2694 5794,2855 5798,2694 5802,2734 5807,2795 5811,2694 5816,2955 5820,2694 5825,2995 5834,2995 5838,2835 5843,2454 5847,2995 5856,2835 5860,2574 5865,2975 5869,2895 5874,2955 5878,2534 5883,2574 5887,2694 5892,2734 5896,2694 5900,2594 5905,2454 5909,2694 5914,2875 5918,2734 5927,2714 5932,2795 5936,2694 5940,2955 5945,2734 5949,2614 5958,2694 5963,2734 5967,2755 5972,2614 5976,2915 5981,2594 5985,2915 5989,2875 5994,2614 5998,2694 6003,2795 6007,2694 6012,2614 6016,2795 6021,2835 6025,2454 6030,2654 6034,2694 6038,2614 6043,2995 6047,2875 6052,2895 6056,2714 6061,2694 6070,2915 6074,2674 6079,2694 6083,2714 6087,2915 6092,2694 6096,2674 6101,2895 6105,2755 6110,2694 6114,2995 6119,2574 6123,2915 6127,2694 6132,2895 6136,2694 6141,2454 6145,2694 6150,2835 6154,2795 6159,2835 6163,2775 6168,2835 6172,2574 6176,2955 6181,2835 6185,2875 6190,2995 6194,2694 6199,2995 6203,2694 6208,2855 6212,2915 6217,2694 6221,2734 6225,2795 6230,2694 6234,2995 6239,2755 6243,2975 6248,2875 6252,2895 6257,2734 6261,2714 6265,2835 6270,2775 6274,2995 6279,2775 6288,2995 6297,2694 6301,2895 6306,2835 6310,2975 6314,2855 6319,2815 6323,2614 6328,2995 6341,2935 6346,2995 6350,2815 6355,2995 6359,2955 6363,3015 6368,3055 6372,2995 6381,3035 6386,2995 6390,3015 6395,3015 6399,2995 6404,2855 6408,2995 6412,2775 6417,3155 6421,2795 6426,2995 6430,2775 6435,2734 6439,2995 6444,3155 6448,3055 6452,3236 6457,2855 6461,2915 6466,3175 6470,2795 6475,3155 6479,3055 6484,2815 6488,3196 6493,3015 6506,3015 6510,3236 6515,3155 6519,3015 6524,3196 6528,3035 6533,3015 6537,3155 6542,3015 6546,2855 6550,3216 6555,3155 6559,3015 6568,3035 6573,3396 6577,3296 6582,3396 6586,3316 6590,3276 6599,3316 6604,3095 6608,2995 6613,3296 6617,3115 6622,3396 6626,3095 6631,3476 6635,3456 6639,3296 6644,3296 6648,3196 6653,3276 6657,3356 6662,3296 6666,3095 6671,3135 6675,3015 6680,3095 6684,3216 6688,3436 6693,3216 6697,3196 6702,3416 6706,3316 6711,3476 6715,3316 6720,3356 6724,3396 6728,3256 6733,3336 6737,3175 6742,3196 6746,3175 6751,3396 6755,3536 6760,3376 6764,3576 6769,3336 6773,3436 6777,3236 6782,3436 6791,3636 6795,3336 6800,3556 6804,3336 6809,3416 6813,3276 6818,3376 6822,3556 6831,3396 6835,3556 6840,3336 6849,3376 6853,3296 6858,3436 6862,3636 6867,3496 6871,3336 6875,3536 6880,3456 6884,3336 6889,3356 6893,3336 6898,3396 6902,3336 6907,3636 6911,3616 6915,3616 6920,3456 6924,3196 6929,3476 6933,3336 6942,3596 6947,3717 6951,3336 6956,3636 6960,3436 6964,3496 6969,3556 6973,3556 6978,3697 6982,3556 6987,3556 6991,3576 6996,3556 7000,3336 7005,3456 7009,3376 7013,3636 7018,3336 7022,3416 7027,3436 7031,3496 7036,3436 7040,3536 7045,3436 7049,3356 7053,3396 7058,3336 7062,3456 7067,3616 7071,3556 7076,3356 7080,3556 7085,3436 7089,3336 7094,3616 7098,3416 7102,3356 7107,3336 7111,3596 7116,3636 7120,3476 7125,3516 7129,3376 7134,3216 7138,3396 7143,3516 7147,3556 7151,3336 7156,3256 7160,3476 7165,3596 7169,3336 7174,3516 7178,3316 7183,3556 7187,3356 7192,3476 7196,3516 7200,3476 7205,3296 7209,3336 7214,3476 7218,3376 7223,3276 7227,3396 7232,3396 7236,3276 7240,3175 7245,3556 7249,3336 7258,3336 7263,3115 7267,3095 7272,3196 7276,3336 7281,3216 7285,3175 7289,3436 7294,3196 7298,3316 7303,3216 7307,3175 7316,3316 7321,3216 7325,3316 7330,3296 7343,3476 7347,3196 7352,3015 7356,3376 7361,3256 7365,3316 7370,3095 7378,3115 7383,3276 7392,3175 7396,3015 7401,3276 7405,3115 7410,3276 7414,3396 7419,3216 7423,3175 7427,3316 7432,3115 7436,3095 7441,3316 7445,3035 7450,2995 7454,3256 7459,3095 7463,3296 7468,3015 7476,3055 7481,3196 7485,3316 7490,3155 7494,3236 7499,3115 7503,2995 7508,3155 7512,3015 7517,3075 7521,3055 7525,3196 7530,3015 7534,2955 7539,3236 7543,3015 7548,3015 7552,2775 7557,3015 7561,3196 7565,3055 7570,3155 7574,3015 7579,3035 7583,3015 7588,2734 7592,3236 7597,3015 7601,3095 7606,2995 7614,3015 7619,2875 7623,3115 7628,3155 7632,3015 7641,3155 7646,2955 7650,2995 7655,2975 7659,3035 7663,2995 7672,2835 7677,2935 7681,2975 7686,2855 7690,3055 7695,2775 7699,3135 7703,2955 7708,2995 7712,3015 7717,2955 7721,2694 7726,2734 7730,2935 7735,2995 7739,2995 7748,2855 7752,2694 7757,2775 7761,2755 7766,2995 7770,2855 7775,2995 7779,2875 7784,2775 7788,2734 7793,2895 7797,2694 7801,2955 7806,2714 7810,2694 7815,2815 7819,2995 7824,2815 7828,2935 7833,2875 7837,2895 7841,2775 7846,2734 7850,2995 7855,2714 7859,2855 7864,2995 7868,2815 7873,3055 7877,2855 7882,2875 7886,2734 7890,2995 7895,3015 7899,2995 7904,2995 7908,2875 7913,2895 7917,2955 7922,2714 7926,2815 7931,2875 7935,2835 7939,2795 7944,2995 7948,2614 7953,2915 7957,2714 7962,2955 7966,2775 7971,2694 7975,2995 7980,2895 7984,2995 7988,2915 7993,2975 7997,2775 8001,3015 8005,2995 8010,2734 8014,2734 8019,2995 8023,2855 8027,2895 8032,2835 8041,2995 8045,2935 8050,2855 8054,2995 8063,2795 8068,2795 8072,2995 8076,3015 8081,3055 8085,2995 8094,2895 8099,2915 8103,2995 8108,2955 8112,2815 8117,2795 8121,2915 8125,2995 8130,2815 8134,3135 8139,2995 8143,2955 8148,2795 8152,2915 8157,3015 8161,2775 8165,2935 8170,2995 8174,3035 8179,2855 8183,2835 8188,2995 8192,2875 8197,3075 8201,3015 8206,2975 8210,2835 8214,2995 8219,3115 8223,2915 8228,2775 8232,2855 8241,3015 8246,2855 8250,3236 8255,2995 8259,3236 8263,2975 8272,3055 8277,3015 8286,3075 8290,2935 8295,2795 8299,3316 8304,3236 8308,3015 8317,3015 8321,2795 8326,3236 8330,3236 8335,3196 8339,3015 8344,3055 8348,2995 8352,3276 8357,3276 8361,3015 8366,3135 8370,3055 8375,3236 8379,3175 8384,3015 8388,3316 8397,2975 8401,3115 8406,3155 8410,3216 8415,3155 8419,3095 8424,3155 8428,3055 8433,3015 8437,3015 8442,3175 8446,3316 8450,3155 8455,3035 8459,3135 8464,3015 8468,3095 8473,3035 8477,3276 8482,3015 8486,3316 8490,3055 8495,3276 8499,3015 8504,3175 8508,3035 8513,3196 8517,3316 8522,3095 8535,3015 8539,3175 8544,3055 8548,3095 8553,3055 8557,3316 8562,3636 8566,3236 8571,3035 8575,3055 8580,3396 8584,3095 8588,3296 8597,3175 8602,3175 8606,3236 8615,3196 8620,3236 8624,3316 8629,3296 8633,3256 8637,3175 8642,3276 8646,3055 8651,3396 8655,3236 8660,3175 8664,3396 8669,3336 8673,3436 8677,3115 8682,3236 8686,3175 8691,3216 8695,3476 8700,3476 8704,3416 8709,3035 8713,3135 8718,3316 8722,3276 8726,3296 8731,3236 8735,3316 8740,3256 8744,3276 8749,3316 8753,3175 8758,3256 8762,3276 8767,3175 8775,3356 8780,3476 8784,3256 8789,3196 8793,3115 8798,3536 8802,3236 8807,3416 8811,3175 8815,3276 8820,3175 8824,3396 8829,3015 8833,3216 8838,3175 8842,3336 8847,3316 8851,3536 8856,3436 8860,3216 8864,3095 8869,3196 8873,3456 8878,3396 8882,3476 8887,3256 8891,3216 8896,3436 8900,3456 8905,3216 8909,3396 8913,3135 8918,3256 8922,3416 8927,3175 8931,3376 8936,3115 8940,3296 8945,3476 8949,3175 8953,3256 8958,3416 8962,3436 8967,3175 8971,3436 8976,3376 8980,3256 8985,3095 8989,3175 8994,3316 8998,3476 9002,3256 9011,3216 9016,3175 9020,3336 9025,3236 9029,3135 9034,3376 9038,3276 9043,3115 9047,3336 9051,3396 9056,3316 9060,3376 9065,3175 9069,3276 9074,3175 9078,3155 9083,3155 9087,3336 9092,3316 9096,3175 9100,3436 9105,3256 9109,3175 9114,3396 9118,3456 9123,3316 9127,3256 9132,3236 9136,3095 9140,3175 9145,3316 9149,3175 9154,3436 9158,3196 9163,3155 9167,3276 9172,3396 9176,3296 9181,3276 9185,3095 9189,3436 9194,3256 9198,3276 9203,3095 9207,3095 9212,3175 9216,3095 9221,3296 9225,3155 9230,3216 9234,3015 9238,3336 9243,3175 9247,3316 9252,3216 9256,3296 9261,3035 9265,3155 9270,3175 9274,3175 9278,3155 9283,3175 9287,3276 9292,3236 9296,3276 9301,3015 9310,3115 9314,3356 9319,3155 9323,2975 9327,3316 9332,3055 9336,3035 9341,3155 9345,3316 9350,3155 9354,3015 9359,3015 9363,3236 9368,3155 9372,3015 9376,3075 9381,3316 9385,3015 9394,3236 9399,3015 9403,3236 9408,3055 9412,3216 9417,3476 9421,2995 9425,3015 9434,3135 9439,3175 9443,3015 9448,3196 9452,3155 9457,3015 9465,3015 9470,3115 9474,3175 9479,3155 9483,3015 9497,3095 9501,3015 9510,2775 9514,3135 9519,3035 9523,2995 9528,3155 9532,3015 9537,2995 9546,3236 9550,2995 9555,2955 9559,3236 9563,3075 9568,2995 9577,2775 9581,2875 9586,2995 9590,2955 9595,2855 9599,2955 9603,2895 9608,2935 9612,2714 9617,2995 9621,2795 9626,2995 9630,2975 9635,2955 9639,2995 9644,2935 9648,2855 9661,2775 9666,2955 9670,2855 9675,2975 9679,2995 9684,2955 9688,2995 9693,2855 9697,2915 9701,3155 9706,2714 9710,2895 9715,3236 9719,2915 9724,2775 9728,2734 9733,2915 9737,2995 9742,2694 9746,2875 9750,2995 9755,2855 9759,2935 9764,2995 9768,2855 9777,2775 9782,2895 9786,2694 9795,2895 9799,2995 9804,2855 9808,2855 9813,2995 9817,2694 9822,2995 9835,2835 9839,2995 9848,2694 9853,2935 9857,2995 9862,2975 9866,2855 9871,2975 9875,2935 9880,2855 9884,2995 9888,2875 9893,2775 9897,2955 9902,2875 9906,2995 9911,2955 9915,2915 9920,2955 9924,2995 9928,2875 9933,2895 9937,2875 9942,2855 9946,2955 9951,2734 9955,2855 9960,2855 9964,2995 9969,2855 9973,2534 9977,2775 9982,2855 9986,2915 9991,2995 9995,2795 10000,2815 10004,2995 10009,2694 10013,2975 10018,2714 10022,2835 10026,2775 10031,2614 10035,2714 10040,2995 10044,2694 10049,3055 10053,2694 10058,2815 10062,2995 10071,2815 10075,2734 10080,2895 10084,2775 10093,2995 10098,2995 10111,2775 10115,2855 10124,2855 10129,2995 10133,3155 10138,3015 10142,3316 10147,2775 10151,2995 10156,2815 10160,2875 10164,2995 10169,2935 10173,2855 10182,2995 10191,3115 10196,2855 10200,3015 10205,2734 10209,3236 10213,3015 10218,3236 10222,2935 10227,2955 10231,2875 10236,2855 10245,3015 10249,3155 10253,2995 10262,3055 10267,3115 10271,3055 10276,2995 10280,3155 10285,2875 10289,2875 10294,3015 10298,2775 10302,3236 10307,3075 10311,3135 10316,2995 10320,3155 10325,3015 10329,2935 10334,3155 10338,3055 10343,3316 10347,3115 10351,3015 10360,3015 10365,3035 10369,3015 10374,3075 10378,3015 10387,3115 10391,3015 10396,3155 10400,3075 10405,2855 10409,3035 10414,3015 10418,2995 10423,3196 10427,3095 10432,3175 10436,2855 10440,3236 10445,3075 10449,3095 10454,3175 10458,3316 10463,3135 10467,3075 10472,3095 10476,3276 10481,3456 10485,3015 10494,3095 10498,3035 10503,3396 10507,3316 10512,3236 10516,3015 10521,3316 10525,3316 10534,3175 10538,3276 10543,3316 10552,3276 10556,3316 10561,3436 10565,3316 10578,3155 10583,3216 10587,3095 10592,3296 10596,3216 10601,3196 10605,3175 10610,3316 10614,3155 10619,3175 10623,3276 10627,3055 10632,3115 10636,3095 10645,3216 10650,3376 10654,3035 10659,3155 10663,3396 10668,3175 10672,3216 10676,3476 10681,3115 10685,3256 10690,3196 10694,3216 10699,3256 10703,3316 10708,3256 10712,3376 10716,3015 10721,3175 10725,3396 10730,3296 10734,3175 10739,3216 10743,3456 10748,3175 10752,3396 10757,3336 10761,3095 10765,3115 10770,3436 10774,3175 10783,3175 10788,3556 10792,3316 10797,3175 10801,3095 10806,3476 10810,3316 10814,3115 10819,3396 10823,3316 10828,3175 10832,3135 10837,3316 10841,3276 10846,3175 10850,3476 10855,3135 10859,3236 10863,3155 10868,3436 10872,3336 10877,3356 10881,3476 10886,3216 10890,3336 10895,3256 10899,3035 10903,3175 10908,3396 10912,3356 10917,3376 10921,3175 10926,3316 10930,3296 10935,3296 10939,3436 10944,3256 10948,3336 10952,3175 10957,3216 10961,3196 10966,3256 10975,3476 10979,3356 10984,3155 10988,3516 10993,3316 10997,3336 11001,3456 11006,3536 11010,3436 11015,3356 11019,3296 11024,3075 11028,3115 11033,3115 11037,3396 11041,3476 11046,3456 11050,3196 11055,3376 11059,3236 11064,3636 11068,3356 11073,3316 11077,3436 11082,3196 11086,3175 11090,3055 11095,3436 11099,3296 11104,3276 11108,3316 11113,3296 11117,3216 11122,3095 11126,3095 11131,3175 11135,3296 11139,3376 11144,3316 11148,3276 11153,3276 11157,3356 11162,3396 11166,3396 11175,3316 11179,3095 11188,3015 11193,3316 11197,3175 11202,3095 11206,3476 11211,3015 11215,3055 11220,3236 11224,3055 11233,3175 11237,3396 11242,3155 11246,3015 11251,3055 11255,3316 11260,3055 11264,3115 11269,3055 11273,3095 11277,3396 11282,3296 11286,3015 11291,3055 11295,3276 11300,3015 11304,3115 11309,3155 11313,3216 11318,3135 11322,3216 11326,3015 11331,3015 11335,2995 11340,3196 11344,3115 11349,3035 11353,3276 11358,3196 11362,2775 11366,3236 11371,3035 11375,3175 11380,3296 11384,3055 11389,3015 11393,3155 11398,3196 11402,3015 11407,3216 11411,3236 11415,3035 11420,3015 11424,3236 11429,3015 11433,2855 11438,3015 11442,3115 11447,3175 11451,3015 11456,3015 11460,3035 11464,3015 11469,2775 11473,3015 11478,2995 11482,3015 11487,3035 11491,3015 11496,3055 11500,2995 11504,3015 11509,3035 11513,3015 11518,2895 11522,3055 11527,3316 11531,2955 11536,3155 11545,3115 11549,2855 11553,2995 11562,3055 11567,2935 11571,2855 11576,2995 11580,2855 11589,3015 11594,3015 11598,2975 11602,2855 11607,2855 11611,2995 11616,3015 11620,2935 11625,2855 11629,2875 11634,2995 11638,2855 11643,3015 11647,3135 11651,2955 11656,2895 11660,2995 11669,3015 11674,3015 11678,2694 11683,3316 11687,2995 11691,2935 11696,2955 11700,2995 11709,3015 11714,2995 11718,3015 11723,2975 11727,3015 11732,2995 11736,2694 11740,3316 11745,3015 11749,2995 11754,2955 11758,3276 11763,2995 11767,3035 11772,2995 11776,2955 11781,2995 11785,2855 11789,2995 11798,3015 11803,2855 11807,3155 11812,3155 11821,3236 11825,3015 11829,3196 11834,3095 11838,2935 11843,2694 11847,2855 11852,2855 11856,3115 11861,2995 11865,3135 11870,2855 11874,3015 11878,3015 11883,2895 11887,2995 11892,2855 11896,2935 11901,3015 11905,3115 11910,2995 11914,2855 11919,3115 11923,3155 11927,2995 11932,3155 11936,2995 11941,2935 11945,3055 11950,2995 11954,2875 11959,3055 11963,3035 11968,2995 11972,3276 11976,3015 11981,2935 11985,3115 11990,3015 12003,3095 12008,2995 12012,3015 12016,2855 12021,3216 12025,3276 12030,3015 12039,3155 12043,3015 12048,3196 12052,3035 12057,2775 12061,3015 12070,2995 12074,2775 12079,3015 12083,3135 12088,3276 12092,3196 12097,3015 12101,3316 12106,3015 12114,3015 12119,3175 12123,2775 12128,2855 12132,3095 12137,3236 12141,3015 12150,2855 12154,3476 12159,3015 12163,3035 12168,3236 12172,2775 12177,3236 12181,3115 12186,2995 12190,2895 12195,3015 12203,3236 12208,3035 12212,3196 12217,3155 12221,3236 12226,3035 12230,3055 12235,3015 12239,3155 12244,3015 12248,3196 12252,3015 12261,3155 12266,3296 12270,3216 12275,3276 12279,2855 12284,3236 12288,3316 12292,3035 12297,3015 12301,3316 12306,3015 12315,2875 12319,3316 12324,3035 12328,3015 12333,3216 12337,3055 12341,3175 12346,3035 12350,3135 12355,3236 12359,3155 12364,3095 12368,3015 12373,3196 12377,3055 12382,3196 12386,3015 12395,3316 12399,3055 12404,3175 12408,3316 12413,3055 12417,2795 12422,3196 12426,3236 12431,3015 12439,3035 12444,3236 12448,3216 12453,3095 12457,3175 12462,3316 12466,3396 12471,3316 12475,3055 12484,3015 12488,3476 12493,3316 12497,3075 12502,3316 12511,3015 12520,3236 12524,3276 12528,3115 12533,3276 12537,3216 12542,3556 12546,3175 12551,3296 12555,3216 12560,3015 12564,3015 12573,3316 12577,3055 12582,3316 12586,3175 12591,3095 12595,3095 12600,3196 12604,3015 12609,3035 12613,3316 12617,3135 12622,3095 12626,3175 12631,3276 12635,3316 12640,3216 12644,3316 12649,3095 12653,3216 12658,3035 12662,3175 12666,3015 12671,3396 12675,3296 12680,3175 12684,3236 12689,3135 12693,3035 12698,3095 12702,3416 12707,3015 12711,3175 12715,3316 12720,3175 12724,3095 12729,3296 12733,3316 12738,3155 12742,3015 12747,3236 12751,3095 12756,3316 12760,3015 12773,3055 12778,3035 12782,3015 12787,3055 12791,3276 12796,3095 12800,3476 12804,3075 12813,3175 12818,3155 12822,3135 12827,3316 12836,3135 12840,3135 12845,3316 12849,3236 12853,3175 12858,3396 12862,3015 12867,3015 12871,3095 12876,3055 12880,3296 12885,3015 12889,3155 12894,3316 12898,3095 12902,3216 12907,3055 12911,3075 12916,3316 12920,3015 12925,3316 12929,3196 12934,3095 12938,3055 12942,3015 12951,3095 12956,3316 12960,3095 12965,3316 12969,3396 12974,3316 12978,3316 12983,3196 12987,3276 12991,3115 12996,3476 13000,3055 13005,3015 13009,2955 13014,3095 13018,3316 13023,3015 13027,3316 13032,3015 13040,2995 13045,3316 13049,3115 13054,2935 13058,3015 13067,3055 13072,3015 13081,3175 13085,3095 13089,3075 13098,3316 13103,3135 13107,3015 13112,3175 13116,3075 13121,3035 13125,3015 13129,3015 13138,3155 13143,3155 13147,3015 13156,3015 13161,2995 13165,3396 13170,2775 13174,3316 13178,3015 13183,3316 13187,3015 13192,3095 13196,3095 13201,3316 13205,2995 13210,3236 13214,3015 13219,3055 13223,3015 13232,2795 13236,3155 13241,3095 13245,3015 13250,3316 13254,3015 13259,3115 13263,3015 13267,3316 13276,3155 13281,3236 13285,3035 13290,3175 13294,2775 13299,3155 13303,3236 13308,3276 13312,2855 13316,3216 13321,3236 13325,3075 13330,3236 13334,3055 13339,3015 13348,3155 13352,3015 13361,3115 13365,3035 13370,3015 13374,3015 13383,3035 13388,3155 13392,3216 13397,3296 13401,3135 13405,3316 13410,3216 13414,2995 13419,3075 13423,3316 13428,3015 13432,3316 13437,3155 13441,3015 13446,3055 13450,3216 13454,3015 13459,3015 13472,3015 13486,3316 13490,3296 13495,3015 13499,3035 13503,3015 13508,3256 13512,3316 13517,3155 13521,3055 13526,3015 13530,2855 13535,3296 13539,3175 13544,3236 13548,3055 13552,3015 13557,3175 13561,3015 13566,3015 13579,3216 13588,3015 13592,3015 13597,3035 13601,3216 13606,3196 13610,3015 13615,3155 13619,3015 13624,3155 13628,3015 13633,3035 13637,3155 13646,3115 13650,3015 13655,3155 13659,3316 13664,3236 13668,3035 13673,3236 13677,3135 13682,2855 13686,3135 13690,3055 13695,3276 13699,3035 13704,3075 13708,3095 13713,3075 13717,3015 13722,3276 13726,3095 13730,2995 13735,3236 13739,3216 13744,3015 13748,3155 13753,3316 13757,3015 13766,3236 13771,3316 13775,3095 13779,3015 13784,3075 13788,3135 13793,3316 13797,3155 13802,3115 13806,3296 13811,3115 13815,2855 13820,3055 13824,3296 13828,3276 13833,3236 13837,3196 13842,3015 13851,3135 13855,3216 13860,3175 13864,3055 13869,3316 13873,3015 13882,3155 13886,3015 13895,3015 13900,3055 13904,3035 13909,3135 13917,3175 13922,3196 13926,3155 13931,3015 13935,3055 13940,3316 13944,3095 13949,3015 13953,3015 13958,3135 13962,3155 13966,3015 13971,3175 13975,3236 13980,3115 13984,3316 13989,3015 13993,3015 14002,3155 14007,3276 14011,3236 14015,3015 14020,3236 14024,3015 14029,3216 14033,3316 14038,3175 14042,3055 14047,3236 14051,3055 14055,3155 14060,3216 14064,3236 14069,3175 14073,3055 14082,3256 14087,3095 14091,3175 14096,3236 14100,3155 14104,3055 14109,3155 14113,2734 14118,2935 14122,3015 14127,3316 14131,2775 14136,3015 14140,3115 14145,3236 14149,3316 14153,3276 14158,3115 14162,2895 14167,3015 14171,3155 14176,3015 14180,3155 14185,3015 14189,2875 14194,2955 14198,3015 14202,2895 14207,3015 14211,3155 14216,3015 14220,3115 14225,3015 14234,2995 14238,2935 14242,3055 14247,2975 14251,3155 14256,3015 14265,3015 14269,3115 14274,3015 14278,3015 14283,3135 14287,3196 14291,2955 14296,3015 14309,2795 14314,3155 14318,3236 14323,3055 14327,3155 14336,3155 14340,3075 14345,3095 14349,3015 14363,3095 14367,2995 14372,3015 14376,2995 14385,3216 14389,3015 14394,3075 14398,3216 14403,3216 14407,3115 14412,3015 14416,3015 14421,2935 14425,2995 14429,3055 14434,3015 14438,3316 14443,3015 14447,3196 14452,3115 14456,3015 14461,3155 14465,3055 14470,3015 14474,2935 14478,3015 14487,3216 14492,3155 14496,3236 14501,3175 14505,2815 14510,2975 14514,2995 14518,3015 14527,3015 14536,2995 14541,3216 14545,3115 14550,3055 14554,3155 14559,3055 14563,3276 14567,3196 14572,3155 14576,2995 14581,2855 14585,2895 14590,3015 14594,3115 14599,2855 14603,2975 14608,2815 14612,3155 14616,2995 14621,3155 14625,3135 14630,2955 14634,2995 14639,2875 14643,2935 14648,2855 14652,3015 14657,2995 14665,2975 14670,2855 14679,2955 14683,3135 14688,3155 14692,2995 14697,2895 14701,2855 14705,2935 14710,3276 14714,3015 14719,3075 14723,3015 14728,2995 14732,3095 14737,2935 14741,2955 14746,3015 14750,2935 14754,3015 14759,2935 14763,2835 14768,3236"/>
 <text class="TextShape"><tspan class="TextParagraph" font-family="Liberation Sans, sans-serif" font-size="353px" font-weight="400"><tspan class="TextPosition" x="1859" y="7758"><tspan fill="rgb(0,0,0)" stroke="none">0</tspan></tspan></tspan></text>
 <text class="TextShape"><tspan class="TextParagraph" font-family="Liberation Sans, sans-serif" font-size="353px" font-weight="400"><tspan class="TextPosition" x="3900" y="7758"><tspan fill="rgb(0,0,0)" stroke="none">500</tspan></tspan></tspan></text>
 <text class="TextShape"><tspan class="TextParagraph" font-family="Liberation Sans, sans-serif" font-size="353px" font-weight="400"><tspan class="TextPosition" x="6033" y="7758"><tspan fill="rgb(0,0,0)" stroke="none">1000</tspan></tspan></tspan></text>
 <text class="TextShape"><tspan class="TextParagraph" font-family="Liberation Sans, sans-serif" font-size="353px" font-weight="400"><tspan class="TextPosition" x="8259" y="7758"><tspan fill="rgb(0,0,0)" stroke="none">1500</tspan></tspan></tspan></text>
 <text class="TextShape"><tspan class="TextParagraph" font-family="Liberation Sans, sans-serif" font-size="353px" font-weight="400"><tspan class="TextPosition" x="10485" y="7758"><tspan fill="rgb(0,0,0)" stroke="none">2000</tspan></tspan></tspan></text>
 <text class="TextShape"><tspan class="TextParagraph" font-family="Liberation Sans, sans-serif" font-size="353px" font-weight="400"><tspan class="TextPosition" x="12710" y="7758"><tspan fill="rgb(0,0,0)" stroke="none">2500</tspan></tspan></tspan></text>
 <text class="TextShape"><tspan class="TextParagraph" font-family="Liberation Sans, sans-serif" font-size="353px" font-weight="400"><tspan class="TextPosition" x="14937" y="7758"><tspan fill="rgb(0,0,0)" stroke="none">3000</tspan></tspan></tspan></text>
 <text class="TextShape"><tspan class="TextParagraph" font-family="Liberation Sans, sans-serif" font-size="353px" font-weight="400"><tspan class="TextPosition" x="1332" y="7311"><tspan fill="rgb(0,0,0)" stroke="none">24</tspan></tspan></tspan></text>
 <text class="TextShape"><tspan class="TextParagraph" font-family="Liberation Sans, sans-serif" font-size="353px" font-weight="400"><tspan class="TextPosition" x="1332" y="6494"><tspan fill="rgb(0,0,0)" stroke="none">25</tspan></tspan></tspan></text>
 <text class="TextShape"><tspan class="TextParagraph" font-family="Liberation Sans, sans-serif" font-size="353px" font-weight="400"><tspan class="TextPosition" x="1332" y="5677"><tspan fill="rgb(0,0,0)" stroke="none">26</tspan></tspan></tspan></text>
 <text class="TextShape"><tspan class="TextParagraph" font-family="Liberation Sans, sans-serif" font-size="353px" font-weight="400"><tspan class="TextPosition" x="1332" y="4860"><tspan fill="rgb(0,0,0)" stroke="none">27</tspan></tspan></tspan></text>
 <text class="TextShape"><tspan class="TextParagraph" font-family="Liberation Sans, sans-serif" font-size="353px" font-weight="400"><tspan class="TextPosition" x="1332" y="4043"><tspan fill="rgb(0,0,0)" stroke="none">28</tspan></tspan></tspan></text>
 <text class="TextShape"><tspan class="TextParagraph" font-family="Liberation Sans, sans-serif" font-size="353px" font-weight="400"><tspan class="TextPosition" x="1332" y="3226"><tspan fill="rgb(0,0,0)" stroke="none">29</tspan></tspan></tspan></text>
 <text class="TextShape"><tspan class="TextParagraph" font-family="Liberation Sans, sans-serif" font-size="353px" font-weight="400"><tspan class="TextPosition" x="1332" y="2409"><tspan fill="rgb(0,0,0)" stroke="none">30</tspan></tspan></tspan></text>
 <text class="TextShape"><tspan class="TextParagraph" font-family="Liberation Sans, sans-serif" font-size="353px" font-weight="400"><tspan class="TextPosition" x="1332" y="1593"><tspan fill="rgb(0,0,0)" stroke="none">31</tspan></tspan></tspan></text>
 <text class="TextShape"><tspan class="TextParagraph" font-family="Liberation Sans, sans-serif" font-size="459px" font-weight="400"><tspan class="TextPosition" x="4110" y="851"><tspan fill="rgb(0,0,0)" stroke="none">Kp = 800, Ki = 3, Kd = 0, Set point = 29</tspan></tspan></tspan></text>
 <text class="TextShape"><tspan class="TextParagraph" font-family="Liberation Sans, sans-serif" font-size="318px" font-weight="400"><tspan class="TextPosition" x="7936" y="8405"><tspan fill="rgb(0,0,0)" stroke="none">Time (s)</tspan></tspan></tspan></text>
 <text class="TextShape" transform="translate(837,6144) rotate(-90) translate(-837,-6144)"><tspan class="TextParagraph" font-family="Liberation Sans, sans-serif" font-size="318px" font-weight="400"><tspan class="TextPosition" x="837" y="6144"><tspan fill="rgb(0,0,0)" stroke="none">Temperature (Celsius)</tspan></tspan></tspan></text>
</svg>