<?xml version="1.0" encoding="UTF-8"?>
<!DOCTYPE svg PUBLIC "-//W3C//DTD SVG 1.1//EN" "http://www.w3.org/Graphics/SVG/1.1/DTD/svg11.dtd">
<svg width="160mm" height="90mm" viewBox="0 0 16000 9000" version="1.1" xmlns="http://www.w3.org/2000/svg" stroke-width="28.222" stroke-linejoin="round" xml:space="preserve">
 <path fill="rgb(255,255,255)" stroke="none" d="M 8000,8999 L 0,8999 0,0 15999,0 15999,8999 8000,8999 Z"/>
 <path fill="none" stroke="rgb(179,179,179)" stroke-linejoin="round" d="M 8775,7191 L 2243,7191 2243,1474 15307,1474 15307,7191 8775,7191 Z"/>
 <path fill="none" stroke="rgb(179,179,179)" stroke-linejoin="round" d="M 15307,7190 L 2243,7190"/>
 <path fill="none" stroke="rgb(179,179,179)" stroke-linejoin="round" d="M 15307,6475 L 2243,6475"/>
 <path fill="none" stroke="rgb(179,179,179)" stroke-linejoin="round" d="M 15307,5760 L 2243,5760"/>
 <path fill="none" stroke="rgb(179,179,179)" stroke-linejoin="round" d="M 15307,5045 L 2243,5045"/>
 <path fill="none" stroke="rgb(179,179,179)" stroke-linejoin="round" d="M 15307,4332 L 2243,4332"/>
 <path fill="none" stroke="rgb(179,179,179)" stroke-linejoin="round" d="M 15307,3617 L 2243,3617"/>
 <path fill="none" stroke="rgb(179,179,179)" stroke-linejoin="round" d="M 15307,2902 L 2243,2902"/>
 <path fill="none" stroke="rgb(179,179,179)" stroke-linejoin="round" d="M 15307,2187 L 2243,2187"/>
 <path fill="none" stroke="rgb(179,179,179)" stroke-linejoin="round" d="M 15307,1473 L 2243,1473"/>
 <path fill="none" stroke="rgb(179,179,179)" stroke-linejoin="round" d="M 2243,7340 L 2243,7190"/>
 <path fill="none" stroke="rgb(179,179,179)" stroke-linejoin="round" d="M 2243,7340 L 2243,7190"/>
 <path fill="none" stroke="rgb(179,179,179)" stroke-linejoin="round" d="M 4420,7340 L 4420,7190"/>
 <path fill="none" stroke="rgb(179,179,179)" stroke-linejoin="round" d="M 4420,7340 L 4420,7190"/>
 <path fill="none" stroke="rgb(179,179,179)" stroke-linejoin="round" d="M 6598,7340 L 6598,7190"/>
 <path fill="none" stroke="rgb(179,179,179)" stroke-linejoin="round" d="M 6598,7340 L 6598,7190"/>
 <path fill="none" stroke="rgb(179,179,179)" stroke-linejoin="round" d="M 8774,7340 L 8774,7190"/>
 <path fill="none" stroke="rgb(179,179,179)" stroke-linejoin="round" d="M 8774,7340 L 8774,7190"/>
 <path fill="none" stroke="rgb(179,179,179)" stroke-linejoin="round" d="M 10952,7340 L 10952,7190"/>
 <path fill="none" stroke="rgb(179,179,179)" stroke-linejoin="round" d="M 10952,7340 L 10952,7190"/>
 <path fill="none" stroke="rgb(179,179,179)" stroke-linejoin="round" d="M 13129,7340 L 13129,7190"/>
 <path fill="none" stroke="rgb(179,179,179)" stroke-linejoin="round" d="M 13129,7340 L 13129,7190"/>
 <path fill="none" stroke="rgb(179,179,179)" stroke-linejoin="round" d="M 15307,7340 L 15307,7190"/>
 <path fill="none" stroke="rgb(179,179,179)" stroke-linejoin="round" d="M 15307,7340 L 15307,7190"/>
 <path fill="none" stroke="rgb(179,179,179)" stroke-linejoin="round" d="M 2243,7190 L 15307,7190"/>
 <path fill="none" stroke="rgb(179,179,179)" stroke-linejoin="round" d="M 2093,7190 L 2243,7190"/>
 <path fill="none" stroke="rgb(179,179,179)" stroke-linejoin="round" d="M 2093,7190 L 2243,7190"/>
 <path fill="none" stroke="rgb(179,179,179)" stroke-linejoin="round" d="M 2093,6475 L 2243,6475"/>
 <path fill="none" stroke="rgb(179,179,179)" stroke-linejoin="round" d="M 2093,6475 L 2243,6475"/>
 <path fill="none" stroke="rgb(179,179,179)" stroke-linejoin="round" d="M 2093,5760 L 2243,5760"/>
 <path fill="none" stroke="rgb(179,179,179)" stroke-linejoin="round" d="M 2093,5760 L 2243,5760"/>
 <path fill="none" stroke="rgb(179,179,179)" stroke-linejoin="round" d="M 2093,5045 L 2243,5045"/>
 <path fill="none" stroke="rgb(179,179,179)" stroke-linejoin="round" d="M 2093,5045 L 2243,5045"/>
 <path fill="none" stroke="rgb(179,179,179)" stroke-linejoin="round" d="M 2093,4332 L 2243,4332"/>
 <path fill="none" stroke="rgb(179,179,179)" stroke-linejoin="round" d="M 2093,4332 L 2243,4332"/>
 <path fill="none" stroke="rgb(179,179,179)" stroke-linejoin="round" d="M 2093,3617 L 2243,3617"/>
 <path fill="none" stroke="rgb(179,179,179)" stroke-linejoin="round" d="M 2093,3617 L 2243,3617"/>
 <path fill="none" stroke="rgb(179,179,179)" stroke-linejoin="round" d="M 2093,2902 L 2243,2902"/>
 <path fill="none" stroke="rgb(179,179,179)" stroke-linejoin="round" d="M 2093,2902 L 2243,2902"/>
 <path fill="none" stroke="rgb(179,179,179)" stroke-linejoin="round" d="M 2093,2187 L 2243,2187"/>
 <path fill="none" stroke="rgb(179,179,179)" stroke-linejoin="round" d="M 2093,2187 L 2243,2187"/>
 <path fill="none" stroke="rgb(179,179,179)" stroke-linejoin="round" d="M 2093,1473 L 2243,1473"/>
 <path fill="none" stroke="rgb(179,179,179)" stroke-linejoin="round" d="M 2093,1473 L 2243,1473"/>
 <path fill="none" stroke="rgb(179,179,179)" stroke-linejoin="round" d="M 2243,7190 L 2243,1473"/>
 <path fill="none" stroke="rgb(0,69,134)" stroke-width="80" stroke-linejoin="round" d="M 2243,5322 L 2253,5234 2264,4883 2275,5848 2286,5497 2297,5322 2308,5234 2319,5936 2330,4971 2340,5059 2351,5146 2362,4971 2373,5322 2384,5760 2395,5936 2406,5322 2417,5059 2428,5146 2438,4796 2449,6199 2460,4971 2471,5497 2482,5585 2493,5146 2504,6199 2515,5936 2526,5234 2536,5497 2547,4270 2558,5497 2569,5059 2580,4796 2591,4971 2602,5059 2613,4620 2624,5673 2634,4270 2645,4708 2656,5936 2667,5760 2678,5936 2689,4270 2700,5322 2711,4971 2722,5497 2732,5760 2743,5059 2754,4708 2765,5059 2776,5497 2787,4620 2798,5936 2809,5760 2820,5234 2830,5059 2841,5322 2852,5760 2863,5585 2874,5936 2885,5585 2896,4796 2907,5585 2918,4620 2928,4971 2939,6023 2950,5146 2961,4446 2972,4708 2983,5409 2994,4620 3005,6199 3016,5936 3026,5234 3037,4620 3048,4883 3059,4796 3070,5234 3081,4796 3092,5585 3103,5497 3114,4620 3124,4620 3135,5322 3146,5936 3157,4620 3168,5585 3179,4620 3190,4971 3211,5585 3222,5497 3233,6462 3244,4620 3266,4533 3277,4620 3288,4796 3299,4620 3309,5059 3320,4796 3331,4708 3342,5059 3353,5585 3364,4533 3375,5059 3386,4270 3397,4620 3407,4796 3418,5322 3429,4620 3440,4620 3451,4270 3462,4971 3473,4883 3484,5234 3495,4270 3505,3744 3516,4883 3527,5585 3538,5234 3549,5146 3560,4796 3571,5497 3582,5497 3593,4620 3603,3920 3614,4796 3625,3744 3636,5673 3647,5059 3658,5234 3669,5059 3680,4533 3691,4971 3701,3920 3712,4095 3723,4095 3734,5936 3745,4708 3756,5497 3767,4270 3778,4007 3789,4620 3799,4446 3810,4095 3821,4270 3832,5146 3843,4883 3854,4270 3865,4270 3876,4446 3887,5059 3897,4883 3908,4095 3919,5059 3930,3920 3941,4446 3952,3920 3963,3569 3974,4007 3985,5146 3995,4270 4006,4183 4017,4533 4028,3920 4039,3569 4050,4883 4061,4883 4072,4883 4082,4007 4093,4708 4104,4533 4115,3920 4126,4446 4137,3657 4148,4533 4159,4796 4170,4533 4180,3569 4191,4796 4202,4095 4213,4358 4224,4796 4235,4446 4246,4620 4257,4183 4268,4708 4278,3657 4289,3657 4300,3920 4311,3306 4322,3569 4333,4446 4344,4708 4355,3920 4366,3218 4376,4533 4387,3744 4398,3218 4409,4095 4420,4533 4431,4533 4442,4883 4453,4095 4464,3920 4474,4270 4485,4883 4496,4796 4507,3306 4518,3832 4529,3744 4540,3920 4551,4007 4562,4446 4572,4007 4583,3569 4594,4095 4605,3569 4616,3920 4627,4533 4638,3569 4649,3920 4660,4007 4670,3569 4681,3920 4692,4007 4703,3657 4714,4883 4725,4796 4736,4358 4747,3920 4758,3744 4768,4007 4779,3306 4790,3218 4801,4533 4812,5146 4823,4883 4834,3657 4845,3569 4856,3569 4866,3306 4877,4358 4888,3920 4899,3218 4910,4883 4921,4007 4932,4183 4943,3744 4953,3218 4964,3394 4975,3306 4986,4533 4997,4883 5008,4095 5019,3218 5030,4183 5041,4883 5051,4270 5062,3657 5073,3218 5084,3569 5095,3481 5106,3657 5117,5234 5128,4007 5139,3218 5149,3569 5160,4095 5171,3394 5182,3832 5193,4446 5204,3569 5215,3218 5226,3920 5237,3218 5247,4883 5258,3744 5269,4533 5280,3218 5291,4446 5302,3920 5313,4883 5324,4007 5335,2517 5345,3920 5356,3832 5367,3218 5378,3218 5389,4883 5400,4533 5411,3481 5422,3394 5433,4533 5443,4533 5454,3569 5465,3569 5476,3394 5487,3920 5498,4883 5509,4095 5520,4095 5541,4183 5552,4533 5563,4446 5574,4533 5585,4095 5596,4533 5607,4533 5618,3920 5629,4095 5639,4533 5650,3920 5661,4708 5672,4533 5683,3657 5694,3920 5705,3569 5716,3569 5727,3920 5737,3218 5748,3920 5759,3920 5770,3920 5781,3920 5792,3218 5803,5234 5814,4183 5824,4007 5835,4270 5846,4095 5857,4183 5868,5059 5879,3569 5890,4183 5901,4533 5912,4796 5922,4270 5933,3481 5944,4533 5955,3569 5966,4183 5977,4883 5988,3920 5999,5146 6010,4883 6020,3306 6031,3657 6042,3744 6053,4533 6064,3920 6075,5059 6086,3920 6097,3832 6108,4095 6118,4183 6129,5146 6140,4533 6151,3744 6162,4358 6173,3569 6184,4533 6195,4358 6206,4270 6216,4533 6227,3920 6238,5059 6249,4883 6260,3657 6271,4183 6282,5059 6293,5059 6304,3657 6314,3920 6325,4883 6336,5059 6347,4270 6358,3218 6369,4533 6380,5146 6391,4883 6402,3920 6412,4270 6423,4796 6434,3569 6445,3218 6456,4270 6467,4446 6478,3218 6489,5059 6500,4095 6510,3920 6521,3218 6532,4883 6543,4883 6554,3920 6565,4095 6576,3306 6587,3920 6598,3218 6608,5059 6619,4533 6630,4446 6641,3920 6652,3832 6663,3920 6674,4358 6685,4095 6695,4270 6706,4883 6717,3920 6728,4270 6739,5059 6750,4270 6761,4095 6772,5585 6783,3920 6804,5234 6815,5146 6826,4883 6837,4533 6848,4796 6859,4270 6870,4007 6881,4533 6891,4620 6902,4007 6913,4270 6924,4358 6935,4270 6946,4533 6957,4796 6968,4095 6979,4446 6989,3569 7000,5322 7011,3920 7022,4796 7033,5585 7044,5409 7055,4270 7066,4883 7077,5234 7087,5146 7098,4095 7120,4270 7131,4007 7142,3481 7153,4533 7164,4883 7175,3920 7185,4883 7196,3920 7207,4446 7218,4007 7229,4095 7240,3657 7251,4358 7262,5059 7283,4270 7294,4095 7305,4883 7316,3657 7327,4708 7338,4270 7349,3920 7360,4796 7371,3920 7381,4270 7392,4270 7403,3920 7414,4446 7425,4007 7436,3920 7447,5848 7458,4533 7469,4796 7479,5234 7490,4533 7501,3569 7512,4270 7523,3920 7534,4095 7545,5234 7556,3832 7566,4358 7577,4796 7588,4183 7599,4533 7610,4183 7621,4708 7632,4883 7643,5234 7654,4883 7664,4270 7675,3744 7686,4620 7697,3920 7708,4533 7719,3920 7730,4358 7741,3920 7752,4883 7762,4533 7773,4796 7784,4270 7795,3920 7806,4446 7817,3920 7828,3920 7839,5234 7850,3218 7860,4883 7871,4358 7882,5059 7893,3920 7904,5585 7915,3920 7926,4007 7937,4007 7948,3569 7958,3481 7969,2517 7980,4533 7991,4533 8001,3744 8012,4796 8023,4270 8034,4796 8045,3920 8055,5146 8066,3832 8077,3218 8088,4446 8099,4270 8110,3481 8121,5497 8132,4620 8143,3657 8153,5059 8164,3920 8175,3832 8186,4007 8197,3394 8208,3920 8219,4620 8230,3657 8241,3569 8251,4095 8262,5585 8273,4183 8284,3744 8295,3832 8306,3306 8317,3744 8328,4708 8339,4796 8349,4270 8360,4883 8371,4270 8382,4533 8393,4270 8404,4533 8415,3218 8426,3569 8436,4358 8447,4533 8458,3218 8469,4358 8480,3218 8491,3394 8502,3218 8513,4883 8524,4270 8534,4533 8545,3920 8556,4270 8567,4007 8578,3218 8589,2955 8600,3218 8611,4270 8622,4533 8632,3130 8643,3306 8654,3306 8665,3218 8676,4533 8687,4533 8698,4358 8709,4533 8720,3569 8730,4095 8741,3218 8752,4446 8763,4270 8774,3920 8785,3218 8796,3744 8807,3657 8818,3657 8828,4533 8839,3569 8850,4446 8861,4533 8872,3218 8883,3218 8894,3481 8905,4533 8916,3218 8926,4270 8937,3306 8948,3218 8959,3130 8970,3306 8981,4358 8992,3218 9003,3481 9014,4183 9024,3218 9035,4533 9046,3306 9057,4183 9068,3744 9079,3218 9090,3218 9101,3306 9112,3306 9122,4183 9133,3218 9144,3218 9155,3218 9166,4533 9177,3306 9188,4533 9199,3657 9210,4533 9220,3218 9231,4358 9242,3218 9253,3569 9264,3394 9275,5234 9286,3218 9297,4533 9307,3920 9318,4533 9329,4883 9340,3394 9351,2780 9362,3657 9373,3832 9384,3657 9395,3481 9405,4358 9416,3569 9427,3657 9438,3218 9449,3394 9460,4095 9471,3394 9482,3218 9493,3306 9503,3218 9514,4358 9525,4095 9536,4007 9547,4533 9558,3832 9569,4183 9580,3218 9591,3218 9601,3744 9612,3218 9623,3218 9634,4183 9645,4883 9656,3130 9667,3920 9678,4533 9689,3920 9699,4183 9710,3920 9721,4183 9732,3569 9743,3306 9765,4533 9776,4883 9787,3657 9797,3920 9808,4446 9819,3394 9830,3218 9841,3657 9852,4533 9863,4095 9874,3481 9885,4446 9895,4095 9906,3832 9917,3218 9928,4533 9939,4183 9950,2604 9961,3218 9972,2517 9983,3218 9993,4533 10004,3218 10015,3306 10026,4533 10037,3218 10048,3394 10059,3218 10070,2692 10081,4183 10091,3306 10102,2429 10113,3657 10124,3394 10135,4358 10146,5234 10157,3657 10168,3218 10178,3657 10189,4270 10200,4095 10211,2166 10222,3218 10233,3744 10244,4533 10255,3657 10266,4358 10276,4533 10287,4007 10298,3218 10309,3218 10320,4533 10331,3394 10342,4358 10353,3218 10364,3218 10374,4183 10385,4095 10396,3218 10407,3218 10418,4183 10429,3218 10440,3569 10451,4183 10462,3218 10472,3920 10483,3306 10494,4358 10505,3569 10516,3569 10527,4533 10538,3043 10549,3569 10560,4533 10570,3394 10581,4183 10592,4533 10603,3481 10614,4183 10625,4183 10636,4533 10647,3218 10658,3832 10668,4358 10679,4533 10690,3218 10701,3218 10712,3920 10723,4446 10734,4007 10745,3920 10756,4007 10777,4533 10788,3569 10799,4533 10810,3218 10832,3657 10843,3218 10854,3832 10864,3218 10875,3569 10886,3394 10897,4533 10908,4533 10919,5146 10930,3920 10941,4533 10952,4095 10962,4533 10973,3569 10984,4533 10995,4095 11006,4358 11017,4095 11028,3744 11039,3744 11049,4007 11060,3657 11071,4270 11082,3657 11093,4270 11104,4007 11115,3657 11126,3394 11137,5059 11147,4533 11158,3569 11169,4095 11180,3920 11191,3218 11202,3569 11213,4883 11224,4533 11235,3744 11245,3569 11256,4183 11267,4183 11278,4533 11289,3569 11300,4883 11311,3744 11322,4095 11333,4007 11343,4358 11354,3218 11365,3394 11376,3569 11387,3218 11398,3657 11409,4533 11420,4007 11431,4446 11441,4270 11452,3306 11463,4358 11474,3394 11485,3832 11496,3832 11507,5409 11518,3569 11529,4533 11539,3744 11550,4095 11561,3394 11572,4446 11583,3569 11594,5146 11605,4533 11616,4533 11627,3657 11637,3218 11648,4358 11659,3218 11670,3394 11681,4095 11692,4446 11703,5146 11714,4270 11725,3306 11735,4533 11746,3744 11757,4095 11779,4796 11790,3920 11801,3832 11812,3569 11823,3218 11833,4446 11844,4533 11855,4708 11866,4533 11877,3657 11888,3569 11899,4095 11910,3569 11920,4358 11931,4533 11942,3569 11953,3306 11964,4358 11975,3306 11986,3218 11997,3218 12008,4883 12018,4533 12029,3920 12040,3920 12051,5059 12062,4358 12073,3394 12084,3569 12095,4533 12106,4007 12116,3920 12127,3832 12138,3218 12149,4446 12160,3569 12171,3569 12182,3569 12204,3394 12214,3394 12225,4796 12236,3920 12247,3218 12258,3394 12269,4095 12280,4533 12291,3569 12302,2604 12312,4533 12323,4095 12334,4358 12345,5146 12356,4358 12367,3657 12378,3394 12389,3481 12400,3920 12410,4533 12421,3218 12432,4708 12443,4358 12454,3218 12465,3306 12476,3744 12487,4883 12498,4533 12508,3569 12519,3920 12530,3920 12541,4883 12552,4533 12563,4446 12574,3394 12585,4533 12596,3920 12606,4358 12617,3569 12628,3394 12639,4095 12650,4007 12661,4095 12672,3481 12683,3569 12694,5409 12704,4533 12715,3569 12726,3920 12737,4533 12748,3394 12759,3569 12770,3744 12781,3920 12791,3920 12802,3306 12813,4446 12824,3394 12835,3306 12846,4533 12857,4533 12868,4183 12879,4533 12889,4533 12900,3394 12911,4533 12922,4095 12933,4533 12944,4095 12955,3920 12966,4007 12977,3218 12987,3920 12998,5146 13009,3218 13020,3569 13031,2166 13042,4533 13053,4358 13064,2955 13075,4183 13085,3394 13096,2517 13107,3832 13118,3218 13129,4533 13140,5059 13151,3832 13162,4183 13173,3218 13183,4533 13194,4270 13205,4533 13216,4533 13227,4533 13238,3394 13249,3920 13260,3218 13271,4533 13281,4095 13292,4533 13303,3832 13314,4270 13325,4095 13336,3920 13347,4446 13358,3657 13369,3043 13379,3394 13390,4183 13401,3218 13412,3832 13423,3394 13434,3394 13445,4533 13456,3920 13467,3394 13477,4183"/>
 <text class="TextShape"><tspan class="TextParagraph" font-family="Liberation Sans" font-size="353px" font-weight="400"><tspan class="TextPosition" x="2150" y="7758"><tspan fill="rgb(0,0,0)" stroke="none">0</tspan></tspan></tspan></text>
 <text class="TextShape"><tspan class="TextParagraph" font-family="Liberation Sans" font-size="353px" font-weight="400"><tspan class="TextPosition" x="4142" y="7758"><tspan fill="rgb(0,0,0)" stroke="none">200</tspan></tspan></tspan></text>
 <text class="TextShape"><tspan class="TextParagraph" font-family="Liberation Sans" font-size="353px" font-weight="400"><tspan class="TextPosition" x="6320" y="7758"><tspan fill="rgb(0,0,0)" stroke="none">400</tspan></tspan></tspan></text>
 <text class="TextShape"><tspan class="TextParagraph" font-family="Liberation Sans" font-size="353px" font-weight="400"><tspan class="TextPosition" x="8497" y="7758"><tspan fill="rgb(0,0,0)" stroke="none">600</tspan></tspan></tspan></text>
 <text class="TextShape"><tspan class="TextParagraph" font-family="Liberation Sans" font-size="353px" font-weight="400"><tspan class="TextPosition" x="10675" y="7758"><tspan fill="rgb(0,0,0)" stroke="none">800</tspan></tspan></tspan></text>
 <text class="TextShape"><tspan class="TextParagraph" font-family="Liberation Sans" font-size="353px" font-weight="400"><tspan class="TextPosition" x="12759" y="7758"><tspan fill="rgb(0,0,0)" stroke="none">1000</tspan></tspan></tspan></text>
 <text class="TextShape"><tspan class="TextParagraph" font-family="Liberation Sans" font-size="353px" font-weight="400"><tspan class="TextPosition" x="14937" y="7758"><tspan fill="rgb(0,0,0)" stroke="none">1200</tspan></tspan></tspan></text>
 <text class="TextShape"><tspan class="TextParagraph" font-family="Liberation Sans" font-size="353px" font-weight="400"><tspan class="TextPosition" x="1623" y="7311"><tspan fill="rgb(0,0,0)" stroke="none">28</tspan></tspan></tspan></text>
 <text class="TextShape"><tspan class="TextParagraph" font-family="Liberation Sans" font-size="353px" font-weight="400"><tspan class="TextPosition" x="1332" y="6596"><tspan fill="rgb(0,0,0)" stroke="none">28.2</tspan></tspan></tspan></text>
 <text class="TextShape"><tspan class="TextParagraph" font-family="Liberation Sans" font-size="353px" font-weight="400"><tspan class="TextPosition" x="1332" y="5881"><tspan fill="rgb(0,0,0)" stroke="none">28.4</tspan></tspan></tspan></text>
 <text class="TextShape"><tspan class="TextParagraph" font-family="Liberation Sans" font-size="353px" font-weight="400"><tspan class="TextPosition" x="1332" y="5166"><tspan fill="rgb(0,0,0)" stroke="none">28.6</tspan></tspan></tspan></text>
 <text class="TextShape"><tspan class="TextParagraph" font-family="Liberation Sans" font-size="353px" font-weight="400"><tspan class="TextPosition" x="1332" y="4452"><tspan fill="rgb(0,0,0)" stroke="none">28.8</tspan></tspan></tspan></text>
 <text class="TextShape"><tspan class="TextParagraph" font-family="Liberation Sans" font-size="353px" font-weight="400"><tspan class="TextPosition" x="1623" y="3737"><tspan fill="rgb(0,0,0)" stroke="none">29</tspan></tspan></tspan></text>
 <text class="TextShape"><tspan class="TextParagraph" font-family="Liberation Sans" font-size="353px" font-weight="400"><tspan class="TextPosition" x="1332" y="3022"><tspan fill="rgb(0,0,0)" stroke="none">29.2</tspan></tspan></tspan></text>
 <text class="TextShape"><tspan class="TextParagraph" font-family="Liberation Sans" font-size="353px" font-weight="400"><tspan class="TextPosition" x="1332" y="2307"><tspan fill="rgb(0,0,0)" stroke="none">29.4</tspan></tspan></tspan></text>
 <text class="TextShape"><tspan class="TextParagraph" font-family="Liberation Sans" font-size="353px" font-weight="400"><tspan class="TextPosition" x="1332" y="1593"><tspan fill="rgb(0,0,0)" stroke="none">29.6</tspan></tspan></tspan></text>
 <text class="TextShape"><tspan class="TextParagraph" font-family="Liberation Sans" font-size="459px" font-weight="400"><tspan class="TextPosition" x="4110" y="851"><tspan fill="rgb(0,0,0)" stroke="none">Kp = 800, Ki = 2, Kd = 0, Set point = 29</tspan></tspan></tspan></text>
 <text class="TextShape"><tspan class="TextParagraph" font-family="Liberation Sans" font-size="318px" font-weight="400"><tspan class="TextPosition" x="7936" y="8405"><tspan fill="rgb(0,0,0)" stroke="none">Time (s)</tspan></tspan></tspan></text>
 <text class="TextShape" transform="translate(837,6144) rotate(-90) translate(-837,-6144)"><tspan class="TextParagraph" font-family="Liberation Sans" font-size="318px" font-weight="400"><tspan class="TextPosition" x="837" y="6144"><tspan fill="rgb(0,0,0)" stroke="none">Temperature (Celsius)</tspan></tspan></tspan></text>
</svg>